<svg xmlns="http://www.w3.org/2000/svg" xmlns:xlink="http://www.w3.org/1999/xlink" xmlns:lucid="lucid" width="1168" height="572"><g transform="translate(-348 -598)" lucid:page-tab-id="HowzCfBBZfS3"><path d="M500 642c0-1.1.9-2 2-2h316c1.1 0 2 .9 2 2v396c0 1.1-.9 2-2 2H502c-1.1 0-2-.9-2-2z" stroke="#000" stroke-width="3" fill="#fce4ec"/><use xlink:href="#a" transform="matrix(1,0,0,1,516,656) translate(0 16.69921875)"/><use xlink:href="#b" transform="matrix(1,0,0,1,516,656) translate(95.3525390625 16.69921875)"/><use xlink:href="#c" transform="matrix(1,0,0,1,516,656) translate(166.5615234375 16.69921875)"/><use xlink:href="#d" transform="matrix(1,0,0,1,516,656) translate(227.8125 16.69921875)"/><path d="M770.1 727.6L755.2 702c-1.15-2.06-3.18-3.22-5.56-3.28H720c-2.38.06-4.4 1.22-5.56 3.28l-14.9 25.5c-1.15 2.06-1.15 4.38 0 6.43l14.9 25.64c1.15 2.1 3.1 3.34 5.56 3.4h29.64c2.46-.06 4.4-1.3 5.57-3.4l14.9-25.52c1.15-2.12 1.15-4.43 0-6.5z" stroke="#000" stroke-opacity="0" fill="#4285f4"/><path d="M748.32 717.6l-10.18.77-3.66 3.62-4.9-4.82-7.37 1.05-1.42 6.83 5.66 5.6-5.8 5.72.72 7.83 19.02 18.8h9.27c2.43-.1 4.42-1.28 5.57-3.4l12.98-22.3z" stroke="#000" stroke-opacity="0" fill-opacity=".07"/><path d="M745.46 730.86l2.82-2.8c2.9-2.87 2.9-7.56 0-10.47-2.92-2.93-7.68-2.96-10.66-.04l-2.8 2.76-2.82-2.76c-2.92-2.9-7.66-2.9-10.57 0-2.98 2.88-2.98 7.6-.07 10.5l2.83 2.8-2.84 2.8c-.03 0-.03.03-.06.03-2.92 2.93-2.9 7.65.06 10.53 2.95 2.92 7.72 2.9 10.64-.03l2.82-2.8 2.8 2.8c.03 0 .06.03.06.07 2.98 2.88 7.75 2.85 10.67-.07 2.9-2.94 2.88-7.66-.07-10.54zm-10.64 4.94c-2.76 0-5-2.2-5-4.94 0-2.72 2.24-4.93 5-4.93s5 2.2 5 4.93c0 2.73-2.24 4.94-5 4.94zm4.87-16.2c1.8-1.76 4.72-1.76 6.5.04 1.77 1.76 1.77 4.62 0 6.4l-2.8 2.78-6.5-6.45zm-16.27 6.43c-1.78-1.77-1.78-4.66 0-6.43 1.8-1.8 4.7-1.8 6.5 0l2.82 2.77-6.5 6.45zm6.5 16.13c-1.8 1.76-4.7 1.76-6.5 0-1.78-1.8-1.78-4.7 0-6.46l2.83-2.8 6.5 6.46zm16.28 0c-1.78 1.76-4.7 1.76-6.5 0l-2.8-2.8 6.5-6.45 2.8 2.8c1.8 1.77 1.8 4.66 0 6.46z" stroke="#000" stroke-opacity="0" fill="#fff"/><use xlink:href="#e" transform="matrix(1,0,0,1,698.6774705198937,768) translate(14.7998046875 16.69921875)"/><use xlink:href="#f" transform="matrix(1,0,0,1,698.6774705198937,768) translate(8.47607421875 37.79296875)"/><use xlink:href="#g" transform="matrix(1,0,0,1,698.6774705198937,768) translate(14.63720703125 58.88671875)"/><path d="M767.23 870.34L752.2 886.8l-2.47-2.8 16.92-18.4-16.92-18.47 2.46-2.8 15.03 16.47 4.33 4.8-4.33 4.74zM704.55 870.34l14.75 16.45 2.53-2.8-17-18.4 17-18.47-2.53-2.8-14.75 16.47-4.55 4.8 4.55 4.74z" stroke="#000" stroke-opacity="0" fill="#0078d7"/><path d="M727.1 865.6c0-2.6-1.94-4.8-4.33-4.8-2.53 0-4.34 2.2-4.34 4.8 0 2.53 2.03 4.74 4.34 4.74 2.53 0 4.34-2.2 4.34-4.75zM735.78 870.34c2.4 0 4.34-2.2 4.34-4.75 0-2.6-1.95-4.8-4.34-4.8-2.3 0-4.34 2.2-4.34 4.8 0 2.53 2.03 4.74 4.34 4.74zM748.8 870.34c2.38 0 4.33-2.2 4.33-4.75 0-2.6-2.02-4.8-4.34-4.8-2.54 0-4.34 2.2-4.34 4.8 0 2.53 1.8 4.74 4.33 4.74z" stroke="#000" stroke-opacity="0" fill="#0078d7"/><use xlink:href="#h" transform="matrix(1,0,0,1,670,895) translate(4.01416015625 16.69921875)"/><use xlink:href="#i" transform="matrix(1,0,0,1,670,895) translate(47.69580078125 16.69921875)"/><path d="M1060 642c0-1.1.9-2 2-2h316c1.1 0 2 .9 2 2v396c0 1.1-.9 2-2 2h-316c-1.1 0-2-.9-2-2z" stroke="#000" stroke-width="3" fill="#fce4ec"/><use xlink:href="#a" transform="matrix(1,0,0,1,1076,656) translate(0 16.69921875)"/><use xlink:href="#b" transform="matrix(1,0,0,1,1076,656) translate(95.3525390625 16.69921875)"/><use xlink:href="#j" transform="matrix(1,0,0,1,1076,656) translate(166.5615234375 16.69921875)"/><path d="M1381.88 800c-.84.08-1.52.25-2.2.6l-29.23 14.4c-1.6.76-2.7 2.1-3.04 3.87l-7.23 32.45c-.34 1.5-.1 3.03.76 4.38.08.17.17.25.33.42l20.23 25.95c1.08 1.43 2.6 2.2 4.37 2.2h32.52c1.76 0 3.28-.77 4.37-2.2l20.23-25.95c1.1-1.43 1.5-3.12 1.1-4.9l-7.25-32.35c-.34-1.76-1.44-3.1-3.04-3.87l-29.23-14.4c-.92-.43-1.77-.68-2.7-.6z" stroke="#fff" stroke-width="0" fill="#326ce5"/><path d="M1382.13 811.04c-1 0-1.73.87-1.73 2v.55c0 .6.13 1.1.2 1.66.17 1.25.3 2.3.23 3.3-.12.37-.37.68-.6.93v.74c-1.06.12-2.1.25-3.22.5-4.5 1.05-8.46 3.48-11.42 6.78-.18-.13-.56-.38-.62-.5-.3.06-.6.2-1.05-.06-.8-.56-1.47-1.3-2.33-2.24-.44-.44-.68-.8-1.18-1.25-.13-.12-.25-.24-.38-.3-.37-.32-.8-.5-1.23-.5-.57 0-1.06.18-1.43.62-.62.8-.37 1.98.43 2.66l.06.06c.06.07.25.2.3.25.57.38 1 .62 1.5.87 1.04.7 1.9 1.25 2.6 1.93.3.3.3.8.36 1.06l.55.5c-3.02 4.66-4.38 10.44-3.58 16.3l-.75.24c-.2.25-.43.62-.74.75-.92.3-1.9.43-3.14.55-.56.07-1.05 0-1.67.13-.13 0-.32.06-.5.12-1.05.25-1.73 1.25-1.5 2.18.2 1 1.2 1.56 2.24 1.37 0 0 .06 0 .06-.06.2 0 .37-.06.5-.06.55-.18.98-.43 1.54-.62 1.17-.43 2.1-.8 3.1-.93.36-.07.8.24.97.36l.75-.18c1.8 5.66 5.44 10.2 10.13 13.06l-.3.74c.12.3.24.75.12 1.06-.3.87-.93 1.87-1.55 2.92-.37.5-.68.87-.98 1.43-.07.12-.13.37-.2.5-.48 1-.1 2.1.75 2.54.87.44 1.92 0 2.4-1 .07-.12.2-.3.26-.5.24-.55.3-1.05.5-1.6.42-1.2.67-2.5 1.35-3.24.18-.25.43-.3.74-.38l.37-.74c4.08 1.6 8.65 2 13.22.93.98-.24 2.03-.55 2.96-.92.12.25.37.62.37.68.3.13.67.2.92.56.5.87.8 1.87 1.17 3.05.18.56.3 1.12.55 1.68l.18.43c.5 1 1.55 1.5 2.4 1.06.87-.43 1.25-1.55.75-2.55-.06-.2-.12-.38-.18-.5-.3-.57-.62-.94-.93-1.44-.68-1.12-1.24-2-1.6-2.92-.13-.44.06-.75.18-1.06-.12-.06-.25-.5-.3-.68 4.8-3 8.4-7.7 10.06-13.12.25 0 .62.12.8.12.26-.2.5-.44.94-.37.98.12 1.9.5 3.08.93.56.2 1 .44 1.55.62.12.06.3.06.5.13h.05c1.05.26 2.04-.37 2.23-1.3.24-1-.44-2-1.5-2.24-.1 0-.36-.06-.48-.12-.62-.13-1.1-.07-1.67-.13-1.23-.1-2.22-.24-3.15-.55-.37-.12-.6-.56-.74-.74l-.73-.24c.37-2.74.3-5.54-.37-8.4-.62-2.86-1.73-5.53-3.27-7.83.18-.2.55-.5.62-.56.06-.38 0-.7.37-1.06.68-.6 1.54-1.17 2.6-1.86.48-.3.92-.5 1.4-.87.13-.12.32-.25.44-.3.8-.7 1-1.94.43-2.68-.62-.82-1.8-.88-2.66-.2-.12.13-.25.25-.37.3-.5.45-.74.88-1.17 1.32-.87.87-1.55 1.6-2.35 2.17-.37.18-.87.12-1.05.12l-.68.5c-3.83-4.1-8.96-6.72-14.57-7.28v-.8c-.25-.2-.56-.38-.62-.88-.06-1 .06-2.05.24-3.3.07-.56.2-1.05.2-1.67v-.57c0-1.12-.75-2-1.74-2zm-2.22 14l-.5 9.5h-.05c0 .87-.68 1.56-1.54 1.56-.3 0-.6-.13-.86-.3h-.06l-7.53-5.55c2.34-2.36 5.3-4.04 8.7-4.85.62-.18 1.24-.25 1.86-.37zm4.45 0c3.96.5 7.66 2.35 10.5 5.2l-7.53 5.5c-.68.48-1.6.36-2.1-.33-.25-.23-.37-.55-.37-.86zm-17.72 8.76l6.92 6.34-.07.06c.62.56.75 1.5.25 2.18-.25.3-.5.44-.8.56h-.06l-8.77 2.67c-.5-4.22.5-8.38 2.53-11.8zm30.94 0c1.05 1.74 1.8 3.6 2.28 5.72.44 2.05.56 4.04.38 6.03l-8.9-2.6v-.07c-.8-.2-1.3-1.06-1.1-1.87.1-.36.24-.6.48-.86l6.87-6.34zm-16.86 6.84h2.85l1.73 2.24-.62 2.86-2.53 1.24-2.53-1.24-.62-2.86zm9.1 7.7c.05 0 .17 0 .3.07h.06l9.08 1.57c-1.3 3.85-3.9 7.2-7.3 9.45l-3.5-8.83c-.32-.76 0-1.7.73-2.06.2-.13.37-.13.62-.2zm-15.4.07c.75 0 1.37.5 1.5 1.26.12.3.06.68-.07 1l-3.46 8.76c-3.33-2.18-5.93-5.4-7.28-9.4l9-1.6h.3zm7.67 3.87c.25-.06.5 0 .74.12.32.18.57.37.7.68h.05l4.45 8.33c-.62.2-1.18.38-1.8.5-3.4.82-6.8.57-9.87-.55l4.44-8.27c.25-.5.74-.8 1.3-.8z" stroke="#fff" stroke-width=".05" fill="#fff"/><use xlink:href="#k" transform="matrix(1,0,0,1,1310,893.2612711397052) translate(8.498046875 16.69921875)"/><use xlink:href="#l" transform="matrix(1,0,0,1,1310,893.2612711397052) translate(79.70703125 16.69921875)"/><path d="M495.02 797.87c-.84.08-1.5.25-2.2.6l-29.23 14.4c-1.6.76-2.7 2.1-3.04 3.87l-7.24 32.44c-.34 1.52-.1 3.04.75 4.4.1.15.17.24.34.4l20.23 25.96c1.1 1.43 2.62 2.2 4.38 2.2h32.54c1.77 0 3.3-.77 4.38-2.2L536.14 854c1.1-1.45 1.52-3.13 1.1-4.9L530 816.74c-.34-1.77-1.44-3.1-3.04-3.87l-29.24-14.4c-.93-.43-1.77-.68-2.7-.6z" stroke="#fff" stroke-width="0" fill="#326ce5"/><path d="M495.28 808.9c-1 0-1.73.88-1.73 2v.56c0 .62.12 1.1.18 1.67.2 1.25.3 2.3.25 3.3-.12.37-.37.68-.62.93v.75c-1.05.13-2.1.26-3.2.5-4.52 1.06-8.47 3.5-11.43 6.8-.2-.14-.56-.4-.62-.5-.3.05-.6.17-1.04-.07-.8-.56-1.48-1.3-2.35-2.24-.42-.45-.67-.82-1.16-1.26-.12-.12-.25-.25-.37-.3-.37-.32-.8-.5-1.24-.5-.55 0-1.05.18-1.42.62-.6.8-.36 2 .45 2.67l.06.06.32.24c.55.37.98.62 1.48.87 1.05.7 1.9 1.26 2.6 1.94.3.3.3.8.36 1.06l.56.5c-3.03 4.66-4.4 10.44-3.58 16.3l-.74.24c-.2.25-.44.62-.75.74-.92.32-1.9.44-3.15.56-.55.07-1.04 0-1.66.13-.13 0-.3.06-.5.12-1.05.24-1.73 1.24-1.48 2.17.2 1 1.17 1.55 2.22 1.37 0 0 .07 0 .07-.06.18 0 .37-.07.5-.07.55-.17.98-.42 1.53-.6 1.18-.44 2.1-.82 3.1-.94.36-.06.8.25.98.37l.74-.18c1.8 5.65 5.44 10.2 10.13 13.06l-.3.75c.1.3.24.75.1 1.06-.3.88-.9 1.87-1.53 2.93-.37.5-.68.87-1 1.43-.05.13-.1.38-.17.5-.5 1-.13 2.1.74 2.55.86.45 1.9 0 2.4-1 .07-.1.2-.3.25-.48.25-.56.3-1.06.5-1.62.43-1.18.68-2.5 1.36-3.23.18-.25.43-.3.74-.38l.37-.75c4.06 1.6 8.63 2 13.2.93 1-.25 2.04-.56 2.97-.93.12.25.37.62.37.68.3.13.68.2.92.56.5.86.8 1.86 1.18 3.04.18.56.3 1.12.55 1.68l.18.43c.5 1 1.54 1.5 2.4 1.06.87-.43 1.24-1.55.75-2.54-.06-.2-.13-.37-.2-.5-.3-.56-.6-.93-.9-1.43-.7-1.12-1.25-2-1.62-2.92-.1-.43.07-.74.2-1.05-.13-.06-.25-.5-.3-.68 4.8-3 8.4-7.7 10.05-13.12.25 0 .62.12.8.12.25-.2.5-.44.93-.37 1 .12 1.92.5 3.1.93.55.2.98.43 1.53.62.14.06.32.06.5.13h.07c1.05.24 2.04-.38 2.22-1.3.24-1-.44-2-1.5-2.25-.1 0-.36-.06-.48-.12-.62-.12-1.1-.06-1.67-.12-1.24-.12-2.22-.25-3.15-.56-.37-.12-.62-.56-.74-.74l-.74-.25c.37-2.74.3-5.54-.37-8.4-.62-2.86-1.73-5.53-3.28-7.83.2-.2.56-.5.62-.56.05-.38 0-.7.36-1.06.68-.62 1.55-1.18 2.6-1.87.5-.3.92-.5 1.42-.86.12-.12.3-.25.43-.3.8-.7 1-1.94.44-2.68-.62-.8-1.8-.87-2.65-.2-.14.13-.26.26-.38.32-.5.44-.75.87-1.18 1.3-.86.88-1.54 1.62-2.34 2.18-.38.2-.87.13-1.05.13l-.68.5c-3.83-4.12-8.96-6.73-14.58-7.3v-.8c-.26-.2-.56-.37-.63-.87-.06-1 .07-2.05.25-3.3.06-.56.2-1.05.2-1.68v-.55c0-1.12-.75-2-1.74-2zm-2.23 14l-.5 9.5h-.05c0 .88-.68 1.57-1.55 1.57-.3 0-.6-.13-.86-.3h-.07l-7.54-5.55c2.34-2.36 5.3-4.04 8.7-4.85.62-.2 1.24-.25 1.85-.37zm4.45 0c3.95.5 7.66 2.36 10.5 5.22l-7.54 5.47c-.67.5-1.6.37-2.1-.32-.24-.24-.37-.56-.37-.87zm-17.72 8.77l6.9 6.34-.05.07c.62.56.74 1.5.25 2.18-.25.3-.5.43-.8.56H486l-8.76 2.68c-.5-4.23.5-8.4 2.54-11.8zm30.94 0c1.05 1.74 1.8 3.6 2.28 5.72.43 2.04.56 4.03.37 6.02l-8.9-2.6v-.07c-.8-.2-1.3-1.06-1.1-1.87.12-.37.24-.62.5-.87l6.85-6.33zm-16.86 6.84h2.84l1.73 2.25-.62 2.86-2.52 1.25-2.53-1.24-.62-2.85zm9.07 7.72c.07 0 .2 0 .3.06h.08l9.08 1.56c-1.3 3.85-3.9 7.2-7.28 9.45l-3.52-8.84c-.3-.75 0-1.68.74-2.05.18-.12.37-.12.6-.18zm-15.37.06c.74 0 1.36.5 1.48 1.25.12.3.06.68-.06 1l-3.46 8.76c-3.33-2.2-5.93-5.42-7.3-9.4l9.03-1.62h.3zm7.66 3.86c.24-.06.5 0 .74.12.3.2.55.38.68.7h.06l4.44 8.32c-.6.2-1.17.37-1.8.5-3.38.8-6.78.56-9.87-.56l4.45-8.27c.25-.5.74-.8 1.3-.8z" stroke="#fff" stroke-width=".05" fill="#fff"/><use xlink:href="#k" transform="matrix(1,0,0,1,423.1465527853429,891.1306355698526) translate(8.498046875 16.69921875)"/><use xlink:href="#l" transform="matrix(1,0,0,1,423.1465527853429,891.1306355698526) translate(79.70703125 16.69921875)"/><path d="M600.36 975.66c.12.3.44.4.75.4.32.13.63.13.95.13.3 0 .56 0 .75-.13.3-.12.43-.3.74-.53.13-.3.32-.53.44-.82.13-.3.13-.65.13-1.17 0-.4 0-.7-.12-1.12-.2-.35-.2-.64-.44-.94-.18-.3-.43-.42-.62-.65-.3-.18-.56-.3-.87-.3-.44 0-.75.12-1.07.3-.3.12-.5.35-.75.53-.18.3-.3.52-.5.82-.12.23-.12.64-.12 1.05 0 .53 0 .94.14 1.18.3.7.5 1 .62 1.23z" stroke="#000" stroke-opacity="0" fill="#0078d7"/><path d="M609.1 986.16c.44 0 1.06 0 1.5.12 2.44-4.3 7.25-7.1 12.87-7.4v-25.16c0-4-9.87-7.92-21.74-7.92-12.05 0-21.73 3.64-21.73 7.7v36.3c0 3.63 8 7.1 18.42 7.62-.12-.53-.12-1.06-.12-1.58-.06-5.22 4.75-9.68 10.8-9.68zm7.87-7.4h-7.55V968.4h3.5v7.96h4.05v2.4zm-15.24-30.14c8.56 0 15.5 1.87 15.5 4.16 0 2.3-6.94 4.17-15.5 4.17-8.6 0-15.55-1.88-15.55-4.17 0-2.3 6.94-4.16 15.55-4.16zm-6.5 27.74c0 .24-.18.53-.3.82-.2.24-.32.53-.63.65-.3.3-.56.4-.87.53-.3.1-.75.3-1.38.4-.43.12-1.06.12-1.8.12h-1.07c-.3 0-.62 0-.94-.1-.3 0-.56-.2-.75-.2-.32 0-.44-.1-.57-.22v-2.82c.13.12.44.24.75.35.3.1.44.3.75.4.3.12.56.12.88.3.32.1.63.1.94.1.3 0 .44 0 .56-.1.2 0 .32-.18.32-.18.18 0 .18-.12.18-.23v-.3c0-.12 0-.3-.18-.42-.13-.1-.13-.23-.32-.23-.12-.18-.3-.18-.56-.3-.3-.17-.43-.17-.75-.3-.44-.1-.94-.4-1.38-.63-.3-.3-.56-.4-.88-.7-.3-.3-.43-.54-.43-.83-.18-.24-.18-.65-.18-.95 0-.53.2-.94.3-1.35.32-.35.64-.82.95-1.05.44-.3.87-.53 1.5-.65.56-.17 1.18-.3 1.93-.3h1.07c.3 0 .62 0 .93.13.3 0 .44.17.75.17.13 0 .44.12.56.12v2.7c-.1-.18-.24-.18-.55-.3-.2-.1-.44-.1-.75-.3-.3-.1-.43-.1-.75-.1h-.93c-.44 0-.75 0-.88.1-.3.2-.3.3-.3.54 0 .18 0 .3.1.3 0 .17.2.17.33.3.18.1.3.1.43.28.2.12.44.12.75.23.44.18.94.4 1.38.53.43.3.75.4 1.06.7.3.3.43.53.74.83.2.23.3.64.3 1.17-.3.23-.3.47-.3.76zm1.2-.53c-.32-.7-.44-1.34-.44-2.17 0-.82.18-1.64.43-2.28.3-.7.74-1.24 1.18-1.76.45-.53 1.26-.82 1.82-1.06.8-.3 1.56-.4 2.44-.4.94 0 1.68.1 2.25.4.76.24 1.38.65 1.82 1.06.5.4.93 1.05 1.25 1.58.3.7.43 1.35.43 2.35 0 .52 0 1.17-.3 1.58-.2.53-.45.94-.76 1.35-.3.4-.62.82-1.06 1.06-.5.3-.75.52-1.37.82l3.94 3h-4.56l-2.56-2.48c-.75 0-1.5-.3-2.06-.4-.62-.24-1.25-.65-1.7-1.06 0-.4-.42-.94-.73-1.6z" stroke="#000" stroke-opacity="0" fill="#0078d7"/><path d="M642.45 999.47c0-2.52-2.3-4.7-5.12-4.98.13-.83.3-1.48.3-2.3 0-6.57-6.04-11.97-13.4-11.97-5.63 0-10.63 3-12.57 7.5-.75-.1-1.5-.22-2.37-.22-5.32 0-9.56 3.76-9.56 8.45 0 4.58 4.12 8.33 9.36 8.5H638.52v-.17c2.25-.47 3.93-2.52 3.93-4.8zm-5.12 3.64h-28.1c-4.37 0-8-3.22-8-7.1 0-3.92 3.63-7.14 8-7.14.93 0 1.8.1 2.56.4l.74.24.3-.64c1.7-4.34 6.2-7.28 11.38-7.28 6.62 0 11.93 4.8 11.93 10.62 0 .94-.2 1.88-.5 2.82l-.32 1.1 1.13-.17h.43c2.24 0 4.05 1.65 4.05 3.64 0 1.75-1.56 3.4-3.62 3.5z" stroke="#000" stroke-opacity="0" fill="#0078d7"/><use xlink:href="#m" transform="matrix(1,0,0,1,550,1013.459253720085) translate(13.90283203125 16.69921875)"/><use xlink:href="#n" transform="matrix(1,0,0,1,550,1013.459253720085) translate(68.15771484375 16.69921875)"/><path d="M780 641.66c0-1.1.9-2 2-2h36c1.1 0 2 .9 2 2v36c0 1.1-.9 2-2 2h-36c-1.1 0-2-.9-2-2z" stroke="#000" stroke-width="2" fill="#7ab648"/><use xlink:href="#o" transform="matrix(1,0,0,1,785,644.6561622377835) translate(3.240234375 20.44921875)"/><path d="M1340 645c0-1.1.9-2 2-2h36c1.1 0 2 .9 2 2v36c0 1.1-.9 2-2 2h-36c-1.1 0-2-.9-2-2z" stroke="#000" stroke-width="2" fill="#7ab648"/><use xlink:href="#o" transform="matrix(1,0,0,1,1345,648) translate(3.240234375 20.44921875)"/><path d="M770.1 971.85l-14.9-25.57c-1.15-2.06-3.18-3.22-5.56-3.28H720c-2.38.06-4.4 1.22-5.56 3.28l-14.9 25.5c-1.15 2.07-1.15 4.38 0 6.37l14.9 25.7c1.15 2.13 3.1 3.35 5.56 3.4h29.64c2.38-.05 4.4-1.27 5.57-3.4l14.9-25.5c1.15-2.13 1.15-4.44 0-6.5z" stroke="#000" stroke-opacity="0" fill="#4285f4"/><path d="M751.42 966.96l-13.64.2-1.38 6.13 7.68 7.6.1 1.2-18.08-17.9-6.2 5.34 6.82 7.36-6.86 9.13 21.12 21.23h8.68c2.38-.1 4.38-1.3 5.58-3.4l12.3-21.23z" stroke="#000" stroke-opacity="0" fill-opacity=".07"/><path d="M743.04 985.97h-6.1l-13.26-16.4h-3.82v-5.37h6.22l13.27 16.4h3.7v-4.25l8.4 6.92-8.4 6.94v-4.23z" stroke="#000" stroke-opacity="0" fill="#fff"/><path d="M736.38 973.3l2.95-3.66h3.7v4.24l8.4-6.93-8.4-6.93v4.24h-6.1l-3.92 4.87 3.38 4.16zM726.7 976.94l-3.02 3.73h-3.82v5.36h6.22l3.98-4.92-3.35-4.16z" stroke="#000" stroke-opacity="0" fill="#fff"/><use xlink:href="#p" transform="matrix(1,0,0,1,698.6774705198937,1012.2612711397053) translate(3.1455078125 16.69921875)"/><use xlink:href="#q" transform="matrix(1,0,0,1,698.6774705198937,1012.2612711397053) translate(36.11328125 16.69921875)"/><path d="M1172.5 727.6L1157.63 702c-1.15-2.06-3.18-3.22-5.56-3.28h-29.64c-2.4.06-4.4 1.22-5.57 3.28l-14.9 25.5c-1.14 2.06-1.14 4.38 0 6.43l14.9 25.64c1.16 2.1 3.1 3.34 5.57 3.4h29.64c2.45-.06 4.4-1.3 5.56-3.4l14.9-25.52c1.15-2.12 1.15-4.43 0-6.5z" stroke="#000" stroke-opacity="0" fill="#4285f4"/><path d="M1150.74 717.6l-10.18.77-3.66 3.62-4.9-4.82-7.37 1.05-1.43 6.83 5.66 5.6-5.8 5.72.7 7.83 19.04 18.8h9.27c2.42-.1 4.42-1.28 5.56-3.4l13-22.3z" stroke="#000" stroke-opacity="0" fill-opacity=".07"/><path d="M1147.88 730.86l2.82-2.8c2.9-2.87 2.9-7.56 0-10.47-2.92-2.93-7.7-2.96-10.67-.04l-2.8 2.76-2.8-2.76c-2.93-2.9-7.67-2.9-10.6 0-2.97 2.88-2.97 7.6-.05 10.5l2.83 2.8-2.82 2.8c-.03 0-.03.03-.06.03-2.92 2.93-2.9 7.65.06 10.53 2.95 2.92 7.72 2.9 10.64-.03l2.82-2.8 2.8 2.8c.02 0 .06.03.06.07 2.98 2.88 7.74 2.85 10.66-.07 2.92-2.94 2.9-7.66-.06-10.54zm-10.64 4.94c-2.76 0-5-2.2-5-4.94 0-2.72 2.24-4.93 5-4.93s5 2.2 5 4.93c0 2.73-2.24 4.94-5 4.94zm4.86-16.2c1.82-1.76 4.74-1.76 6.53.04 1.76 1.76 1.76 4.62 0 6.4l-2.82 2.78-6.5-6.45zm-16.25 6.43c-1.8-1.77-1.8-4.66 0-6.43 1.8-1.8 4.7-1.8 6.5 0l2.82 2.77-6.5 6.45zm6.5 16.13c-1.8 1.76-4.7 1.76-6.5 0-1.8-1.8-1.8-4.7 0-6.46l2.83-2.8 6.5 6.46zm16.28 0c-1.8 1.76-4.7 1.76-6.53 0l-2.8-2.8 6.5-6.45 2.83 2.8c1.8 1.77 1.8 4.66 0 6.46z" stroke="#000" stroke-opacity="0" fill="#fff"/><use xlink:href="#e" transform="matrix(1,0,0,1,1101.0949081647184,768.0000000000002) translate(14.7998046875 16.69921875)"/><use xlink:href="#f" transform="matrix(1,0,0,1,1101.0949081647184,768.0000000000002) translate(8.47607421875 37.79296875)"/><use xlink:href="#g" transform="matrix(1,0,0,1,1101.0949081647184,768.0000000000002) translate(14.63720703125 58.88671875)"/><path d="M1167.23 870.34l-15.04 16.45-2.47-2.8 16.92-18.4-16.92-18.47 2.46-2.8 15.03 16.47 4.33 4.8-4.33 4.74zM1104.55 870.34l14.75 16.45 2.53-2.8-17-18.4 17-18.47-2.53-2.8-14.75 16.47-4.55 4.8 4.55 4.74z" stroke="#000" stroke-opacity="0" fill="#0078d7"/><path d="M1127.1 865.6c0-2.6-1.94-4.8-4.33-4.8-2.53 0-4.34 2.2-4.34 4.8 0 2.53 2.03 4.74 4.34 4.74 2.53 0 4.34-2.2 4.34-4.75zM1135.78 870.34c2.4 0 4.34-2.2 4.34-4.75 0-2.6-1.95-4.8-4.34-4.8-2.3 0-4.34 2.2-4.34 4.8 0 2.53 2.03 4.74 4.34 4.74zM1148.8 870.34c2.38 0 4.33-2.2 4.33-4.75 0-2.6-2.02-4.8-4.34-4.8-2.54 0-4.34 2.2-4.34 4.8 0 2.53 1.8 4.74 4.33 4.74z" stroke="#000" stroke-opacity="0" fill="#0078d7"/><use xlink:href="#h" transform="matrix(1,0,0,1,1070,895) translate(4.01416015625 16.69921875)"/><use xlink:href="#i" transform="matrix(1,0,0,1,1070,895) translate(47.69580078125 16.69921875)"/><path d="M1171.42 971.85l-14.9-25.57c-1.15-2.06-3.17-3.22-5.56-3.28h-29.64c-2.38.06-4.4 1.22-5.56 3.28l-14.9 25.5c-1.15 2.07-1.15 4.38 0 6.37l14.9 25.7c1.15 2.13 3.1 3.35 5.56 3.4h29.64c2.4-.05 4.4-1.27 5.57-3.4l14.9-25.5c1.15-2.13 1.15-4.44 0-6.5z" stroke="#000" stroke-opacity="0" fill="#4285f4"/><path d="M1152.74 966.96l-13.63.2-1.38 6.13 7.68 7.6.1 1.2-18.07-17.9-6.2 5.34 6.82 7.36-6.87 9.13 21.12 21.23h8.68c2.38-.1 4.4-1.3 5.58-3.4l12.3-21.23z" stroke="#000" stroke-opacity="0" fill-opacity=".07"/><path d="M1144.36 985.97h-6.1l-13.26-16.4h-3.82v-5.37h6.22l13.27 16.4h3.7v-4.25l8.4 6.92-8.4 6.94v-4.23z" stroke="#000" stroke-opacity="0" fill="#fff"/><path d="M1137.7 973.3l2.96-3.66h3.7v4.24l8.4-6.93-8.4-6.93v4.24h-6.1l-3.93 4.87 3.38 4.16zM1128.03 976.94l-3.02 3.73h-3.82v5.36h6.23l4-4.92-3.37-4.16z" stroke="#000" stroke-opacity="0" fill="#fff"/><use xlink:href="#r" transform="matrix(1,0,0,1,1100,1012.2612711397053) translate(5.37353515625 16.69921875)"/><path d="M1259.13 972.86c.13.3.44.4.75.4.3.12.63.12.94.12.3 0 .56 0 .75-.1.3-.13.44-.3.75-.54.12-.3.3-.53.44-.82.12-.3.12-.65.12-1.18 0-.4 0-.7-.12-1.1-.2-.36-.2-.65-.44-.95-.2-.3-.44-.42-.63-.65-.32-.18-.57-.3-.88-.3-.44 0-.75.12-1.06.3-.3.1-.5.35-.75.52-.18.3-.3.53-.5.83-.12.23-.12.64-.12 1.05 0 .53 0 .94.13 1.17.32.7.5 1 .63 1.24z" stroke="#000" stroke-opacity="0" fill="#0078d7"/><path d="M1267.88 983.36c.43 0 1.06 0 1.5.1 2.43-4.27 7.24-7.08 12.86-7.38v-25.16c0-4-9.87-7.92-21.73-7.92-12.05 0-21.73 3.64-21.73 7.68v36.3c0 3.65 8 7.1 18.43 7.64-.13-.53-.13-1.06-.13-1.6-.06-5.2 4.75-9.66 10.8-9.66zm7.87-7.4h-7.56V965.6h3.5v7.98h4.05v2.4zm-15.24-30.14c8.56 0 15.5 1.87 15.5 4.16 0 2.3-6.94 4.16-15.5 4.16-8.6 0-15.54-1.87-15.54-4.16 0-2.3 6.93-4.16 15.55-4.16zm-6.5 27.74c0 .24-.18.53-.3.82-.2.24-.3.53-.62.65-.32.3-.57.4-.88.52-.3.12-.75.3-1.37.42-.44.1-1.06.1-1.8.1h-1.08c-.3 0-.62 0-.93-.1-.32 0-.56-.18-.75-.18-.3 0-.44-.13-.56-.25v-2.8c.13.1.44.22.76.34.3.1.43.28.74.4.32.12.57.12.88.3.3.1.62.1.94.1.3 0 .43 0 .56-.1.2 0 .3-.18.3-.18.2 0 .2-.12.2-.24v-.3c0-.1 0-.28-.2-.4-.1-.12-.1-.23-.3-.23-.13-.18-.3-.18-.56-.3-.32-.17-.44-.17-.75-.3-.44-.1-.94-.4-1.38-.64-.32-.28-.57-.4-.88-.7-.3-.28-.44-.52-.44-.8-.2-.25-.2-.66-.2-.95 0-.53.2-.94.33-1.35.32-.35.63-.82.94-1.05.44-.3.88-.53 1.5-.65.56-.18 1.2-.3 1.94-.3h1.06c.3 0 .62 0 .94.12.3 0 .43.18.75.18.12 0 .43.12.56.12v2.7c-.14-.18-.26-.18-.57-.3-.2-.1-.44-.1-.75-.3-.32-.1-.44-.1-.75-.1h-.94c-.45 0-.76 0-.88.1-.32.2-.32.3-.32.54 0 .17 0 .3.13.3 0 .17.2.17.3.28.2.12.32.12.45.3.18.1.43.1.75.23.43.18.93.4 1.37.53.44.3.75.4 1.06.7.3.3.44.53.75.82.2.24.32.65.32 1.18-.3.23-.3.47-.3.76zm1.2-.53c-.3-.7-.44-1.35-.44-2.17 0-.82.2-1.64.44-2.3.3-.7.75-1.22 1.2-1.75.42-.5 1.23-.8 1.8-1.04.8-.3 1.56-.4 2.43-.4.94 0 1.7.1 2.25.4.75.23 1.37.64 1.8 1.05.5.43.95 1.07 1.26 1.6.3.7.44 1.35.44 2.34 0 .53 0 1.18-.3 1.6-.2.52-.45.93-.76 1.34-.32.4-.63.82-1.07 1.05-.5.3-.75.53-1.37.82l3.93 3h-4.54l-2.56-2.47c-.75 0-1.5-.3-2.07-.4-.62-.24-1.24-.65-1.68-1.06 0-.4-.44-.94-.75-1.6z" stroke="#000" stroke-opacity="0" fill="#0078d7"/><path d="M1301.23 996.67c0-2.52-2.3-4.7-5.12-4.98.13-.84.32-1.48.32-2.3 0-6.57-6.06-11.97-13.43-11.97-5.63 0-10.63 3-12.56 7.5-.75-.1-1.5-.22-2.38-.22-5.3 0-9.55 3.76-9.55 8.45 0 4.58 4.13 8.33 9.38 8.5h29.41v-.17c2.24-.47 3.93-2.52 3.93-4.8zm-5.12 3.64H1268c-4.37 0-8-3.22-8-7.1 0-3.92 3.63-7.15 8-7.15.94 0 1.8.12 2.56.42l.75.23.32-.65c1.7-4.34 6.2-7.27 11.37-7.27 6.6 0 11.92 4.8 11.92 10.62 0 .94-.2 1.87-.5 2.8l-.3 1.13 1.1-.18h.45c2.25 0 4.06 1.64 4.06 3.64 0 1.75-1.56 3.4-3.62 3.5z" stroke="#000" stroke-opacity="0" fill="#0078d7"/><use xlink:href="#m" transform="matrix(1,0,0,1,1208.7733827768332,1010.6572363004649) translate(13.90283203125 16.69921875)"/><use xlink:href="#n" transform="matrix(1,0,0,1,1208.7733827768332,1010.6572363004649) translate(68.15771484375 16.69921875)"/><path d="M537.4 940.64c0-1.1.9-2 2-2h790.26c1.1 0 2 .9 2 2v68.98c0 1.1-.9 2-2 2H539.4c-1.1 0-2-.9-2-2z" stroke="#000" stroke-width="2" fill="#7ab648" fill-opacity=".3"/><use xlink:href="#s" transform="matrix(1,0,0,1,542.4078239250481,943.6424113944136) translate(288.08154296875 28.51171875)"/><use xlink:href="#t" transform="matrix(1,0,0,1,542.4078239250481,943.6424113944136) translate(335.93798828125 28.51171875)"/><use xlink:href="#u" transform="matrix(1,0,0,1,542.4078239250481,943.6424113944136) translate(436.63427734375 28.51171875)"/><use xlink:href="#v" transform="matrix(1,0,0,1,542.4078239250481,943.6424113944136) translate(368.90576171875 49.60546875)"/><path d="M789.54 727.5c0 .54-.45 1-1 1-.56 0-1-.46-1-1 0-.57.44-1 1-1 .55 0 1 .43 1 1zm3.98 0c0 .54-.45 1-1 1s-1-.46-1-1c0-.57.45-1 1-1s1 .43 1 1zm4 0c0 .54-.46 1-1 1-.56 0-1-.46-1-1 0-.57.44-1 1-1 .54 0 1 .43 1 1zm3.97 0c0 .54-.45 1-1 1-.56 0-1-.46-1-1 0-.57.44-1 1-1 .55 0 1 .43 1 1zm3.98 0c0 .54-.45 1-1 1s-1-.46-1-1c0-.57.45-1 1-1s1 .43 1 1zm4 0c0 .54-.46 1-1 1-.57 0-1-.46-1-1 0-.57.43-1 1-1 .54 0 1 .43 1 1zm3.97 0c0 .54-.45 1-1 1s-1-.46-1-1c0-.57.45-1 1-1s1 .43 1 1zm4 0c0 .54-.46 1-1 1-.56 0-1-.46-1-1 0-.57.44-1 1-1 .54 0 1 .43 1 1zm3.97 0c0 .54-.44 1-1 1-.55 0-1-.46-1-1 0-.57.45-1 1-1 .56 0 1 .43 1 1zm4 0c0 .54-.46 1-1 1-.56 0-1-.46-1-1 0-.57.44-1 1-1 .54 0 1 .43 1 1zm3.97 0c0 .54-.45 1-1 1-.56 0-1-.46-1-1 0-.57.44-1 1-1 .55 0 1 .43 1 1zm3.98 0c0 .54-.45 1-1 1s-1-.46-1-1c0-.57.45-1 1-1s1 .43 1 1zm4 0c0 .54-.46 1-1 1-.57 0-1-.46-1-1 0-.57.43-1 1-1 .54 0 1 .43 1 1zm3.97 0c0 .54-.45 1-1 1s-1-.46-1-1c0-.57.45-1 1-1s1 .43 1 1zm4 0c0 .54-.46 1-1 1-.56 0-1-.46-1-1 0-.57.44-1 1-1 .54 0 1 .43 1 1zm3.97 0c0 .54-.44 1-1 1-.55 0-1-.46-1-1 0-.57.45-1 1-1 .56 0 1 .43 1 1zm4 0c0 .54-.46 1-1 1-.56 0-1-.46-1-1 0-.57.44-1 1-1 .54 0 1 .43 1 1zm3.98 0c0 .54-.45 1-1 1-.56 0-1-.46-1-1 0-.57.44-1 1-1 .55 0 1 .43 1 1zm3.98 0c0 .54-.45 1-1 1s-1-.46-1-1c0-.57.45-1 1-1s1 .43 1 1zm4 0c0 .54-.46 1-1 1-.57 0-1-.46-1-1 0-.57.43-1 1-1 .54 0 1 .43 1 1zm3.97 0c0 .54-.45 1-1 1s-1-.46-1-1c0-.57.45-1 1-1s1 .43 1 1zm4 0c0 .54-.46 1-1 1-.56 0-1-.46-1-1 0-.57.44-1 1-1 .54 0 1 .43 1 1zm3.97 0c0 .54-.44 1-1 1-.55 0-1-.46-1-1 0-.57.45-1 1-1 .56 0 1 .43 1 1zm4 0c0 .54-.46 1-1 1-.56 0-1-.46-1-1 0-.57.44-1 1-1 .54 0 1 .43 1 1zm3.98 0c0 .54-.45 1-1 1-.56 0-1-.46-1-1 0-.57.44-1 1-1 .55 0 1 .43 1 1zm3.98 0c0 .54-.45 1-1 1s-1-.46-1-1c0-.57.45-1 1-1s1 .43 1 1zm4 0c0 .54-.46 1-1 1-.57 0-1-.46-1-1 0-.57.43-1 1-1 .54 0 1 .43 1 1zm3.97 0c0 .54-.44 1-1 1-.55 0-1-.46-1-1 0-.57.45-1 1-1 .56 0 1 .43 1 1zm4 0c0 .54-.46 1-1 1-.56 0-1-.46-1-1 0-.57.44-1 1-1 .54 0 1 .43 1 1zm3.97 0c0 .54-.44 1-1 1-.55 0-1-.46-1-1 0-.57.45-1 1-1 .56 0 1 .43 1 1zm4 0c0 .54-.46 1-1 1-.56 0-1-.46-1-1 0-.57.44-1 1-1 .54 0 1 .43 1 1zm3.98 0c0 .54-.45 1-1 1-.56 0-1-.46-1-1 0-.57.44-1 1-1 .55 0 1 .43 1 1zm3.98 0c0 .54-.45 1-1 1s-1-.46-1-1c0-.57.45-1 1-1s1 .43 1 1zm4 0c0 .54-.46 1-1 1-.56 0-1-.46-1-1 0-.57.44-1 1-1 .54 0 1 .43 1 1zm3.97 0c0 .54-.44 1-1 1-.55 0-1-.46-1-1 0-.57.45-1 1-1 .56 0 1 .43 1 1zm4 0c0 .54-.46 1-1 1-.56 0-1-.46-1-1 0-.57.44-1 1-1 .54 0 1 .43 1 1zm3.97 0c0 .54-.44 1-1 1-.55 0-1-.46-1-1 0-.57.45-1 1-1 .56 0 1 .43 1 1zm4 0c0 .54-.46 1-1 1-.56 0-1-.46-1-1 0-.57.44-1 1-1 .54 0 1 .43 1 1zm3.98 0c0 .54-.45 1-1 1-.56 0-1-.46-1-1 0-.57.44-1 1-1 .55 0 1 .43 1 1zm3.98 0c0 .54-.45 1-1 1s-1-.46-1-1c0-.57.45-1 1-1s1 .43 1 1zm4 0c0 .54-.46 1-1 1-.56 0-1-.46-1-1 0-.57.44-1 1-1 .54 0 1 .43 1 1zm3.97 0c0 .54-.44 1-1 1-.55 0-1-.46-1-1 0-.57.45-1 1-1 .56 0 1 .43 1 1zm4 0c0 .54-.46 1-1 1-.56 0-1-.46-1-1 0-.57.44-1 1-1 .54 0 1 .43 1 1zm3.98 0c0 .54-.45 1-1 1-.56 0-1-.46-1-1 0-.57.44-1 1-1 .55 0 1 .43 1 1zm3.98 0c0 .54-.44 1-1 1-.54 0-1-.46-1-1 0-.57.46-1 1-1 .56 0 1 .43 1 1zm4 0c0 .54-.45 1-1 1-.56 0-1-.46-1-1 0-.57.44-1 1-1 .55 0 1 .43 1 1zm3.98 0c0 .54-.45 1-1 1s-1-.46-1-1c0-.57.45-1 1-1s1 .43 1 1zm4 0c0 .54-.46 1-1 1-.56 0-1-.46-1-1 0-.57.44-1 1-1 .54 0 1 .43 1 1zm3.97 0c0 .54-.44 1-1 1-.55 0-1-.46-1-1 0-.57.45-1 1-1 .56 0 1 .43 1 1zm4 0c0 .54-.46 1-1 1-.56 0-1-.46-1-1 0-.57.44-1 1-1 .54 0 1 .43 1 1zm3.98 0c0 .54-.45 1-1 1-.56 0-1-.46-1-1 0-.57.44-1 1-1 .55 0 1 .43 1 1zm3.98 0c0 .54-.44 1-1 1-.54 0-1-.46-1-1 0-.57.46-1 1-1 .56 0 1 .43 1 1zm4 0c0 .54-.45 1-1 1-.56 0-1-.46-1-1 0-.57.44-1 1-1 .55 0 1 .43 1 1zm3.98 0c0 .54-.44 1-1 1-.55 0-1-.46-1-1 0-.57.45-1 1-1 .56 0 1 .43 1 1zm4 0c0 .54-.46 1-1 1-.56 0-1-.46-1-1 0-.57.44-1 1-1 .54 0 1 .43 1 1zm3.97 0c0 .54-.44 1-1 1-.55 0-1-.46-1-1 0-.57.45-1 1-1 .56 0 1 .43 1 1zm4 0c0 .54-.46 1-1 1-.56 0-1-.46-1-1 0-.57.44-1 1-1 .54 0 1 .43 1 1zm3.98 0c0 .54-.45 1-1 1-.56 0-1-.46-1-1 0-.57.44-1 1-1 .55 0 1 .43 1 1zm3.98 0c0 .54-.44 1-1 1-.54 0-1-.46-1-1 0-.57.46-1 1-1 .56 0 1 .43 1 1zm4 0c0 .54-.45 1-1 1s-1-.46-1-1c0-.57.45-1 1-1s1 .43 1 1zm3.98 0c0 .54-.44 1-1 1-.55 0-1-.46-1-1 0-.57.45-1 1-1 .56 0 1 .43 1 1zm4 0c0 .54-.46 1-1 1-.56 0-1-.46-1-1 0-.57.44-1 1-1 .54 0 1 .43 1 1zm3.98 0c0 .54-.45 1-1 1-.56 0-1-.46-1-1 0-.57.44-1 1-1 .55 0 1 .43 1 1zm3.98 0c0 .54-.45 1-1 1s-1-.46-1-1c0-.57.45-1 1-1s1 .43 1 1zm4 0c0 .54-.46 1-1 1-.57 0-1-.46-1-1 0-.57.43-1 1-1 .54 0 1 .43 1 1zm3.97 0c0 .54-.44 1-1 1-.54 0-1-.46-1-1 0-.57.46-1 1-1 .56 0 1 .43 1 1zm4 0c0 .54-.45 1-1 1s-1-.46-1-1c0-.57.45-1 1-1s1 .43 1 1zm3.98 0c0 .54-.44 1-1 1-.55 0-1-.46-1-1 0-.57.45-1 1-1 .56 0 1 .43 1 1zm4 0c0 .54-.46 1-1 1-.56 0-1-.46-1-1 0-.57.44-1 1-1 .54 0 1 .43 1 1zm3.98 0c0 .54-.45 1-1 1-.56 0-1-.46-1-1 0-.57.44-1 1-1 .55 0 1 .43 1 1zm3.98 0c0 .54-.45 1-1 1s-1-.46-1-1c0-.57.45-1 1-1s1 .43 1 1zm4 0c0 .54-.46 1-1 1-.57 0-1-.46-1-1 0-.57.43-1 1-1 .54 0 1 .43 1 1zm3.97 0c0 .54-.43 1-1 1-.54 0-1-.46-1-1 0-.57.46-1 1-1 .57 0 1 .43 1 1zm4 0c0 .54-.45 1-1 1s-1-.46-1-1c0-.57.45-1 1-1s1 .43 1 1z" fill="#333"/><path d="M773.27 727.5l14.27-4.65v9.27zM1098.75 727.5l-14.27 4.62v-9.27z" stroke="#333" stroke-width="2" fill="#333"/><path d="M789.54 727.5c0 .54-.45 1-1 1-.56 0-1-.46-1-1 0-.57.44-1 1-1 .55 0 1 .43 1 1zm3.98 0c0 .54-.45 1-1 1s-1-.46-1-1c0-.57.45-1 1-1s1 .43 1 1zm4 0c0 .54-.46 1-1 1-.56 0-1-.46-1-1 0-.57.44-1 1-1 .54 0 1 .43 1 1zm3.97 0c0 .54-.45 1-1 1-.56 0-1-.46-1-1 0-.57.44-1 1-1 .55 0 1 .43 1 1zm3.98 0c0 .54-.45 1-1 1s-1-.46-1-1c0-.57.45-1 1-1s1 .43 1 1zm4 0c0 .54-.46 1-1 1-.57 0-1-.46-1-1 0-.57.43-1 1-1 .54 0 1 .43 1 1zm3.97 0c0 .54-.45 1-1 1s-1-.46-1-1c0-.57.45-1 1-1s1 .43 1 1zm4 0c0 .54-.46 1-1 1-.56 0-1-.46-1-1 0-.57.44-1 1-1 .54 0 1 .43 1 1zm3.97 0c0 .54-.44 1-1 1-.55 0-1-.46-1-1 0-.57.45-1 1-1 .56 0 1 .43 1 1zm4 0c0 .54-.46 1-1 1-.56 0-1-.46-1-1 0-.57.44-1 1-1 .54 0 1 .43 1 1zm3.97 0c0 .54-.45 1-1 1-.56 0-1-.46-1-1 0-.57.44-1 1-1 .55 0 1 .43 1 1zm3.98 0c0 .54-.45 1-1 1s-1-.46-1-1c0-.57.45-1 1-1s1 .43 1 1zm4 0c0 .54-.46 1-1 1-.57 0-1-.46-1-1 0-.57.43-1 1-1 .54 0 1 .43 1 1zm3.97 0c0 .54-.45 1-1 1s-1-.46-1-1c0-.57.45-1 1-1s1 .43 1 1zm4 0c0 .54-.46 1-1 1-.56 0-1-.46-1-1 0-.57.44-1 1-1 .54 0 1 .43 1 1zm3.97 0c0 .54-.44 1-1 1-.55 0-1-.46-1-1 0-.57.45-1 1-1 .56 0 1 .43 1 1zm4 0c0 .54-.46 1-1 1-.56 0-1-.46-1-1 0-.57.44-1 1-1 .54 0 1 .43 1 1zm3.98 0c0 .54-.45 1-1 1-.56 0-1-.46-1-1 0-.57.44-1 1-1 .55 0 1 .43 1 1zm3.98 0c0 .54-.45 1-1 1s-1-.46-1-1c0-.57.45-1 1-1s1 .43 1 1zm4 0c0 .54-.46 1-1 1-.57 0-1-.46-1-1 0-.57.43-1 1-1 .54 0 1 .43 1 1zm3.97 0c0 .54-.45 1-1 1s-1-.46-1-1c0-.57.45-1 1-1s1 .43 1 1zm4 0c0 .54-.46 1-1 1-.56 0-1-.46-1-1 0-.57.44-1 1-1 .54 0 1 .43 1 1zm3.97 0c0 .54-.44 1-1 1-.55 0-1-.46-1-1 0-.57.45-1 1-1 .56 0 1 .43 1 1zm4 0c0 .54-.46 1-1 1-.56 0-1-.46-1-1 0-.57.44-1 1-1 .54 0 1 .43 1 1zm3.98 0c0 .54-.45 1-1 1-.56 0-1-.46-1-1 0-.57.44-1 1-1 .55 0 1 .43 1 1zm3.98 0c0 .54-.45 1-1 1s-1-.46-1-1c0-.57.45-1 1-1s1 .43 1 1zm4 0c0 .54-.46 1-1 1-.57 0-1-.46-1-1 0-.57.43-1 1-1 .54 0 1 .43 1 1zm3.97 0c0 .54-.44 1-1 1-.55 0-1-.46-1-1 0-.57.45-1 1-1 .56 0 1 .43 1 1zm4 0c0 .54-.46 1-1 1-.56 0-1-.46-1-1 0-.57.44-1 1-1 .54 0 1 .43 1 1zm3.97 0c0 .54-.44 1-1 1-.55 0-1-.46-1-1 0-.57.45-1 1-1 .56 0 1 .43 1 1zm4 0c0 .54-.46 1-1 1-.56 0-1-.46-1-1 0-.57.44-1 1-1 .54 0 1 .43 1 1zm3.98 0c0 .54-.45 1-1 1-.56 0-1-.46-1-1 0-.57.44-1 1-1 .55 0 1 .43 1 1zm3.98 0c0 .54-.45 1-1 1s-1-.46-1-1c0-.57.45-1 1-1s1 .43 1 1zm4 0c0 .54-.46 1-1 1-.56 0-1-.46-1-1 0-.57.44-1 1-1 .54 0 1 .43 1 1zm3.97 0c0 .54-.44 1-1 1-.55 0-1-.46-1-1 0-.57.45-1 1-1 .56 0 1 .43 1 1zm4 0c0 .54-.46 1-1 1-.56 0-1-.46-1-1 0-.57.44-1 1-1 .54 0 1 .43 1 1zm3.97 0c0 .54-.44 1-1 1-.55 0-1-.46-1-1 0-.57.45-1 1-1 .56 0 1 .43 1 1zm4 0c0 .54-.46 1-1 1-.56 0-1-.46-1-1 0-.57.44-1 1-1 .54 0 1 .43 1 1zm3.98 0c0 .54-.45 1-1 1-.56 0-1-.46-1-1 0-.57.44-1 1-1 .55 0 1 .43 1 1zm3.98 0c0 .54-.45 1-1 1s-1-.46-1-1c0-.57.45-1 1-1s1 .43 1 1zm4 0c0 .54-.46 1-1 1-.56 0-1-.46-1-1 0-.57.44-1 1-1 .54 0 1 .43 1 1zm3.97 0c0 .54-.44 1-1 1-.55 0-1-.46-1-1 0-.57.45-1 1-1 .56 0 1 .43 1 1zm4 0c0 .54-.46 1-1 1-.56 0-1-.46-1-1 0-.57.44-1 1-1 .54 0 1 .43 1 1zm3.98 0c0 .54-.45 1-1 1-.56 0-1-.46-1-1 0-.57.44-1 1-1 .55 0 1 .43 1 1zm3.98 0c0 .54-.44 1-1 1-.54 0-1-.46-1-1 0-.57.46-1 1-1 .56 0 1 .43 1 1zm4 0c0 .54-.45 1-1 1-.56 0-1-.46-1-1 0-.57.44-1 1-1 .55 0 1 .43 1 1zm3.98 0c0 .54-.45 1-1 1s-1-.46-1-1c0-.57.45-1 1-1s1 .43 1 1zm4 0c0 .54-.46 1-1 1-.56 0-1-.46-1-1 0-.57.44-1 1-1 .54 0 1 .43 1 1zm3.97 0c0 .54-.44 1-1 1-.55 0-1-.46-1-1 0-.57.45-1 1-1 .56 0 1 .43 1 1zm4 0c0 .54-.46 1-1 1-.56 0-1-.46-1-1 0-.57.44-1 1-1 .54 0 1 .43 1 1zm3.98 0c0 .54-.45 1-1 1-.56 0-1-.46-1-1 0-.57.44-1 1-1 .55 0 1 .43 1 1zm3.98 0c0 .54-.44 1-1 1-.54 0-1-.46-1-1 0-.57.46-1 1-1 .56 0 1 .43 1 1zm4 0c0 .54-.45 1-1 1-.56 0-1-.46-1-1 0-.57.44-1 1-1 .55 0 1 .43 1 1zm3.98 0c0 .54-.44 1-1 1-.55 0-1-.46-1-1 0-.57.45-1 1-1 .56 0 1 .43 1 1zm4 0c0 .54-.46 1-1 1-.56 0-1-.46-1-1 0-.57.44-1 1-1 .54 0 1 .43 1 1zm3.97 0c0 .54-.44 1-1 1-.55 0-1-.46-1-1 0-.57.45-1 1-1 .56 0 1 .43 1 1zm4 0c0 .54-.46 1-1 1-.56 0-1-.46-1-1 0-.57.44-1 1-1 .54 0 1 .43 1 1zm3.98 0c0 .54-.45 1-1 1-.56 0-1-.46-1-1 0-.57.44-1 1-1 .55 0 1 .43 1 1zm3.98 0c0 .54-.44 1-1 1-.54 0-1-.46-1-1 0-.57.46-1 1-1 .56 0 1 .43 1 1zm4 0c0 .54-.45 1-1 1s-1-.46-1-1c0-.57.45-1 1-1s1 .43 1 1zm3.98 0c0 .54-.44 1-1 1-.55 0-1-.46-1-1 0-.57.45-1 1-1 .56 0 1 .43 1 1zm4 0c0 .54-.46 1-1 1-.56 0-1-.46-1-1 0-.57.44-1 1-1 .54 0 1 .43 1 1zm3.98 0c0 .54-.45 1-1 1-.56 0-1-.46-1-1 0-.57.44-1 1-1 .55 0 1 .43 1 1zm3.98 0c0 .54-.45 1-1 1s-1-.46-1-1c0-.57.45-1 1-1s1 .43 1 1zm4 0c0 .54-.46 1-1 1-.57 0-1-.46-1-1 0-.57.43-1 1-1 .54 0 1 .43 1 1zm3.97 0c0 .54-.44 1-1 1-.54 0-1-.46-1-1 0-.57.46-1 1-1 .56 0 1 .43 1 1zm4 0c0 .54-.45 1-1 1s-1-.46-1-1c0-.57.45-1 1-1s1 .43 1 1zm3.98 0c0 .54-.44 1-1 1-.55 0-1-.46-1-1 0-.57.45-1 1-1 .56 0 1 .43 1 1zm4 0c0 .54-.46 1-1 1-.56 0-1-.46-1-1 0-.57.44-1 1-1 .54 0 1 .43 1 1zm3.98 0c0 .54-.45 1-1 1-.56 0-1-.46-1-1 0-.57.44-1 1-1 .55 0 1 .43 1 1zm3.98 0c0 .54-.45 1-1 1s-1-.46-1-1c0-.57.45-1 1-1s1 .43 1 1zm4 0c0 .54-.46 1-1 1-.57 0-1-.46-1-1 0-.57.43-1 1-1 .54 0 1 .43 1 1zm3.97 0c0 .54-.43 1-1 1-.54 0-1-.46-1-1 0-.57.46-1 1-1 .57 0 1 .43 1 1zm4 0c0 .54-.45 1-1 1s-1-.46-1-1c0-.57.45-1 1-1s1 .43 1 1z" fill="#333"/><path d="M773.27 727.5l14.27-4.65v9.27zM1098.75 727.5l-14.27 4.62v-9.27z" stroke="#333" stroke-width="2" fill="#333"/><path d="M789.97 866.8c0 .54-.45 1-1 1-.56 0-1-.46-1-1 0-.56.44-1 1-1 .55 0 1 .44 1 1zm3.98 0c0 .54-.45 1-1 1-.56 0-1-.46-1-1 0-.56.44-1 1-1 .55 0 1 .44 1 1zm3.98 0c0 .54-.45 1-1 1-.56 0-1-.46-1-1 0-.56.44-1 1-1 .55 0 1 .44 1 1zm3.97 0c0 .54-.44 1-1 1-.55 0-1-.46-1-1 0-.56.45-1 1-1 .56 0 1 .44 1 1zm3.98 0c0 .54-.44 1-1 1-.55 0-1-.46-1-1 0-.56.45-1 1-1 .56 0 1 .44 1 1zm3.98 0c0 .54-.44 1-1 1-.55 0-1-.46-1-1 0-.56.45-1 1-1 .56 0 1 .44 1 1zm3.98 0c0 .54-.44 1-1 1-.55 0-1-.46-1-1 0-.56.45-1 1-1 .56 0 1 .44 1 1zm3.98 0c0 .54-.44 1-1 1-.55 0-1-.46-1-1 0-.56.45-1 1-1 .56 0 1 .44 1 1zm3.98 0c0 .54-.44 1-1 1-.55 0-1-.46-1-1 0-.56.45-1 1-1 .56 0 1 .44 1 1zm3.98 0c0 .54-.44 1-1 1-.55 0-1-.46-1-1 0-.56.45-1 1-1 .56 0 1 .44 1 1zm3.98 0c0 .54-.44 1-1 1-.55 0-1-.46-1-1 0-.56.45-1 1-1 .56 0 1 .44 1 1zm3.98 0c0 .54-.44 1-1 1-.55 0-1-.46-1-1 0-.56.45-1 1-1 .56 0 1 .44 1 1zm3.98 0c0 .54-.44 1-1 1-.55 0-1-.46-1-1 0-.56.45-1 1-1 .56 0 1 .44 1 1zm3.98 0c0 .54-.44 1-1 1-.55 0-1-.46-1-1 0-.56.45-1 1-1 .56 0 1 .44 1 1zm3.98 0c0 .54-.44 1-1 1-.55 0-1-.46-1-1 0-.56.45-1 1-1 .56 0 1 .44 1 1zm3.98 0c0 .54-.44 1-1 1-.55 0-1-.46-1-1 0-.56.45-1 1-1 .56 0 1 .44 1 1zm3.98 0c0 .54-.45 1-1 1s-1-.46-1-1c0-.56.45-1 1-1s1 .44 1 1zm3.98 0c0 .54-.45 1-1 1s-1-.46-1-1c0-.56.45-1 1-1s1 .44 1 1zm3.98 0c0 .54-.45 1-1 1s-1-.46-1-1c0-.56.45-1 1-1s1 .44 1 1zm3.98 0c0 .54-.45 1-1 1s-1-.46-1-1c0-.56.45-1 1-1s1 .44 1 1zm3.98 0c0 .54-.45 1-1 1s-1-.46-1-1c0-.56.45-1 1-1s1 .44 1 1zm3.98 0c0 .54-.45 1-1 1s-1-.46-1-1c0-.56.45-1 1-1s1 .44 1 1zm3.98 0c0 .54-.45 1-1 1s-1-.46-1-1c0-.56.45-1 1-1s1 .44 1 1zm3.98 0c0 .54-.45 1-1 1s-1-.46-1-1c0-.56.45-1 1-1s1 .44 1 1zm3.98 0c0 .54-.45 1-1 1s-1-.46-1-1c0-.56.45-1 1-1s1 .44 1 1zm3.98 0c0 .54-.45 1-1 1s-1-.46-1-1c0-.56.45-1 1-1s1 .44 1 1zm3.98 0c0 .54-.45 1-1 1s-1-.46-1-1c0-.56.45-1 1-1s1 .44 1 1zm3.98 0c0 .54-.45 1-1 1s-1-.46-1-1c0-.56.45-1 1-1s1 .44 1 1zm3.98 0c0 .54-.45 1-1 1s-1-.46-1-1c0-.56.45-1 1-1s1 .44 1 1zm3.98 0c0 .54-.45 1-1 1s-1-.46-1-1c0-.56.45-1 1-1s1 .44 1 1zm3.98 0c0 .54-.45 1-1 1s-1-.46-1-1c0-.56.45-1 1-1s1 .44 1 1zm3.98 0c0 .54-.45 1-1 1s-1-.46-1-1c0-.56.45-1 1-1s1 .44 1 1zm3.98 0c0 .54-.45 1-1 1s-1-.46-1-1c0-.56.45-1 1-1s1 .44 1 1zm3.98 0c0 .54-.45 1-1 1s-1-.46-1-1c0-.56.45-1 1-1s1 .44 1 1zm3.98 0c0 .54-.45 1-1 1s-1-.46-1-1c0-.56.45-1 1-1s1 .44 1 1zm3.98 0c0 .54-.45 1-1 1s-1-.46-1-1c0-.56.45-1 1-1s1 .44 1 1zm3.98 0c0 .54-.45 1-1 1s-1-.46-1-1c0-.56.45-1 1-1s1 .44 1 1zm3.98 0c0 .54-.45 1-1 1s-1-.46-1-1c0-.56.45-1 1-1s1 .44 1 1zm3.98 0c0 .54-.45 1-1 1s-1-.46-1-1c0-.56.45-1 1-1s1 .44 1 1zm3.98 0c0 .54-.45 1-1 1s-1-.46-1-1c0-.56.45-1 1-1s1 .44 1 1zm3.98 0c0 .54-.45 1-1 1s-1-.46-1-1c0-.56.45-1 1-1s1 .44 1 1zm3.98 0c0 .54-.45 1-1 1s-1-.46-1-1c0-.56.45-1 1-1s1 .44 1 1zm3.98 0c0 .54-.45 1-1 1s-1-.46-1-1c0-.56.45-1 1-1s1 .44 1 1zm3.98 0c0 .54-.45 1-1 1s-1-.46-1-1c0-.56.45-1 1-1s1 .44 1 1zm3.98 0c0 .54-.45 1-1 1s-1-.46-1-1c0-.56.45-1 1-1s1 .44 1 1zm3.98 0c0 .54-.45 1-1 1s-1-.46-1-1c0-.56.45-1 1-1s1 .44 1 1zm3.98 0c0 .54-.45 1-1 1s-1-.46-1-1c0-.56.45-1 1-1s1 .44 1 1zm3.98 0c0 .54-.45 1-1 1-.56 0-1-.46-1-1 0-.56.44-1 1-1 .55 0 1 .44 1 1zm3.98 0c0 .54-.45 1-1 1-.56 0-1-.46-1-1 0-.56.44-1 1-1 .55 0 1 .44 1 1zm3.98 0c0 .54-.45 1-1 1-.56 0-1-.46-1-1 0-.56.44-1 1-1 .55 0 1 .44 1 1zm3.98 0c0 .54-.45 1-1 1-.56 0-1-.46-1-1 0-.56.44-1 1-1 .55 0 1 .44 1 1zm3.98 0c0 .54-.45 1-1 1-.56 0-1-.46-1-1 0-.56.44-1 1-1 .55 0 1 .44 1 1zm3.98 0c0 .54-.45 1-1 1-.56 0-1-.46-1-1 0-.56.44-1 1-1 .55 0 1 .44 1 1zm3.98 0c0 .54-.45 1-1 1-.56 0-1-.46-1-1 0-.56.44-1 1-1 .55 0 1 .44 1 1zm3.98 0c0 .54-.45 1-1 1-.56 0-1-.46-1-1 0-.56.44-1 1-1 .55 0 1 .44 1 1zm3.98 0c0 .54-.45 1-1 1-.56 0-1-.46-1-1 0-.56.44-1 1-1 .55 0 1 .44 1 1zm3.98 0c0 .54-.45 1-1 1-.56 0-1-.46-1-1 0-.56.44-1 1-1 .55 0 1 .44 1 1zm3.98 0c0 .54-.45 1-1 1-.56 0-1-.46-1-1 0-.56.44-1 1-1 .55 0 1 .44 1 1zm3.98 0c0 .54-.45 1-1 1-.56 0-1-.46-1-1 0-.56.44-1 1-1 .55 0 1 .44 1 1zm3.97 0c0 .54-.44 1-1 1-.55 0-1-.46-1-1 0-.56.45-1 1-1 .56 0 1 .44 1 1zm3.98 0c0 .54-.44 1-1 1-.55 0-1-.46-1-1 0-.56.45-1 1-1 .56 0 1 .44 1 1zm3.98 0c0 .54-.44 1-1 1-.55 0-1-.46-1-1 0-.56.45-1 1-1 .56 0 1 .44 1 1zm3.98 0c0 .54-.43 1-1 1-.54 0-1-.46-1-1 0-.56.46-1 1-1 .57 0 1 .44 1 1zm4 0c0 .54-.45 1-1 1-.56 0-1-.46-1-1 0-.56.44-1 1-1 .55 0 1 .44 1 1zm3.97 0c0 .54-.44 1-1 1-.55 0-1-.46-1-1 0-.56.45-1 1-1 .56 0 1 .44 1 1zm3.98 0c0 .54-.44 1-1 1-.55 0-1-.46-1-1 0-.56.45-1 1-1 .56 0 1 .44 1 1zm3.98 0c0 .54-.44 1-1 1-.55 0-1-.46-1-1 0-.56.45-1 1-1 .56 0 1 .44 1 1zm3.98 0c0 .54-.43 1-1 1-.54 0-1-.46-1-1 0-.56.46-1 1-1 .57 0 1 .44 1 1zm4 0c0 .54-.45 1-1 1-.56 0-1-.46-1-1 0-.56.44-1 1-1 .55 0 1 .44 1 1zm3.97 0c0 .54-.44 1-1 1-.55 0-1-.46-1-1 0-.56.45-1 1-1 .56 0 1 .44 1 1zm3.98 0c0 .54-.44 1-1 1-.55 0-1-.46-1-1 0-.56.45-1 1-1 .56 0 1 .44 1 1zm3.98 0c0 .54-.44 1-1 1-.55 0-1-.46-1-1 0-.56.45-1 1-1 .56 0 1 .44 1 1zm3.98 0c0 .54-.44 1-1 1-.54 0-1-.46-1-1 0-.56.46-1 1-1 .56 0 1 .44 1 1zm4 0c0 .54-.46 1-1 1-.56 0-1-.46-1-1 0-.56.44-1 1-1 .54 0 1 .44 1 1zm3.97 0c0 .54-.45 1-1 1s-1-.46-1-1c0-.56.45-1 1-1s1 .44 1 1zm3.98 0c0 .54-.45 1-1 1s-1-.46-1-1c0-.56.45-1 1-1s1 .44 1 1z" fill="#333"/><path d="M773.7 866.8l14.27-4.64v9.27zM1102.72 866.8l-14.27 4.63v-9.27z" stroke="#333" stroke-width="2" fill="#333"/><path d="M814.53 812c0-1.1.9-2 2-2h236c1.1 0 2 .9 2 2v56c0 1.1-.9 2-2 2h-236c-1.1 0-2-.9-2-2z" stroke="#000" stroke-opacity="0" stroke-width="2" fill="#fff" fill-opacity="0"/><g><use xlink:href="#w" transform="matrix(1,0,0,1,819.5332915420411,815) translate(92.74169921875 32.32421875)"/></g><path d="M740.57 1060c0 .55-.45 1-1 1-.56 0-1-.45-1-1s.44-1 1-1c.55 0 1 .45 1 1zm0 4.75c0 .55-.45 1-1 1-.56 0-1-.45-1-1s.44-1 1-1c.55 0 1 .45 1 1zm0 4.75c0 .55-.45 1-1 1-.56 0-1-.45-1-1s.44-1 1-1c.55 0 1 .45 1 1zm.64 3.7c0 .54-.44 1-1 1-.54 0-1-.46-1-1 0-.57.46-1 1-1 .56 0 1 .43 1 1zm1.74 3.3c0 .55-.45 1-1 1-.56 0-1-.45-1-1 0-.56.44-1 1-1 .55 0 1 .44 1 1zm2.63 2.63c0 .55-.44 1-1 1-.55 0-1-.45-1-1s.45-1 1-1c.56 0 1 .45 1 1zm3.3 1.72c0 .56-.44 1-1 1-.54 0-1-.44-1-1 0-.55.46-1 1-1 .56 0 1 .45 1 1zm3.7.65c0 .55-.45 1-1 1-.56 0-1-.45-1-1s.44-1 1-1c.55 0 1 .45 1 1zm4 0c0 .55-.44 1-1 1-.54 0-1-.45-1-1s.46-1 1-1c.56 0 1 .45 1 1zm4.02 0c0 .55-.45 1-1 1-.56 0-1-.45-1-1s.44-1 1-1c.55 0 1 .45 1 1zm4 0c0 .55-.44 1-1 1-.54 0-1-.45-1-1s.46-1 1-1c.56 0 1 .45 1 1zm4.02 0c0 .55-.44 1-1 1-.55 0-1-.45-1-1s.45-1 1-1c.56 0 1 .45 1 1zm4.02 0c0 .55-.45 1-1 1-.56 0-1-.45-1-1s.44-1 1-1c.55 0 1 .45 1 1zm4 0c0 .55-.44 1-1 1-.54 0-1-.45-1-1s.46-1 1-1c.56 0 1 .45 1 1zm4.02 0c0 .55-.44 1-1 1-.55 0-1-.45-1-1s.45-1 1-1c.56 0 1 .45 1 1zm4.02 0c0 .55-.45 1-1 1s-1-.45-1-1 .45-1 1-1 1 .45 1 1zm4 0c0 .55-.44 1-1 1-.54 0-1-.45-1-1s.46-1 1-1c.56 0 1 .45 1 1zm4.03 0c0 .55-.44 1-1 1-.55 0-1-.45-1-1s.45-1 1-1c.56 0 1 .45 1 1zm4.02 0c0 .55-.45 1-1 1s-1-.45-1-1 .45-1 1-1 1 .45 1 1zm4 0c0 .55-.43 1-1 1-.54 0-1-.45-1-1s.46-1 1-1c.57 0 1 .45 1 1zm4.03 0c0 .55-.45 1-1 1s-1-.45-1-1 .45-1 1-1 1 .45 1 1zm4 0c0 .55-.44 1-1 1-.54 0-1-.45-1-1s.46-1 1-1c.56 0 1 .45 1 1zm4.03 0c0 .55-.45 1-1 1-.56 0-1-.45-1-1s.44-1 1-1c.55 0 1 .45 1 1zm4 0c0 .55-.44 1-1 1-.54 0-1-.45-1-1s.46-1 1-1c.56 0 1 .45 1 1zm4.02 0c0 .55-.44 1-1 1-.55 0-1-.45-1-1s.45-1 1-1c.56 0 1 .45 1 1zm4.02 0c0 .55-.45 1-1 1s-1-.45-1-1 .45-1 1-1 1 .45 1 1zm4 0c0 .55-.44 1-1 1-.54 0-1-.45-1-1s.46-1 1-1c.56 0 1 .45 1 1zm4.03 0c0 .55-.45 1-1 1-.56 0-1-.45-1-1s.44-1 1-1c.55 0 1 .45 1 1zm4 0c0 .55-.44 1-1 1-.54 0-1-.45-1-1s.46-1 1-1c.56 0 1 .45 1 1zm4.02 0c0 .55-.44 1-1 1-.55 0-1-.45-1-1s.45-1 1-1c.56 0 1 .45 1 1zm4.02 0c0 .55-.46 1-1 1-.56 0-1-.45-1-1s.44-1 1-1c.54 0 1 .45 1 1zm4 0c0 .55-.45 1-1 1s-1-.45-1-1 .45-1 1-1 1 .45 1 1zm4.02 0c0 .55-.45 1-1 1-.56 0-1-.45-1-1s.44-1 1-1c.55 0 1 .45 1 1zm4 0c0 .55-.44 1-1 1-.54 0-1-.45-1-1s.46-1 1-1c.56 0 1 .45 1 1zm4.02 0c0 .55-.44 1-1 1-.55 0-1-.45-1-1s.45-1 1-1c.56 0 1 .45 1 1zm4.02 0c0 .55-.45 1-1 1s-1-.45-1-1 .45-1 1-1 1 .45 1 1zm4 0c0 .55-.44 1-1 1-.54 0-1-.45-1-1s.46-1 1-1c.56 0 1 .45 1 1zm4.03 0c0 .55-.46 1-1 1-.57 0-1-.45-1-1s.43-1 1-1c.54 0 1 .45 1 1zm4 0c0 .55-.45 1-1 1s-1-.45-1-1 .45-1 1-1 1 .45 1 1zm4 0c0 .55-.43 1-1 1-.54 0-1-.45-1-1s.46-1 1-1c.57 0 1 .45 1 1zm4.03 0c0 .55-.45 1-1 1s-1-.45-1-1 .45-1 1-1 1 .45 1 1zm4 0c0 .55-.44 1-1 1-.54 0-1-.45-1-1s.46-1 1-1c.56 0 1 .45 1 1zm4.03 0c0 .55-.45 1-1 1-.56 0-1-.45-1-1s.44-1 1-1c.55 0 1 .45 1 1zm4 0c0 .55-.44 1-1 1-.54 0-1-.45-1-1s.46-1 1-1c.56 0 1 .45 1 1zm4.02 0c0 .55-.44 1-1 1-.55 0-1-.45-1-1s.45-1 1-1c.56 0 1 .45 1 1zm4.02 0c0 .55-.45 1-1 1s-1-.45-1-1 .45-1 1-1 1 .45 1 1zm4 0c0 .55-.44 1-1 1-.54 0-1-.45-1-1s.46-1 1-1c.56 0 1 .45 1 1zm4.03 0c0 .55-.45 1-1 1-.56 0-1-.45-1-1s.44-1 1-1c.55 0 1 .45 1 1zm4 0c0 .55-.44 1-1 1-.54 0-1-.45-1-1s.46-1 1-1c.56 0 1 .45 1 1zm4.02 0c0 .55-.44 1-1 1-.55 0-1-.45-1-1s.45-1 1-1c.56 0 1 .45 1 1zm4.02 0c0 .55-.45 1-1 1s-1-.45-1-1 .45-1 1-1 1 .45 1 1zm4 0c0 .55-.44 1-1 1-.54 0-1-.45-1-1s.46-1 1-1c.56 0 1 .45 1 1zm4.03 0c0 .55-.45 1-1 1-.56 0-1-.45-1-1s.44-1 1-1c.55 0 1 .45 1 1zm4 0c0 .55-.44 1-1 1-.54 0-1-.45-1-1s.46-1 1-1c.56 0 1 .45 1 1zm4.02 0c0 .55-.44 1-1 1-.55 0-1-.45-1-1s.45-1 1-1c.56 0 1 .45 1 1zm4.02 0c0 .55-.45 1-1 1s-1-.45-1-1 .45-1 1-1 1 .45 1 1zm4 0c0 .55-.44 1-1 1-.54 0-1-.45-1-1s.46-1 1-1c.56 0 1 .45 1 1zm4.03 0c0 .55-.45 1-1 1-.56 0-1-.45-1-1s.44-1 1-1c.55 0 1 .45 1 1zm4 0c0 .55-.44 1-1 1-.54 0-1-.45-1-1s.46-1 1-1c.56 0 1 .45 1 1zm4.02 0c0 .55-.45 1-1 1-.56 0-1-.45-1-1s.44-1 1-1c.55 0 1 .45 1 1zm4 0c0 .55-.44 1-1 1-.55 0-1-.45-1-1s.45-1 1-1c.56 0 1 .45 1 1zm4.02 0c0 .55-.45 1-1 1s-1-.45-1-1 .45-1 1-1 1 .45 1 1zm4.02 0c0 .55-.45 1-1 1-.56 0-1-.45-1-1s.44-1 1-1c.55 0 1 .45 1 1zm4 0c0 .55-.44 1-1 1-.54 0-1-.45-1-1s.46-1 1-1c.56 0 1 .45 1 1zm4.02 0c0 .55-.44 1-1 1-.55 0-1-.45-1-1s.45-1 1-1c.56 0 1 .45 1 1zm4.02 0c0 .55-.45 1-1 1-.56 0-1-.45-1-1s.44-1 1-1c.55 0 1 .45 1 1zm4 0c0 .55-.44 1-1 1-.54 0-1-.45-1-1s.46-1 1-1c.56 0 1 .45 1 1zm4.03 0c0 .55-.44 1-1 1-.55 0-1-.45-1-1s.45-1 1-1c.56 0 1 .45 1 1zm4.02 0c0 .55-.45 1-1 1s-1-.45-1-1 .45-1 1-1 1 .45 1 1zm4 0c0 .55-.43 1-1 1-.54 0-1-.45-1-1s.46-1 1-1c.57 0 1 .45 1 1zm4.03 0c0 .55-.45 1-1 1-.56 0-1-.45-1-1s.44-1 1-1c.55 0 1 .45 1 1zm4 0c0 .55-.44 1-1 1-.54 0-1-.45-1-1s.46-1 1-1c.56 0 1 .45 1 1zm4.02 0c0 .55-.44 1-1 1-.55 0-1-.45-1-1s.45-1 1-1c.56 0 1 .45 1 1zm4.02 0c0 .55-.46 1-1 1-.56 0-1-.45-1-1s.44-1 1-1c.54 0 1 .45 1 1zm4 0c0 .55-.44 1-1 1-.55 0-1-.45-1-1s.45-1 1-1c.56 0 1 .45 1 1zm4.02 0c0 .55-.45 1-1 1-.56 0-1-.45-1-1s.44-1 1-1c.55 0 1 .45 1 1zm4 0c0 .55-.44 1-1 1-.54 0-1-.45-1-1s.46-1 1-1c.56 0 1 .45 1 1zm4.02 0c0 .55-.44 1-1 1-.55 0-1-.45-1-1s.45-1 1-1c.56 0 1 .45 1 1zm4.02 0c0 .55-.45 1-1 1s-1-.45-1-1 .45-1 1-1 1 .45 1 1zm4 0c0 .55-.44 1-1 1-.54 0-1-.45-1-1s.46-1 1-1c.56 0 1 .45 1 1zm4.03 0c0 .55-.46 1-1 1-.57 0-1-.45-1-1s.43-1 1-1c.54 0 1 .45 1 1zm4 0c0 .55-.45 1-1 1s-1-.45-1-1 .45-1 1-1 1 .45 1 1zm4 0c0 .55-.43 1-1 1-.54 0-1-.45-1-1s.46-1 1-1c.57 0 1 .45 1 1zm4.03 0c0 .55-.45 1-1 1s-1-.45-1-1 .45-1 1-1 1 .45 1 1zm4 0c0 .55-.44 1-1 1-.54 0-1-.45-1-1s.46-1 1-1c.56 0 1 .45 1 1zm4.03 0c0 .55-.45 1-1 1-.56 0-1-.45-1-1s.44-1 1-1c.55 0 1 .45 1 1zm4 0c0 .55-.44 1-1 1-.54 0-1-.45-1-1s.46-1 1-1c.56 0 1 .45 1 1zm4.02 0c0 .55-.44 1-1 1-.55 0-1-.45-1-1s.45-1 1-1c.56 0 1 .45 1 1zm4.02 0c0 .55-.45 1-1 1s-1-.45-1-1 .45-1 1-1 1 .45 1 1zm4 0c0 .55-.44 1-1 1-.54 0-1-.45-1-1s.46-1 1-1c.56 0 1 .45 1 1zm4.03 0c0 .55-.45 1-1 1-.56 0-1-.45-1-1s.44-1 1-1c.55 0 1 .45 1 1zm4 0c0 .55-.44 1-1 1-.54 0-1-.45-1-1s.46-1 1-1c.56 0 1 .45 1 1zm4.02 0c0 .55-.44 1-1 1-.55 0-1-.45-1-1s.45-1 1-1c.56 0 1 .45 1 1zm4.02 0c0 .55-.45 1-1 1s-1-.45-1-1 .45-1 1-1 1 .45 1 1zm4 0c0 .55-.44 1-1 1-.54 0-1-.45-1-1s.46-1 1-1c.56 0 1 .45 1 1zm4.03 0c0 .55-.45 1-1 1-.56 0-1-.45-1-1s.44-1 1-1c.55 0 1 .45 1 1zm4 0c0 .55-.44 1-1 1-.54 0-1-.45-1-1s.46-1 1-1c.56 0 1 .45 1 1zm4.02 0c0 .55-.44 1-1 1-.55 0-1-.45-1-1s.45-1 1-1c.56 0 1 .45 1 1zm4.02 0c0 .55-.45 1-1 1s-1-.45-1-1 .45-1 1-1 1 .45 1 1zm4 0c0 .55-.44 1-1 1-.54 0-1-.45-1-1s.46-1 1-1c.56 0 1 .45 1 1zm4.03 0c0 .55-.45 1-1 1-.56 0-1-.45-1-1s.44-1 1-1c.55 0 1 .45 1 1zm3.68-.64c0 .55-.45 1-1 1s-1-.45-1-1c0-.56.45-1 1-1s1 .44 1 1zm3.3-1.73c0 .55-.44 1-1 1-.54 0-1-.45-1-1s.46-1 1-1c.56 0 1 .45 1 1zm2.65-2.64c0 .55-.45 1-1 1-.56 0-1-.45-1-1 0-.56.44-1 1-1 .55 0 1 .44 1 1zm1.72-3.3c0 .54-.45 1-1 1s-1-.46-1-1c0-.57.45-1 1-1s1 .43 1 1zm.65-3.7c0 .55-.45 1-1 1-.56 0-1-.45-1-1s.44-1 1-1c.55 0 1 .45 1 1zm0-4.75c0 .55-.45 1-1 1-.56 0-1-.45-1-1s.44-1 1-1c.55 0 1 .45 1 1z" fill="#333"/><path d="M739.57 1044.74l4.63 14.26h-9.27zM1136.87 1044.74l4.63 14.26h-9.27z" stroke="#333" stroke-width="2" fill="#333"/><path d="M822.65 1085c0-1.1.9-2 2-2h236c1.1 0 2 .9 2 2v56c0 1.1-.9 2-2 2h-236c-1.1 0-2-.9-2-2z" stroke="#000" stroke-opacity="0" stroke-width="2" fill="#fff" fill-opacity="0"/><g><use xlink:href="#x" transform="matrix(1,0,0,1,827.6545117430679,1088) translate(44.98193359375 32.32421875)"/><use xlink:href="#y" transform="matrix(1,0,0,1,827.6545117430679,1088) translate(98.31396484375 32.32421875)"/><use xlink:href="#z" transform="matrix(1,0,0,1,827.6545117430679,1088) translate(140.03564453125 32.32421875)"/></g><defs><path d="M539-677L361-492V0H169v-1456h192v720l647-720h232L667-813 1285 0h-230" id="A"/><path d="M491 20c-241-1-355-148-355-398v-704h185v699c0 164 67 246 200 246 141 0 235-53 282-158v-787h185V0H812l-4-107C736-22 630 20 491 20" id="B"/><path d="M634-1102c292 0 422 254 422 573 0 298-143 547-420 549-137 0-242-48-317-145L310 0H140v-1536h185v573c75-93 178-139 309-139zm-44 965c207 0 281-175 281-413 0-224-79-395-283-395-122 0-210 57-263 170v468c57 113 145 170 265 170" id="C"/><path d="M599-131c141 0 220-65 285-146l113 88C906-50 770 20 589 20 281 21 93-214 93-545c0-223 93-397 233-485 74-48 154-72 240-72 300 2 449 218 445 537v77H278c0 197 129 357 321 357zm227-509c-3-180-88-310-260-310-170 0-264 140-282 310h542" id="D"/><path d="M663-916c-163-27-288 18-338 148V0H140v-1082h180l3 125c61-97 147-145 258-145 36 0 63 5 82 14v172" id="E"/><path d="M589-945c-131 0-219 81-264 174V0H140v-1082h175l6 136c83-104 191-156 324-156 229 0 346 129 346 387V0H806v-716c-2-153-65-229-217-229" id="F"/><path d="M456 20C285 20 205-92 206-268v-671H9v-143h197v-262h185v262h202v143H391v671c-9 125 92 149 207 118V0c-49 13-96 20-142 20" id="G"/><path d="M538-131c121 0 232-49 232-156 0-50-20-88-56-117-73-60-334-92-420-143-92-55-162-110-162-238 0-190 192-317 400-317 223 0 414 129 413 338H759c0-108-110-186-227-186-119 0-215 53-215 159 0 45 18 78 53 101 76 52 331 90 416 139 98 57 169 115 169 251C955-92 760 20 538 20c-176 0-314-68-386-174-38-55-57-115-57-179h185c6 129 116 202 258 202" id="H"/><g id="a"><use transform="matrix(0.0087890625,0,0,0.0087890625,0,0)" xlink:href="#A"/><use transform="matrix(0.0087890625,0,0,0.0087890625,11.0830078125,0)" xlink:href="#B"/><use transform="matrix(0.0087890625,0,0,0.0087890625,21.005859375,0)" xlink:href="#C"/><use transform="matrix(0.0087890625,0,0,0.0087890625,31.1044921875,0)" xlink:href="#D"/><use transform="matrix(0.0087890625,0,0,0.0087890625,40.640625,0)" xlink:href="#E"/><use transform="matrix(0.0087890625,0,0,0.0087890625,46.7314453125,0)" xlink:href="#F"/><use transform="matrix(0.0087890625,0,0,0.0087890625,56.6630859375,0)" xlink:href="#D"/><use transform="matrix(0.0087890625,0,0,0.0087890625,66.19921875,0)" xlink:href="#G"/><use transform="matrix(0.0087890625,0,0,0.0087890625,72.0791015625,0)" xlink:href="#D"/><use transform="matrix(0.0087890625,0,0,0.0087890625,81.615234375,0)" xlink:href="#H"/></g><path d="M417-1456L893-268l476-1188h249V0h-192c-4-403 4-794 18-1179L966 0H819L342-1176c15 384 23 773 19 1176H169v-1456h248" id="I"/><path d="M1240-945c-141 0-250 95-250 227V0H804v-709c0-157-77-236-231-236-121 0-204 52-249 155V0H139v-1082h175l5 120c79-93 186-140 321-140 151 0 254 58 309 174 69-98 181-174 345-174 237 0 362 126 362 377V0h-185v-714c-2-159-67-231-231-231" id="J"/><g id="b"><use transform="matrix(0.0087890625,0,0,0.0087890625,0,0)" xlink:href="#I"/><use transform="matrix(0.0087890625,0,0,0.0087890625,15.71484375,0)" xlink:href="#D"/><use transform="matrix(0.0087890625,0,0,0.0087890625,25.2509765625,0)" xlink:href="#J"/><use transform="matrix(0.0087890625,0,0,0.0087890625,41.02734375,0)" xlink:href="#C"/><use transform="matrix(0.0087890625,0,0,0.0087890625,51.1259765625,0)" xlink:href="#D"/><use transform="matrix(0.0087890625,0,0,0.0087890625,60.662109375,0)" xlink:href="#E"/></g><path d="M688-137c238 0 323-102 359-325h193c-32 297-228 482-552 482-361 0-569-299-569-680 0-197 8-360 73-497 88-186 257-317 513-319 316-2 509 195 535 488h-193c-31-212-118-330-342-330-272 0-397 224-393 523v141c-3 282 115 517 376 517" id="K"/><path d="M341 0H156v-1536h185V0" id="L"/><g id="c"><use transform="matrix(0.0087890625,0,0,0.0087890625,0,0)" xlink:href="#K"/><use transform="matrix(0.0087890625,0,0,0.0087890625,11.7158203125,0)" xlink:href="#L"/><use transform="matrix(0.0087890625,0,0,0.0087890625,16.083984375,0)" xlink:href="#B"/><use transform="matrix(0.0087890625,0,0,0.0087890625,26.0068359375,0)" xlink:href="#H"/><use transform="matrix(0.0087890625,0,0,0.0087890625,35.2880859375,0)" xlink:href="#G"/><use transform="matrix(0.0087890625,0,0,0.0087890625,41.16796875,0)" xlink:href="#D"/><use transform="matrix(0.0087890625,0,0,0.0087890625,50.7041015625,0)" xlink:href="#E"/></g><path d="M729 0H543v-1233l-373 137v-168l530-199h29V0" id="M"/><use transform="matrix(0.0087890625,0,0,0.0087890625,0,0)" xlink:href="#M" id="d"/><path d="M483-459l28 192 41-173 288-1016h162l281 1016 40 176 31-196 226-996h193L1420 0h-175L945-1061l-23-111-23 111L588 0H413L61-1456h192" id="N"/><g id="e"><use transform="matrix(0.0087890625,0,0,0.0087890625,0,0)" xlink:href="#N"/><use transform="matrix(0.0087890625,0,0,0.0087890625,15.9697265625,0)" xlink:href="#K"/><use transform="matrix(0.0087890625,0,0,0.0087890625,27.685546875,0)" xlink:href="#I"/></g><path d="M277-555c0 244 77 420 297 424 127 2 249-93 255-210h175C980-127 805 20 574 20 258 20 81-222 92-562c11-319 164-533 481-540 237-5 426 165 431 392H829c-7-133-115-242-256-240-209 4-296 166-296 395" id="O"/><path d="M584 20C278 26 81-227 91-551c10-320 175-545 491-551 308-5 503 247 494 573-9 322-175 543-492 549zm-2-970c-208 0-305 185-305 421 0 216 106 398 307 398 211 0 307-186 307-420 0-214-109-399-309-399" id="P"/><g id="f"><use transform="matrix(0.0087890625,0,0,0.0087890625,0,0)" xlink:href="#O"/><use transform="matrix(0.0087890625,0,0,0.0087890625,9.421875,0)" xlink:href="#P"/><use transform="matrix(0.0087890625,0,0,0.0087890625,19.6875,0)" xlink:href="#F"/><use transform="matrix(0.0087890625,0,0,0.0087890625,29.619140625,0)" xlink:href="#G"/><use transform="matrix(0.0087890625,0,0,0.0087890625,35.4990234375,0)" xlink:href="#E"/><use transform="matrix(0.0087890625,0,0,0.0087890625,41.4140625,0)" xlink:href="#P"/><use transform="matrix(0.0087890625,0,0,0.0087890625,51.6796875,0)" xlink:href="#L"/></g><path d="M632-1102c291 0 422 251 422 573 0 297-141 548-419 549-131 0-235-42-310-125v521H140v-1498h169l9 120c75-93 180-140 314-140zm-53 971c207 0 290-180 290-419 0-218-92-395-292-395-112 0-196 50-252 149v517c55 99 140 148 254 148" id="Q"/><path d="M561-1102c238-4 403 126 403 351v498c0 99 13 178 38 237V0H808c-11-21-19-59-26-114C696-25 593 20 474 20c-199 0-368-130-365-320 4-251 214-359 490-356h180v-85c-1-135-86-212-229-212-115 0-232 67-233 171H131c20-205 206-316 430-320zM294-326c0 117 90 185 207 185 122 0 239-75 278-162v-222H634c-227 0-340 66-340 199" id="R"/><g id="g"><use transform="matrix(0.0087890625,0,0,0.0087890625,0,0)" xlink:href="#Q"/><use transform="matrix(0.0087890625,0,0,0.0087890625,10.0986328125,0)" xlink:href="#L"/><use transform="matrix(0.0087890625,0,0,0.0087890625,14.466796875,0)" xlink:href="#R"/><use transform="matrix(0.0087890625,0,0,0.0087890625,24.2578125,0)" xlink:href="#F"/><use transform="matrix(0.0087890625,0,0,0.0087890625,34.189453125,0)" xlink:href="#D"/></g><path d="M1288 0h-193L362-1122V0H169v-1456h193l735 1127v-1127h191V0" id="S"/><path d="M631-137c179 0 314-70 314-231 0-71-25-127-75-166s-141-77-272-115c-165-47-285-106-360-175s-112-154-112-255c0-245 231-397 495-397 206 0 369 89 449 218 43 68 65 142 65 223H942c0-184-129-283-321-283-172 0-299 76-301 236 0 59 26 109 76 150s135 78 256 113c205 59 345 116 436 256 35 53 50 119 50 193-2 256-231 398-507 390C333 12 90-129 80-422h193c0 187 160 285 358 285" id="T"/><g id="h"><use transform="matrix(0.0087890625,0,0,0.0087890625,0,0)" xlink:href="#S"/><use transform="matrix(0.0087890625,0,0,0.0087890625,12.83203125,0)" xlink:href="#T"/><use transform="matrix(0.0087890625,0,0,0.0087890625,23.5107421875,0)" xlink:href="#I"/></g><path d="M972-643H361V0H169v-1456h902v158H361v498h611v157" id="U"/><path d="M1098-255l208-827h185L1176 0h-150L763-820 507 0H357L43-1082h184l213 810 252-810h149" id="V"/><path d="M520 20C244 20 95-247 95-550c0-298 151-550 427-552 127 0 227 43 301 130v-564h185V0H838l-9-116C755-25 652 20 520 20zm48-965c-210 0-288 177-288 416 0 218 87 392 286 392 117 0 203-53 257-158v-497c-55-102-140-153-255-153" id="W"/><g id="i"><use transform="matrix(0.0087890625,0,0,0.0087890625,0,0)" xlink:href="#U"/><use transform="matrix(0.0087890625,0,0,0.0087890625,9.7646484375,0)" xlink:href="#P"/><use transform="matrix(0.0087890625,0,0,0.0087890625,20.0302734375,0)" xlink:href="#E"/><use transform="matrix(0.0087890625,0,0,0.0087890625,26.2705078125,0)" xlink:href="#V"/><use transform="matrix(0.0087890625,0,0,0.0087890625,39.796875,0)" xlink:href="#R"/><use transform="matrix(0.0087890625,0,0,0.0087890625,49.587890625,0)" xlink:href="#E"/><use transform="matrix(0.0087890625,0,0,0.0087890625,55.51171875,0)" xlink:href="#W"/><use transform="matrix(0.0087890625,0,0,0.0087890625,65.6630859375,0)" xlink:href="#D"/><use transform="matrix(0.0087890625,0,0,0.0087890625,75.19921875,0)" xlink:href="#E"/></g><g id="j"><use transform="matrix(0.0087890625,0,0,0.0087890625,0,0)" xlink:href="#K"/><use transform="matrix(0.0087890625,0,0,0.0087890625,11.7158203125,0)" xlink:href="#L"/><use transform="matrix(0.0087890625,0,0,0.0087890625,16.083984375,0)" xlink:href="#B"/><use transform="matrix(0.0087890625,0,0,0.0087890625,26.0068359375,0)" xlink:href="#H"/><use transform="matrix(0.0087890625,0,0,0.0087890625,35.2880859375,0)" xlink:href="#G"/><use transform="matrix(0.0087890625,0,0,0.0087890625,41.16796875,0)" xlink:href="#D"/><use transform="matrix(0.0087890625,0,0,0.0087890625,50.7041015625,0)" xlink:href="#E"/></g><g id="k"><use transform="matrix(0.0087890625,0,0,0.0087890625,0,0)" xlink:href="#I"/><use transform="matrix(0.0087890625,0,0,0.0087890625,15.71484375,0)" xlink:href="#D"/><use transform="matrix(0.0087890625,0,0,0.0087890625,25.2509765625,0)" xlink:href="#J"/><use transform="matrix(0.0087890625,0,0,0.0087890625,41.02734375,0)" xlink:href="#C"/><use transform="matrix(0.0087890625,0,0,0.0087890625,51.1259765625,0)" xlink:href="#D"/><use transform="matrix(0.0087890625,0,0,0.0087890625,60.662109375,0)" xlink:href="#E"/></g><g id="l"><use transform="matrix(0.0087890625,0,0,0.0087890625,0,0)" xlink:href="#K"/><use transform="matrix(0.0087890625,0,0,0.0087890625,11.7158203125,0)" xlink:href="#L"/><use transform="matrix(0.0087890625,0,0,0.0087890625,16.083984375,0)" xlink:href="#B"/><use transform="matrix(0.0087890625,0,0,0.0087890625,26.0068359375,0)" xlink:href="#H"/><use transform="matrix(0.0087890625,0,0,0.0087890625,35.2880859375,0)" xlink:href="#G"/><use transform="matrix(0.0087890625,0,0,0.0087890625,41.16796875,0)" xlink:href="#D"/><use transform="matrix(0.0087890625,0,0,0.0087890625,50.7041015625,0)" xlink:href="#E"/></g><path d="M651-255l416-1201h210L737 0H567L28-1456h209" id="X"/><path d="M341 0H156v-1082h185V0zm-91-1264c-68 0-108-42-109-105 0-62 41-107 109-107s110 44 110 107-42 105-110 105" id="Y"/><g id="m"><use transform="matrix(0.0087890625,0,0,0.0087890625,0,0)" xlink:href="#X"/><use transform="matrix(0.0087890625,0,0,0.0087890625,11.4521484375,0)" xlink:href="#Y"/><use transform="matrix(0.0087890625,0,0,0.0087890625,15.8203125,0)" xlink:href="#G"/><use transform="matrix(0.0087890625,0,0,0.0087890625,21.7001953125,0)" xlink:href="#D"/><use transform="matrix(0.0087890625,0,0,0.0087890625,31.236328125,0)" xlink:href="#H"/><use transform="matrix(0.0087890625,0,0,0.0087890625,40.517578125,0)" xlink:href="#H"/></g><path d="M1216-1011c-1 297-202 441-512 441H361V0H169v-1456h537c297-6 510 164 510 445zm-192 2c1-178-126-288-307-289H361v571h345c196 1 318-92 318-282" id="Z"/><g id="n"><use transform="matrix(0.0087890625,0,0,0.0087890625,0,0)" xlink:href="#Z"/><use transform="matrix(0.0087890625,0,0,0.0087890625,11.2412109375,0)" xlink:href="#P"/><use transform="matrix(0.0087890625,0,0,0.0087890625,21.5068359375,0)" xlink:href="#W"/><use transform="matrix(0.0087890625,0,0,0.0087890625,31.658203125,0)" xlink:href="#H"/></g><path fill="#fff" d="M688-137c238 0 323-102 359-325h193c-32 297-228 482-552 482-361 0-569-299-569-680 0-197 8-360 73-497 88-186 257-317 513-319 316-2 509 195 535 488h-193c-31-212-118-330-342-330-272 0-397 224-393 523v141c-3 282 115 517 376 517" id="aa"/><path fill="#fff" d="M1222-777c17 480-206 763-650 777H169v-1456h411c408 9 627 269 642 679zm-190 4c3-312-149-522-447-525H361v1141h202c308 0 473-209 469-531v-85" id="ab"/><g id="o"><use transform="matrix(0.0087890625,0,0,0.0087890625,0,0)" xlink:href="#aa"/><use transform="matrix(0.0087890625,0,0,0.0087890625,11.7158203125,0)" xlink:href="#ab"/></g><path d="M497-251l268-831h189L566 0H425L33-1082h189" id="ac"/><path d="M362-157h690V0H169v-1456h193v1299" id="ad"/><path d="M832-402c-1-179-119-264-303-265H390v-151h139c164 0 281-91 281-250 0-171-85-256-255-256-154 0-265 99-263 250H107c-4-235 205-402 448-402 266 0 444 150 440 412-2 148-109 272-229 317 147 45 249 158 251 341 3 262-197 426-461 426C299 20 91-135 94-384h186c-2 156 116 253 276 253 176 0 277-96 276-271" id="ae"/><g id="p"><use transform="matrix(0.0087890625,0,0,0.0087890625,0,0)" xlink:href="#ac"/><use transform="matrix(0.0087890625,0,0,0.0087890625,8.71875,0)" xlink:href="#ad"/><use transform="matrix(0.0087890625,0,0,0.0087890625,18.404296875,0)" xlink:href="#ae"/></g><path d="M992-673H361v516h733V0H169v-1456h915v158H361v468h631v157" id="af"/><g id="q"><use transform="matrix(0.0087890625,0,0,0.0087890625,0,0)" xlink:href="#S"/><use transform="matrix(0.0087890625,0,0,0.0087890625,12.83203125,0)" xlink:href="#T"/><use transform="matrix(0.0087890625,0,0,0.0087890625,23.5107421875,0)" xlink:href="#af"/></g><g id="r"><use transform="matrix(0.0087890625,0,0,0.0087890625,0,0)" xlink:href="#ac"/><use transform="matrix(0.0087890625,0,0,0.0087890625,8.71875,0)" xlink:href="#ad"/><use transform="matrix(0.0087890625,0,0,0.0087890625,18.404296875,0)" xlink:href="#ae"/><use transform="matrix(0.0087890625,0,0,0.0087890625,28.51171875,0)" xlink:href="#S"/><use transform="matrix(0.0087890625,0,0,0.0087890625,41.34375,0)" xlink:href="#T"/><use transform="matrix(0.0087890625,0,0,0.0087890625,52.0224609375,0)" xlink:href="#af"/></g><g id="s"><use transform="matrix(0.0087890625,0,0,0.0087890625,0,0)" xlink:href="#N"/><use transform="matrix(0.0087890625,0,0,0.0087890625,15.9697265625,0)" xlink:href="#K"/><use transform="matrix(0.0087890625,0,0,0.0087890625,27.685546875,0)" xlink:href="#I"/></g><path d="M494-271l252-811h198L509 167C425 381 299 474 84 421V271c167 16 242-37 283-173l41-110L22-1082h202" id="ag"/><g id="t"><use transform="matrix(0.0087890625,0,0,0.0087890625,0,0)" xlink:href="#O"/><use transform="matrix(0.0087890625,0,0,0.0087890625,9.421875,0)" xlink:href="#P"/><use transform="matrix(0.0087890625,0,0,0.0087890625,19.6875,0)" xlink:href="#F"/><use transform="matrix(0.0087890625,0,0,0.0087890625,29.619140625,0)" xlink:href="#F"/><use transform="matrix(0.0087890625,0,0,0.0087890625,39.55078125,0)" xlink:href="#D"/><use transform="matrix(0.0087890625,0,0,0.0087890625,49.0869140625,0)" xlink:href="#O"/><use transform="matrix(0.0087890625,0,0,0.0087890625,58.5087890625,0)" xlink:href="#G"/><use transform="matrix(0.0087890625,0,0,0.0087890625,64.388671875,0)" xlink:href="#Y"/><use transform="matrix(0.0087890625,0,0,0.0087890625,68.7568359375,0)" xlink:href="#ac"/><use transform="matrix(0.0087890625,0,0,0.0087890625,77.4755859375,0)" xlink:href="#Y"/><use transform="matrix(0.0087890625,0,0,0.0087890625,81.84375,0)" xlink:href="#G"/><use transform="matrix(0.0087890625,0,0,0.0087890625,87.7236328125,0)" xlink:href="#ag"/></g><g id="u"><use transform="matrix(0.0087890625,0,0,0.0087890625,0,0)" xlink:href="#W"/><use transform="matrix(0.0087890625,0,0,0.0087890625,10.1513671875,0)" xlink:href="#P"/><use transform="matrix(0.0087890625,0,0,0.0087890625,20.4169921875,0)" xlink:href="#J"/><use transform="matrix(0.0087890625,0,0,0.0087890625,36.193359375,0)" xlink:href="#R"/><use transform="matrix(0.0087890625,0,0,0.0087890625,45.984375,0)" xlink:href="#Y"/><use transform="matrix(0.0087890625,0,0,0.0087890625,50.3525390625,0)" xlink:href="#F"/></g><path d="M730-137c145 0 253-29 323-105v-327H716v-156h528v534C1148-51 964 20 729 20c-394 0-598-279-607-678v-127c-5-410 194-690 585-691 310-1 499 171 537 447h-192c-36-193-151-289-344-289-285 0-393 220-393 528v119c-5 296 140 534 415 534" id="ah"/><g id="v"><use transform="matrix(0.0087890625,0,0,0.0087890625,0,0)" xlink:href="#ah"/><use transform="matrix(0.0087890625,0,0,0.0087890625,12.2607421875,0)" xlink:href="#E"/><use transform="matrix(0.0087890625,0,0,0.0087890625,18.1845703125,0)" xlink:href="#D"/><use transform="matrix(0.0087890625,0,0,0.0087890625,27.720703125,0)" xlink:href="#D"/><use transform="matrix(0.0087890625,0,0,0.0087890625,37.2568359375,0)" xlink:href="#F"/></g><g id="w"><use transform="matrix(0.0087890625,0,0,0.0087890625,0,0)" xlink:href="#ac"/><use transform="matrix(0.0087890625,0,0,0.0087890625,8.71875,0)" xlink:href="#N"/><use transform="matrix(0.0087890625,0,0,0.0087890625,24.6884765625,0)" xlink:href="#Y"/><use transform="matrix(0.0087890625,0,0,0.0087890625,29.056640625,0)" xlink:href="#E"/><use transform="matrix(0.0087890625,0,0,0.0087890625,34.98046875,0)" xlink:href="#D"/></g><path d="M375 0H183v-1456h192V0" id="ai"/><g id="x"><use transform="matrix(0.0087890625,0,0,0.0087890625,0,0)" xlink:href="#ai"/><use transform="matrix(0.0087890625,0,0,0.0087890625,4.8955078125,0)" xlink:href="#Z"/><use transform="matrix(0.0087890625,0,0,0.0087890625,16.2509765625,0)" xlink:href="#T"/><use transform="matrix(0.0087890625,0,0,0.0087890625,26.9296875,0)" xlink:href="#af"/><use transform="matrix(0.0087890625,0,0,0.0087890625,37.16015625,0)" xlink:href="#K"/></g><path d="M1222-777c17 480-206 763-650 777H169v-1456h411c408 9 627 269 642 679zm-190 4c3-312-149-522-447-525H361v1141h202c308 0 473-209 469-531v-85" id="aj"/><g id="y"><use transform="matrix(0.0087890625,0,0,0.0087890625,0,0)" xlink:href="#aj"/><use transform="matrix(0.0087890625,0,0,0.0087890625,11.8037109375,0)" xlink:href="#R"/><use transform="matrix(0.0087890625,0,0,0.0087890625,21.5947265625,0)" xlink:href="#G"/><use transform="matrix(0.0087890625,0,0,0.0087890625,27.474609375,0)" xlink:href="#R"/></g><g id="z"><use transform="matrix(0.0087890625,0,0,0.0087890625,0,0)" xlink:href="#Z"/><use transform="matrix(0.0087890625,0,0,0.0087890625,11.35546875,0)" xlink:href="#L"/><use transform="matrix(0.0087890625,0,0,0.0087890625,15.7236328125,0)" xlink:href="#R"/><use transform="matrix(0.0087890625,0,0,0.0087890625,25.5146484375,0)" xlink:href="#F"/><use transform="matrix(0.0087890625,0,0,0.0087890625,35.4462890625,0)" xlink:href="#D"/></g></defs></g></svg>