<svg width="1023" height="420" viewBox="0 0 1023 420" fill="none" xmlns="http://www.w3.org/2000/svg">
<g clip-path="url(#clip0)">
<path d="M621.633 214.201L681.465 154.551L621.633 94.9012L639.874 76.7205L717.948 154.551L639.874 232.381L621.633 214.201Z" fill="#E6E6E6"/>
<path d="M475.092 130.621H450.77V154.943H475.092V130.621Z" fill="#E6E6E6"/>
<path d="M572.866 130.621H548.544V154.943H572.866V130.621Z" fill="#E6E6E6"/>
<path d="M523.979 130.621H499.657V154.943H523.979V130.621Z" fill="#E6E6E6"/>
<path d="M417.814 213.593L357.92 153.943L417.753 94.2935L399.511 76.1128L321.498 153.943L399.572 231.774L417.814 213.593Z" fill="#E6E6E6"/>
<path d="M621.633 202.648L681.465 142.998L621.633 83.3477L639.874 65.167L717.948 142.998L639.874 220.829L621.633 202.648Z" fill="#00BCEB"/>
<path d="M450.77 147.254H475.092V122.932H450.77L450.77 147.254ZM572.867 122.932H548.544V147.254H572.867V122.932ZM499.657 147.254H523.979V122.932H499.657V147.254Z" fill="#00BCEB"/>
<path d="M417.814 202.04L357.92 142.39L417.753 82.74L399.511 64.5593L321.498 142.39L399.572 220.22L417.814 202.04Z" fill="#00BCEB"/>
<path d="M124.919 396.528L138.535 399.819L157.711 348.869L137.615 344.01L124.919 396.528Z" fill="#A0616A"/>
<path d="M118.473 408.754L122.654 391.459L149.293 397.899C153.776 398.988 157.644 401.811 160.048 405.749C162.453 409.686 163.197 414.417 162.118 418.902L162.026 419.283L118.473 408.754Z" fill="#2F2E41"/>
<path d="M185.194 405.803L199.203 405.802L205.866 351.772L185.192 351.773L185.194 405.803Z" fill="#A0616A"/>
<path d="M181.801 401.409L209.207 401.408H209.208C213.823 401.408 218.249 403.241 221.512 406.504C224.776 409.767 226.609 414.193 226.609 418.808V419.2L181.802 419.202L181.801 401.409Z" fill="#2F2E41"/>
<path d="M181.908 387.107L184.211 303.051L181.108 268.966L175.055 295.196L148.604 381.453L125.802 375.452L152.21 282.447L146.475 222.794L162.954 212.2L163.176 212.24L219.478 222.618L205.877 384.71L181.908 387.107Z" fill="#2F2E41"/>
<path d="M204.189 234.321C199.655 234.321 194.353 232.86 188.45 228.694C169.562 215.364 147.041 229.704 146.816 229.849L145.901 230.444L145.933 229.353C145.956 228.577 148.218 151.379 148.218 126.538C148.218 100.874 164.963 82.1353 170.095 77.0037C175.132 71.9659 179.37 72.0774 184.735 72.2169C185.66 72.2404 186.623 72.266 187.637 72.266C194.649 72.266 201.465 79.0021 201.752 79.2888L201.889 79.4261L201.914 79.618L221.37 226.106L221.221 226.295C221.131 226.41 214.742 234.321 204.189 234.321Z" fill="#CCCCCC"/>
<path d="M215.24 49.0156C222.674 35.4163 217.676 18.3653 204.076 10.9312C190.477 3.4971 173.426 8.49504 165.992 22.0944C158.558 35.6938 163.556 52.7448 177.155 60.1789C190.754 67.613 207.805 62.615 215.24 49.0156Z" fill="#A0616A"/>
<path d="M233.575 257.776C232.247 256.747 231.161 255.44 230.394 253.946C229.626 252.452 229.195 250.808 229.132 249.129C229.068 247.451 229.373 245.779 230.026 244.231C230.678 242.683 231.662 241.298 232.908 240.171L216.972 202.58L237.838 206.421L249.773 241.529C251.527 243.748 252.405 246.532 252.243 249.356C252.08 252.179 250.887 254.845 248.891 256.847C246.894 258.85 244.232 260.051 241.409 260.222C238.587 260.393 235.799 259.523 233.575 257.776V257.776Z" fill="#A0616A"/>
<path d="M229.061 236.378L200.264 177.634L187.638 133.42L187.648 95.0114C187.676 94.8596 190.645 79.9191 201.647 80.9523C211.623 81.9186 216.996 86.7969 219.613 97.2642C221.836 106.156 218.795 132.536 218.501 135.025C220.431 139.602 249.393 208.606 244.598 216.915C244.419 217.239 244.157 217.51 243.84 217.701L248.972 228.535L229.061 236.378Z" fill="#CCCCCC"/>
<path d="M187.028 46.1276C190.392 46.5653 192.929 43.1234 194.106 39.9418C195.283 36.7601 196.18 33.0559 199.105 31.3373C203.101 28.9892 208.213 31.8133 212.783 31.0386C217.943 30.1637 221.298 24.6947 221.561 19.4673C221.824 14.2399 219.744 9.21225 217.703 4.39263L216.99 10.3823C217.085 8.35228 216.658 6.33173 215.75 4.51395C214.841 2.69617 213.481 1.14196 211.8 0L212.718 8.78895C212.523 7.57638 212.09 6.41436 211.444 5.36954C210.798 4.32473 209.953 3.4177 208.956 2.70054C207.958 1.98337 206.829 1.47018 205.634 1.19041C204.438 0.910646 203.198 0.869805 201.986 1.07024L202.131 6.30704C196.171 5.59831 190.159 4.88857 184.181 5.42852C178.203 5.96848 172.183 7.85983 167.652 11.7967C160.875 17.6857 158.4 27.3826 159.231 36.3225C160.062 45.2624 163.752 53.6607 167.598 61.7736C168.566 63.8148 169.905 66.1182 172.149 66.3782C174.165 66.6118 176.01 64.9264 176.636 62.9959C177.119 61.0151 177.101 58.9451 176.582 56.9733C176.015 53.96 175.3 50.88 175.833 47.8605C176.366 44.8411 178.539 41.8572 181.582 41.4872C184.626 41.1172 187.741 44.5964 186.277 47.2908L187.028 46.1276Z" fill="#2F2E41"/>
<path d="M881.639 254.034C880.702 252.967 880.011 251.707 879.614 250.343C879.217 248.979 879.124 247.545 879.341 246.142C879.558 244.738 880.081 243.399 880.871 242.22C881.662 241.04 882.702 240.048 883.917 239.313L876.735 205.546L893.439 212.09L897.698 243.153C898.797 245.277 899.078 247.73 898.489 250.047C897.9 252.365 896.481 254.385 894.501 255.727C892.522 257.068 890.119 257.637 887.748 257.325C885.378 257.013 883.204 255.842 881.639 254.034V254.034Z" fill="#FFB8B8"/>
<path d="M879.742 227.687L879.652 227.355C870.623 193.957 861.289 159.432 849.893 121.84L849.818 121.594L850.07 121.447C856.421 117.741 865.968 117.988 872.276 122.021C875.132 123.86 877.353 126.532 878.639 129.676C879.925 132.819 880.214 136.282 879.467 139.595L887.779 182.931C891.158 197.097 894.655 211.76 897.997 226.217L898.092 226.627L897.574 226.66C891.489 227.047 885.201 227.447 880.164 227.668L879.742 227.687Z" fill="#CCCCCC"/>
<path d="M803.002 407.439H791.158L785.521 361.756H803.002V407.439Z" fill="#FFB8B8"/>
<path d="M806.023 418.921H767.833V418.438C767.837 414.496 769.405 410.718 772.192 407.931C774.979 405.145 778.757 403.577 782.698 403.573H806.023L806.023 418.921Z" fill="#2F2E41"/>
<path d="M914.608 397.67L903.323 401.265L884.082 359.449L900.738 354.142L914.608 397.67Z" fill="#FFB8B8"/>
<path d="M884.585 419.286L884.439 418.825C883.246 415.069 883.593 410.993 885.402 407.492C887.211 403.991 890.335 401.35 894.089 400.149L916.313 393.068L920.972 407.691L884.585 419.286Z" fill="#2F2E41"/>
<path d="M854.662 91.2343C867.766 91.2343 878.39 80.6109 878.39 67.5063C878.39 54.4017 867.766 43.7783 854.662 43.7783C841.557 43.7783 830.934 54.4017 830.934 67.5063C830.934 80.6109 841.557 91.2343 854.662 91.2343Z" fill="#FFB8B8"/>
<path d="M865.315 63.1086C865.45 53.5383 861.444 44.0601 855.251 39.2947C852.333 36.9824 848.702 35.7543 844.979 35.8201C841.256 35.8859 837.671 37.2415 834.836 39.6555C828.739 44.6381 824.922 54.2545 825.245 63.8168C838.906 63.8556 852.567 63.8945 865.315 63.1086Z" fill="#2F2E41"/>
<path d="M809.764 392.735L809.289 392.688C798.985 391.677 788.33 390.633 778.261 390.513L777.713 390.506L777.788 389.964C780.173 372.685 781.185 354.721 782.163 337.349C783.129 320.195 784.127 302.458 786.453 285.612C787.437 281.101 788.396 276.644 789.352 272.203C797.26 235.45 804.729 200.735 820.147 166.372L820.293 166.047L820.646 166.09C835.113 167.84 849.014 173.118 859.787 180.951L859.996 181.103L859.986 181.361C859.778 186.698 859.563 192.216 859.882 197.242C864.771 204.037 868.011 211.876 869.345 220.141C870.679 228.405 870.07 236.866 867.566 244.854C871.808 259.031 876.194 273.687 880.669 288.143C891.536 317.936 902.781 348.766 914.307 380.019L914.497 380.531L913.965 380.656C905.671 382.603 897.116 384.611 888.676 385.39L888.357 385.419L888.206 385.137C866.683 345.083 849.179 302.996 835.952 259.492C833.071 268.276 828.922 276.205 824.902 283.885C821.058 290.87 817.675 298.099 814.776 305.527C812.997 320.135 812.525 335.962 812.069 351.268C811.637 365.739 811.23 379.408 809.817 392.26L809.764 392.735Z" fill="#2F2E41"/>
<path d="M846.561 39.7337C856.846 37.5178 868.222 39.6259 876.299 46.5652C884.376 53.5045 888.478 65.5092 885.16 75.8048C881.842 86.1004 870.576 93.3443 860.39 90.6856C863.308 82.4619 860.024 72.3652 852.891 67.6284C844.432 62.0108 842.103 48.5994 846.561 39.7337Z" fill="#2F2E41"/>
<path d="M859.048 181.983L858.671 181.812C845.551 175.825 832.685 171.232 820.631 167.042L820.262 166.962L820.261 165.89L820.501 165.974C820.551 165.862 820.608 165.736 820.665 165.61C820.83 165.246 820.942 164.998 821.037 164.833L821.035 164.832C822.04 162.784 822.839 160.805 823.611 158.892C824.408 156.917 825.231 154.877 826.294 152.72C823.717 150.135 821.952 146.852 821.218 143.277C820.484 139.701 820.813 135.989 822.163 132.597C824.826 126.286 831.615 121.371 838.749 120.555C841.363 113.359 847.188 98.2388 847.188 98.2388C847.188 98.2388 859.436 97.9025 864.362 97.2775L864.445 97.2671L864.526 97.285C875.279 99.6413 884.257 109.817 886.357 122.03C888.131 132.338 885.438 144.129 878.776 155.23C875.358 160.659 871.579 165.852 867.464 170.773C864.463 174.525 861.629 178.069 859.275 181.638L859.048 181.983Z" fill="#CCCCCC"/>
<path d="M882.798 53.7948C875.598 52.7201 869.945 45.3605 870.763 38.1271C871.582 30.8938 878.736 24.9832 885.994 25.5442C893.252 26.1053 899.413 33.0452 899.11 40.3184C898.807 47.5916 891.99 55.167 882.798 53.7948Z" fill="#2F2E41"/>
<path d="M881.673 49.1046C874.474 48.0299 868.821 40.6703 869.639 33.437C869.996 30.9767 870.97 28.6468 872.471 26.6645C873.971 24.6823 875.949 23.1122 878.22 22.1006C872.414 23.3714 867.417 28.4308 866.741 34.4031C865.923 41.6364 871.575 48.996 878.775 50.0707C881.458 50.4917 884.205 50.1075 886.67 48.9665C885.026 49.3116 883.334 49.3584 881.673 49.1046V49.1046Z" fill="#2F2E41"/>
<path d="M742.018 176.606C742.713 175.367 743.67 174.296 744.824 173.467C745.977 172.639 747.299 172.073 748.694 171.81C750.09 171.547 751.526 171.594 752.902 171.946C754.278 172.298 755.56 172.948 756.657 173.85L786.102 155.827L785.497 173.757L757.628 188.122C755.992 189.866 753.773 190.948 751.392 191.165C749.01 191.382 746.632 190.717 744.708 189.298C742.784 187.878 741.447 185.802 740.952 183.463C740.456 181.124 740.835 178.684 742.018 176.606V176.606Z" fill="#FFB8B8"/>
<path d="M766.228 166.039L766.511 165.844C794.992 146.202 824.434 125.898 856.081 102.629L856.288 102.476L856.51 102.665C862.121 107.418 865.069 116.502 863.368 123.793C862.586 127.098 860.806 130.083 858.271 132.343C855.736 134.603 852.567 136.029 849.194 136.429L811.104 158.704C798.873 166.61 786.214 174.793 773.696 182.761L773.341 182.987L773.137 182.51C770.745 176.901 768.272 171.106 766.386 166.431L766.228 166.039Z" fill="#CCCCCC"/>
<path d="M369.044 420H0.966083C0.709862 420 0.464134 419.898 0.282958 419.717C0.101783 419.536 0 419.29 0 419.034C0 418.778 0.101783 418.532 0.282958 418.351C0.464134 418.17 0.709862 418.068 0.966083 418.068H369.044C369.3 418.068 369.545 418.17 369.727 418.351C369.908 418.532 370.01 418.778 370.01 419.034C370.01 419.29 369.908 419.536 369.727 419.717C369.545 419.898 369.3 420 369.044 420Z" fill="#3F3D56"/>
<path d="M1021.15 420H653.072C652.815 420 652.57 419.898 652.388 419.717C652.207 419.536 652.105 419.29 652.105 419.034C652.105 418.778 652.207 418.532 652.388 418.351C652.57 418.17 652.815 418.068 653.072 418.068H1021.15C1021.41 418.068 1021.65 418.17 1021.83 418.351C1022.01 418.532 1022.12 418.778 1022.12 419.034C1022.12 419.29 1022.01 419.536 1021.83 419.717C1021.65 419.898 1021.41 420 1021.15 420Z" fill="#3F3D56"/>
</g>
<defs>
<clipPath id="clip0">
<rect width="1022.12" height="420" fill="white"/>
</clipPath>
</defs>
</svg>
