<svg width="358" height="154" viewBox="0 0 358 154" fill="none" xmlns="http://www.w3.org/2000/svg">
<g clip-path="url(#clip0)">
<path d="M78.579 85.913C78.5823 85.4404 78.4885 84.9721 78.3035 84.5374C78.1185 84.1028 77.8462 83.7112 77.5037 83.3869C77.1612 83.0627 76.7559 82.8129 76.3129 82.653C75.87 82.4932 75.399 82.4268 74.9294 82.4579C74.4597 82.4891 74.0015 82.6171 73.5834 82.8341C73.1652 83.0511 72.7961 83.3523 72.499 83.7189C72.202 84.0856 71.9834 84.5098 71.8569 84.9651C71.7305 85.4204 71.6988 85.897 71.764 86.3651L61.9265 99.3028C61.5067 100.146 61.3439 101.095 61.4586 102.03C61.5733 102.966 61.9603 103.847 62.5711 104.562L63.3428 105.467L66.8835 104.755L70.8966 101.199L70.4244 97.1692L75.3816 89.3461L75.3752 89.3405C76.2429 89.285 77.057 88.8998 77.6521 88.2631C78.2472 87.6265 78.5786 86.7862 78.579 85.913Z" fill="#FFB9B9"/>
<path d="M10.5492 149.164L8.94336 143.174L31.1829 134.104L33.5529 142.944L10.5492 149.164Z" fill="#FFB8B8"/>
<path d="M5.17751 152.255L0 132.942L0.243227 132.877C2.22831 132.34 4.34438 132.617 6.12599 133.647C7.90759 134.677 9.20882 136.376 9.74345 138.369L9.74359 138.37L12.9058 150.165L5.17751 152.255Z" fill="#2F2E41"/>
<path d="M41.1833 148.207L36.1885 144.559L47.8227 123.474L55.1949 128.858L41.1833 148.207Z" fill="#FFB8B8"/>
<path d="M38.9363 154L22.8301 142.237L22.9782 142.032C24.1874 140.363 26.0074 139.244 28.038 138.922C30.0686 138.599 32.1434 139.101 33.8061 140.315L33.8065 140.315L43.6436 147.5L38.9363 154Z" fill="#2F2E41"/>
<path d="M83.6438 118.742L71.0741 106.479C69.9771 105.409 68.5322 104.772 67.0052 104.687C65.4781 104.601 63.9716 105.072 62.7628 106.013L39.0293 132.492L41.1539 135.811L63.8151 120.401L79.1587 140.552L93.7941 133.203L83.6438 118.742Z" fill="#2F2E41"/>
<path d="M78.2144 121.35L69.0082 120.639L62.3411 119.015C61.9645 118.425 61.4175 117.965 60.7732 117.696C60.1288 117.427 59.418 117.362 58.7359 117.509C58.0537 117.657 57.4328 118.011 56.9562 118.523C56.4796 119.035 56.1702 119.681 56.0692 120.374C55.9683 121.067 56.0807 121.775 56.3914 122.403C56.7021 123.03 57.1963 123.548 57.8078 123.885C58.4193 124.223 59.1189 124.365 59.813 124.292C60.5071 124.22 61.1625 123.936 61.6915 123.479L61.6905 123.483L65.7035 125.143L82.9355 131.07L85.06 129.41L78.2144 121.35Z" fill="#FFB9B9"/>
<path d="M100.403 146.953L95.2099 150.272H89.0724L60.5099 139.604L18.7281 147.19L17.5479 138.181L55.789 121.35L89.3087 132.492L100.403 146.953Z" fill="#2F2E41"/>
<path d="M89.3087 89.3461C94.3931 89.3461 98.5149 85.2067 98.5149 80.1005C98.5149 74.9944 94.3931 70.855 89.3087 70.855C84.2243 70.855 80.1025 74.9944 80.1025 80.1005C80.1025 85.2067 84.2243 89.3461 89.3087 89.3461Z" fill="#FFB9B9"/>
<path d="M113.129 117.014C113.129 122.594 112.253 128.139 110.535 133.445L109.845 135.574L106.541 150.746L103 151.694L100.403 148.375L95.21 144.582L91.4332 138.419L88.1945 132.999L87.1842 131.307L83.6433 113.527L70.1882 105.941L65.7031 105.229L66.6473 102.622L70.6603 97.1692L74.6732 96.695L75.8535 95.7468L76.7977 96.2209L82.0028 98.2346L98.8783 91.0742L101.347 91.4796L109.845 98.5916C112.018 104.489 113.13 110.726 113.129 117.014Z" fill="#CCCCCC"/>
<path opacity="0.1" d="M110.554 114.949L101.584 120.876L88.1946 132.999L87.1844 131.307L84.3516 117.083H85.0598L92.3776 103.57L110.554 114.949Z" fill="black"/>
<path d="M92.3777 102.148L85.0599 115.66L80.8109 120.402L77.0342 121.35L87.1844 132.492L101.584 119.453L110.554 113.527L92.3777 102.148Z" fill="#CCCCCC"/>
<path d="M82.1479 73.226L81.1504 73.6114C80.999 73.5085 80.8693 73.3766 80.7686 73.2232C80.668 73.0699 80.5984 72.8982 80.5638 72.7179C80.5292 72.5375 80.5303 72.3522 80.5671 72.1723C80.6039 71.9924 80.6756 71.8215 80.7781 71.6694C80.7835 71.6615 80.7889 71.6535 80.7945 71.6457L78.9512 71.5591C80.1344 69.9764 81.6389 68.6641 83.3649 67.709C85.091 66.7539 86.9993 66.1778 88.9636 66.0188C90.928 65.8598 92.9035 66.1215 94.7596 66.7866C96.6157 67.4518 98.31 68.5051 99.7304 69.8771C99.8143 69.5868 100.729 70.1515 101.103 70.7242C101.228 70.2518 102.086 72.5352 102.389 74.1492C102.53 73.6118 103.07 74.4793 102.597 75.3118C102.896 75.2678 103.032 76.0381 102.8 76.4672C103.128 76.3125 103.073 77.232 102.717 77.8465C103.185 77.8047 102.677 87.4851 95.6538 86.7798C95.1649 84.5236 95.3027 84.6638 94.7269 81.7627C94.459 81.477 94.1655 81.2169 93.8725 80.9571L92.2879 79.5524C90.4452 77.9189 88.7691 75.9029 86.3143 75.2924C84.6274 74.8728 83.5608 74.7781 84.4801 72.8691C83.6495 73.2172 82.8739 73.7348 82.0358 74.0582C82.0471 73.7914 82.1642 73.4929 82.1479 73.226Z" fill="#2F2E41"/>
<path d="M93.9112 82.8267C94.8238 82.8267 95.5636 82.0838 95.5636 81.1673C95.5636 80.2508 94.8238 79.5078 93.9112 79.5078C92.9986 79.5078 92.2588 80.2508 92.2588 81.1673C92.2588 82.0838 92.9986 82.8267 93.9112 82.8267Z" fill="#FFB9B9"/>
<path d="M16.8548 41.9744L16.3506 49.5786L23.9224 50.085L24.4266 42.4809L16.8548 41.9744Z" fill="#E6E6E6"/>
<path d="M11.9697 46.0122L21.164 46.6271L20.5517 55.8608L11.3574 55.2458L11.9697 46.0122ZM20.7377 47.0019L12.3429 46.4404L11.7838 54.8711L20.1786 55.4325L20.7377 47.0019Z" fill="#CCCCCC"/>
<path d="M59.6448 19.4259L52.2256 21.0269L53.8198 28.4778L61.239 26.8768L59.6448 19.4259Z" fill="#E6E6E6"/>
<path d="M54.4368 15.8169L56.3726 24.8645L47.3635 26.8085L45.4277 17.7609L54.4368 15.8169ZM55.8967 24.5556L54.1292 16.2948L45.9036 18.0698L47.671 26.3306L55.8967 24.5556Z" fill="#CCCCCC"/>
<path d="M51.848 55.2079L46.3096 60.4177L51.4973 65.9798L57.0357 60.77L51.848 55.2079Z" fill="#E6E6E6"/>
<path d="M57.4337 54.4285L50.7085 60.7548L44.4092 54.0008L51.1344 47.6746L57.4337 54.4285ZM50.727 60.1861L56.8674 54.41L51.1159 48.2433L44.9755 54.0194L50.727 60.1861Z" fill="#CCCCCC"/>
<path d="M338.263 0H113.738C112.927 -9.26236e-07 112.123 0.160529 111.374 0.472423C110.624 0.784318 109.942 1.24147 109.369 1.81777C108.795 2.39408 108.34 3.07826 108.029 3.83124C107.718 4.58422 107.559 5.39126 107.559 6.20628V131.842C107.559 132.657 107.718 133.464 108.029 134.217C108.34 134.97 108.795 135.654 109.369 136.231C109.942 136.807 110.624 137.264 111.374 137.576C112.123 137.888 112.927 138.048 113.738 138.048H338.263C339.902 138.048 341.474 137.395 342.633 136.231C343.792 135.067 344.443 133.488 344.443 131.842V6.20628C344.443 4.56027 343.792 2.98168 342.633 1.81778C341.474 0.653875 339.902 9.35313e-07 338.263 0Z" fill="#3F3D56"/>
<path d="M336.157 10.9683H115.844V135.779H336.157V10.9683Z" fill="white"/>
<path d="M225.812 7.56421C227.06 7.56421 228.072 6.54821 228.072 5.29492C228.072 4.04163 227.06 3.02563 225.812 3.02563C224.564 3.02563 223.553 4.04163 223.553 5.29492C223.553 6.54821 224.564 7.56421 225.812 7.56421Z" fill="white"/>
<path d="M273.151 135.779H115.844V10.9685L273.151 135.779Z" fill="#F2F2F2"/>
<path d="M150.316 126.439C162.012 126.439 171.493 116.917 171.493 105.172C171.493 93.4257 162.012 83.9038 150.316 83.9038C138.62 83.9038 129.139 93.4257 129.139 105.172C129.139 116.917 138.62 126.439 150.316 126.439Z" fill="#00BCEB"/>
<path d="M155.03 121.156C149.82 121.156 144.727 119.605 140.395 116.698C136.063 113.791 132.686 109.659 130.693 104.825C128.699 99.9913 128.177 94.6721 129.194 89.5403C130.21 84.4085 132.719 79.6947 136.403 75.9948C140.087 72.295 144.781 69.7754 149.891 68.7547C155.001 67.7339 160.297 68.2578 165.111 70.2601C169.924 72.2624 174.038 75.6533 176.933 80.0038C179.827 84.3543 181.372 89.4691 181.372 94.7014C181.372 98.1755 180.691 101.616 179.367 104.825C178.043 108.035 176.103 110.951 173.657 113.408C171.211 115.865 168.307 117.813 165.111 119.143C161.915 120.472 158.489 121.156 155.03 121.156ZM155.03 68.5921C149.888 68.5921 144.862 70.1234 140.586 72.9923C136.311 75.8613 132.979 79.939 131.011 84.7098C129.043 89.4806 128.528 94.7303 129.531 99.795C130.535 104.86 133.011 109.512 136.646 113.163C140.282 116.815 144.915 119.302 149.958 120.309C155.001 121.316 160.228 120.799 164.979 118.823C169.729 116.847 173.79 113.501 176.646 109.207C179.503 104.913 181.028 99.8653 181.028 94.7014C181.028 91.2727 180.355 87.8776 179.049 84.7098C177.742 81.5421 175.827 78.6639 173.413 76.2394C170.999 73.8149 168.133 71.8917 164.979 70.5796C161.825 69.2675 158.444 68.5922 155.03 68.5922L155.03 68.5921Z" fill="#3F3D56"/>
<path d="M285.155 75.8113H264.575V80.1299H285.155V75.8113Z" fill="#3F3D56"/>
<path d="M304.625 52.4148H245.104V54.2656H304.625V52.4148Z" fill="#3F3D56"/>
<path d="M304.625 59.6863H245.104V61.5371H304.625V59.6863Z" fill="#3F3D56"/>
<path d="M304.625 66.958H245.104V68.8088H304.625V66.958Z" fill="#3F3D56"/>
<path d="M320.569 18.4377H311.969V27.075H320.569V18.4377Z" fill="#00BCEB"/>
<path d="M324.563 31.085H314.119V20.5969H324.563V31.085ZM314.573 30.629H324.109V21.0529H314.573L314.573 30.629Z" fill="#CCCCCC"/>
<path d="M350.628 133.51H329.126V131.954C329.126 131.913 329.118 131.873 329.103 131.836C329.088 131.799 329.065 131.765 329.036 131.736C329.008 131.707 328.974 131.684 328.937 131.669C328.9 131.653 328.86 131.646 328.819 131.646H321.447C321.407 131.646 321.367 131.653 321.33 131.669C321.293 131.684 321.259 131.707 321.23 131.736C321.202 131.764 321.179 131.798 321.164 131.836C321.148 131.873 321.14 131.913 321.14 131.954V133.51H316.533V131.954C316.533 131.913 316.525 131.873 316.509 131.836C316.494 131.799 316.471 131.764 316.443 131.736C316.414 131.707 316.381 131.684 316.343 131.669C316.306 131.653 316.266 131.646 316.226 131.646H308.854C308.814 131.646 308.774 131.653 308.736 131.669C308.699 131.684 308.665 131.707 308.637 131.736C308.608 131.765 308.586 131.799 308.57 131.836C308.555 131.873 308.547 131.913 308.547 131.954V133.51H303.939V131.954C303.939 131.913 303.931 131.873 303.916 131.836C303.901 131.799 303.878 131.765 303.849 131.736C303.821 131.707 303.787 131.684 303.75 131.669C303.712 131.653 303.673 131.646 303.632 131.646H296.26C296.22 131.646 296.18 131.653 296.143 131.669C296.106 131.684 296.072 131.707 296.043 131.736C296.015 131.764 295.992 131.799 295.977 131.836C295.961 131.873 295.953 131.913 295.953 131.954V133.51H291.346V131.954C291.346 131.913 291.338 131.873 291.322 131.836C291.307 131.799 291.284 131.764 291.256 131.736C291.227 131.707 291.193 131.684 291.156 131.669C291.119 131.653 291.079 131.646 291.039 131.646H283.667C283.627 131.646 283.587 131.653 283.549 131.669C283.512 131.684 283.478 131.707 283.45 131.736C283.421 131.764 283.399 131.798 283.383 131.836C283.368 131.873 283.36 131.913 283.36 131.954V133.51H278.752V131.954C278.752 131.913 278.744 131.873 278.729 131.836C278.713 131.799 278.691 131.764 278.662 131.736C278.634 131.707 278.6 131.684 278.563 131.669C278.525 131.653 278.485 131.646 278.445 131.646H271.073C271.033 131.646 270.993 131.653 270.956 131.669C270.918 131.684 270.885 131.707 270.856 131.736C270.828 131.765 270.805 131.799 270.79 131.836C270.774 131.873 270.766 131.913 270.766 131.954V133.51H266.159V131.954C266.159 131.913 266.151 131.873 266.135 131.836C266.12 131.799 266.097 131.765 266.069 131.736C266.04 131.707 266.006 131.684 265.969 131.669C265.932 131.653 265.892 131.646 265.852 131.646H258.48C258.439 131.646 258.399 131.653 258.362 131.669C258.325 131.684 258.291 131.707 258.263 131.736C258.234 131.764 258.211 131.799 258.196 131.836C258.181 131.873 258.173 131.913 258.173 131.954V133.51H253.565V131.954C253.565 131.913 253.557 131.873 253.542 131.836C253.526 131.799 253.504 131.764 253.475 131.736C253.447 131.707 253.413 131.684 253.376 131.669C253.338 131.653 253.298 131.646 253.258 131.646H195.512C195.472 131.646 195.432 131.653 195.395 131.669C195.357 131.684 195.323 131.707 195.295 131.736C195.266 131.765 195.244 131.799 195.228 131.836C195.213 131.873 195.205 131.913 195.205 131.954V133.51H190.598V131.954C190.598 131.913 190.59 131.873 190.574 131.836C190.559 131.799 190.536 131.765 190.508 131.736C190.479 131.707 190.445 131.684 190.408 131.669C190.371 131.653 190.331 131.646 190.29 131.646H182.919C182.878 131.646 182.838 131.653 182.801 131.669C182.764 131.684 182.73 131.707 182.701 131.736C182.673 131.764 182.65 131.799 182.635 131.836C182.619 131.873 182.611 131.913 182.611 131.954V133.51H178.004V131.954C178.004 131.913 177.996 131.873 177.981 131.836C177.965 131.799 177.943 131.765 177.914 131.736C177.886 131.707 177.852 131.684 177.814 131.669C177.777 131.653 177.737 131.646 177.697 131.646H170.325C170.285 131.646 170.245 131.653 170.207 131.669C170.17 131.684 170.136 131.707 170.108 131.736C170.079 131.765 170.057 131.799 170.041 131.836C170.026 131.873 170.018 131.913 170.018 131.954V133.51H165.41V131.954C165.41 131.913 165.403 131.873 165.387 131.836C165.372 131.799 165.349 131.765 165.321 131.736C165.292 131.707 165.258 131.684 165.221 131.669C165.184 131.653 165.144 131.646 165.103 131.646H157.732C157.691 131.646 157.651 131.653 157.614 131.669C157.577 131.684 157.543 131.707 157.514 131.736C157.486 131.764 157.463 131.799 157.448 131.836C157.432 131.873 157.424 131.913 157.424 131.954V133.51H152.817V131.954C152.817 131.913 152.809 131.873 152.794 131.836C152.778 131.799 152.756 131.765 152.727 131.736C152.698 131.707 152.665 131.684 152.627 131.669C152.59 131.653 152.55 131.646 152.51 131.646H145.138C145.098 131.646 145.058 131.653 145.02 131.669C144.983 131.684 144.949 131.707 144.921 131.736C144.892 131.764 144.87 131.799 144.854 131.836C144.839 131.873 144.831 131.913 144.831 131.954V133.51H140.223V131.954C140.223 131.913 140.215 131.873 140.2 131.836C140.185 131.799 140.162 131.764 140.133 131.736C140.105 131.707 140.071 131.684 140.034 131.669C139.997 131.653 139.957 131.646 139.916 131.646H132.544C132.463 131.646 132.385 131.678 132.327 131.736C132.27 131.794 132.237 131.872 132.237 131.954V133.51H127.63V131.954C127.63 131.913 127.622 131.873 127.607 131.836C127.591 131.799 127.568 131.765 127.54 131.736C127.511 131.707 127.478 131.684 127.44 131.669C127.403 131.653 127.363 131.646 127.323 131.646H119.951C119.869 131.646 119.791 131.678 119.734 131.736C119.676 131.794 119.644 131.872 119.644 131.954V133.51H105.514C103.559 133.51 101.684 134.29 100.302 135.678C98.9193 137.067 98.1426 138.95 98.1426 140.913V144.261C98.1426 146.224 98.9193 148.107 100.302 149.496C101.684 150.884 103.559 151.664 105.514 151.664H350.628C352.583 151.664 354.458 150.884 355.84 149.496C357.223 148.107 357.999 146.224 357.999 144.261V140.913C357.999 139.941 357.809 138.978 357.438 138.08C357.068 137.182 356.525 136.366 355.84 135.678C355.156 134.991 354.343 134.445 353.449 134.073C352.554 133.701 351.596 133.51 350.628 133.51Z" fill="#3F3D56"/>
</g>
<defs>
<clipPath id="clip0">
<rect width="358" height="154" fill="white"/>
</clipPath>
</defs>
</svg>
