<svg width="879" height="666" viewBox="0 0 879 666" fill="none" xmlns="http://www.w3.org/2000/svg">
<mask id="mask0" style="mask-type:alpha" maskUnits="userSpaceOnUse" x="293" y="222" width="293" height="222">
<path d="M293 443.999H586V222H293V443.999Z" fill="white"/>
</mask>
<g mask="url(#mask0)">
<path d="M293 443.999H586V222H293V443.999Z" fill="#E8FAE9"/>
<path fill-rule="evenodd" clip-rule="evenodd" d="M334.686 443.999C336.551 429.846 342.161 418.637 351.498 410.267C361.751 401.077 375.41 396.411 392.476 396.269L393.278 396.266H441.253C469.872 396.266 493.137 399.348 511.05 405.512L511.836 405.786C514.93 406.235 517.085 408.733 519.795 409.844C522.712 411.04 532.9 419.528 533.689 420.284C536.687 423.151 544.397 431.176 557.884 443.999C545.052 443.999 340.404 443.999 334.686 443.999Z" fill="#F26B1D"/>
<path fill-rule="evenodd" clip-rule="evenodd" d="M409.376 396.266H471.346C462.001 417.487 454.981 433.398 450.285 443.999C444.9 443.999 438.352 443.999 430.64 443.999L409.376 396.266Z" fill="white"/>
<path fill-rule="evenodd" clip-rule="evenodd" d="M397.916 362.006C385.091 354.683 375.473 341.843 372.235 327.415C371.091 322.315 370.706 317.079 370.41 311.861C369.723 299.753 372.454 288.476 377.957 277.67C386.162 261.558 399.224 251.604 416.97 248.146C422.936 246.983 431.735 246.775 437.798 247.211C444.202 247.671 450.465 249.52 456.279 252.244C474.317 260.696 487.931 278.022 491.874 297.548C495.82 317.074 490.001 338.325 476.658 353.118C473.75 356.342 470.481 359.292 466.707 361.441C462.586 363.788 457.977 365.119 453.418 366.43C442.875 369.462 432.075 372.522 421.129 371.82C412.778 371.285 397.916 362.006 397.916 362.006Z" fill="#124052"/>
<path fill-rule="evenodd" clip-rule="evenodd" d="M401.852 364.032C400.802 363.549 399.769 363.03 398.756 362.476L401.852 364.032Z" fill="#124052"/>
<path fill-rule="evenodd" clip-rule="evenodd" d="M395.238 363.657C401.562 363.657 406.69 358.53 406.69 352.205C406.69 345.881 401.562 340.753 395.238 340.753C388.913 340.753 383.787 345.881 383.787 352.205C383.787 358.53 388.913 363.657 395.238 363.657Z" stroke="#124052" stroke-width="1.04071"/>
<path fill-rule="evenodd" clip-rule="evenodd" d="M413.977 398.603V339.711H457.702V398.998" fill="white"/>
<path d="M413.977 398.603V339.711H457.702V398.998" stroke="#124052" stroke-width="1.04071"/>
<path fill-rule="evenodd" clip-rule="evenodd" d="M426.47 287.658C443.719 287.658 457.702 301.642 457.702 318.891V344.918C457.702 362.167 443.719 376.149 426.47 376.149C409.222 376.149 395.238 362.167 395.238 344.918V318.891C395.238 301.642 409.222 287.658 426.47 287.658Z" fill="white"/>
<path fill-rule="evenodd" clip-rule="evenodd" d="M426.47 287.658C443.719 287.658 457.702 301.642 457.702 318.891V344.918C457.702 362.167 443.719 376.149 426.47 376.149C409.222 376.149 395.238 362.167 395.238 344.918V318.891C395.238 301.642 409.222 287.658 426.47 287.658Z" stroke="#124052" stroke-width="1.04071"/>
<path d="M457.702 363.657C464.027 363.657 469.154 358.53 469.154 352.205C469.154 345.881 464.027 340.753 457.702 340.753" stroke="white" stroke-width="1.04071"/>
<path d="M457.702 363.657C451.377 363.657 446.251 358.53 446.251 352.205C446.251 345.881 451.377 340.753 457.702 340.753" stroke="#124052" stroke-width="1.04071"/>
<path fill-rule="evenodd" clip-rule="evenodd" d="M406.771 332.656C407.922 332.656 408.854 331.724 408.854 330.574C408.854 329.424 407.922 328.492 406.771 328.492C405.622 328.492 404.689 329.424 404.689 330.574C404.689 331.724 405.622 332.656 406.771 332.656Z" fill="#124052"/>
<path fill-rule="evenodd" clip-rule="evenodd" d="M440.47 332.656C441.62 332.656 442.552 331.724 442.552 330.574C442.552 329.424 441.62 328.492 440.47 328.492C439.319 328.492 438.387 329.424 438.387 330.574C438.387 331.724 439.319 332.656 440.47 332.656Z" fill="#124052"/>
<path d="M423.347 358.452C426.762 358.333 429.444 357.387 431.393 355.615C433.342 353.844 434.477 351.319 434.799 348.041" stroke="#124052" stroke-width="1.04071"/>
<path d="M421.785 328.256V347.255" stroke="#124052" stroke-width="1.04071"/>
<path fill-rule="evenodd" clip-rule="evenodd" d="M407.21 344.918C414.972 344.918 421.264 338.625 421.264 330.863C421.264 323.101 414.972 316.809 407.21 316.809C399.448 316.809 393.156 323.101 393.156 330.863C393.156 338.625 399.448 344.918 407.21 344.918Z" stroke="#124052" stroke-width="1.04071"/>
<path fill-rule="evenodd" clip-rule="evenodd" d="M440.524 344.918C448.286 344.918 454.578 338.625 454.578 330.863C454.578 323.101 448.286 316.809 440.524 316.809C432.763 316.809 426.47 323.101 426.47 330.863C426.47 338.625 432.763 344.918 440.524 344.918Z" stroke="#124052" stroke-width="1.04071"/>
<path fill-rule="evenodd" clip-rule="evenodd" d="M457.702 339.712C464.655 336.744 467.738 332.897 466.952 328.173C466.167 323.45 463.083 321.996 457.702 323.81V339.712Z" stroke="#124052" stroke-width="1.04071"/>
<path fill-rule="evenodd" clip-rule="evenodd" d="M395.324 318.583C396.406 313.01 397.705 307.034 401.892 303.199C406.615 298.874 413.654 298.495 420.055 298.665C426.222 298.829 432.439 299.294 438.343 301.074C444.248 302.853 449.868 306.045 453.688 310.887C455.777 313.536 457.278 316.605 458.472 319.76C458.966 321.064 459.448 322.445 460.481 323.383C462.073 324.832 464.532 324.812 466.604 324.225C471.648 322.798 475.571 318.595 477.716 313.811C479.86 309.027 480.434 303.691 480.571 298.45C480.691 293.833 480.484 289.149 479.156 284.726C476.299 275.217 468.384 267.783 459.303 263.77C450.22 259.757 440.06 258.82 430.136 259.118C420.965 259.393 411.826 260.681 402.937 262.949C396.488 264.594 390.036 266.825 384.788 270.916C382.937 272.359 381.235 274.049 380.082 276.094C378.623 278.687 378.125 281.7 377.797 284.656C377.354 288.65 377.178 292.67 377.003 296.685C376.874 299.646 376.788 302.793 378.288 305.349C379.686 307.735 382.221 309.181 384.643 310.519C388.444 312.618 392.244 314.719 396.045 316.818" fill="#124052"/>
</g>
<mask id="mask1" style="mask-type:alpha" maskUnits="userSpaceOnUse" x="586" y="222" width="293" height="222">
<path d="M586 443.999H879V222H586V443.999Z" fill="white"/>
</mask>
<g mask="url(#mask1)">
<path d="M586 443.999H879V222H586V443.999Z" fill="#E6F9FC"/>
<path fill-rule="evenodd" clip-rule="evenodd" d="M685.635 340.028L690.725 344.743L663.545 443.999H800.556L773.58 344.743L788.13 332.999L765.093 298.75L702.471 294.369L685.635 329.468V340.028Z" fill="#FFD59B"/>
<path fill-rule="evenodd" clip-rule="evenodd" d="M764.645 302.799C750.774 279.924 714.174 279.849 702.604 301.374L764.645 302.799Z" fill="#FFD59B"/>
<path fill-rule="evenodd" clip-rule="evenodd" d="M716.075 319.583C714.216 319.583 712.696 321.06 712.674 322.892C712.651 324.728 714.145 326.225 716.012 326.236C717.877 326.246 719.409 324.766 719.433 322.928C719.457 321.09 717.962 319.595 716.095 319.583H716.075Z" fill="#124052"/>
<path d="M718.007 346.171C719.642 348.399 722.332 350.11 725.232 350.03C728.964 349.928 732.066 346.824 732.859 343.419L732.853 343.436C733.763 346.807 736.967 349.782 740.698 349.73C743.601 349.694 746.232 347.875 747.787 345.584" stroke="#124052" stroke-linecap="round" stroke-linejoin="round"/>
<path fill-rule="evenodd" clip-rule="evenodd" d="M733.082 335.615C729.398 335.686 726.442 337.953 726.48 340.686C726.519 343.413 729.536 345.572 733.219 345.501C736.902 345.432 739.858 343.16 739.82 340.433C739.782 337.746 736.857 335.615 733.252 335.615H733.082Z" fill="#124052"/>
<mask id="mask2" style="mask-type:alpha" maskUnits="userSpaceOnUse" x="735" y="304" width="31" height="32">
<path d="M747.39 304.717C745.997 304.717 744.622 304.937 743.314 305.4C736.248 307.903 733.74 316.543 737.715 324.697C741.688 332.852 750.639 337.434 757.709 334.929C764.775 332.426 767.283 323.787 763.306 315.632C760.07 308.99 753.528 304.717 747.392 304.717H747.39Z" fill="white"/>
</mask>
<g mask="url(#mask2)">
<path d="M747.39 304.717C745.997 304.717 744.622 304.937 743.314 305.4C736.248 307.903 733.74 316.543 737.715 324.697C741.688 332.852 750.639 337.434 757.709 334.929C764.775 332.426 767.283 323.787 763.306 315.632C760.07 308.99 753.528 304.717 747.392 304.717H747.39Z" fill="#FFAC38"/>
</g>
<path fill-rule="evenodd" clip-rule="evenodd" d="M747.997 319.583C746.13 319.595 744.636 321.09 744.659 322.928C744.681 324.766 746.214 326.246 748.08 326.236C749.948 326.225 751.442 324.728 751.418 322.892C751.397 321.06 749.876 319.583 748.017 319.583H747.997Z" fill="#124052"/>
<path fill-rule="evenodd" clip-rule="evenodd" d="M711.766 291.696C709.492 288.688 702.38 282.888 687.95 288.037C678.33 291.468 668.74 301.901 659.177 319.332L685.472 340.569" fill="#FFD59B"/>
<path fill-rule="evenodd" clip-rule="evenodd" d="M753.178 291.696C755.452 288.688 762.564 282.888 776.993 288.037C786.613 291.468 796.203 301.901 805.766 319.332L779.472 340.569" fill="#FFD59B"/>
</g>
<mask id="mask3" style="mask-type:alpha" maskUnits="userSpaceOnUse" x="0" y="444" width="293" height="222">
<path d="M0 666H293V444H0V666Z" fill="white"/>
</mask>
<g mask="url(#mask3)">
<path d="M0 666H293V444H0V666Z" fill="#E8FAE9"/>
<mask id="mask4" style="mask-type:alpha" maskUnits="userSpaceOnUse" x="27" y="502" width="210" height="164">
<path d="M177.324 502.007C180.027 502.131 182.388 503.911 183.219 506.492L230.837 629.026L231.124 629.925C234.116 639.478 236.665 652.549 236.654 666C218.738 666 162.45 666 67.7891 666V635.939L67.7878 635.51C67.7283 625.688 65.572 618.354 55.694 618.354L55.3089 618.36C47.8085 618.605 44.6989 626.026 44.6989 633.339V640.053L44.6969 640.244C44.6258 643.673 42.644 650.226 35.8454 650.226L35.4656 650.219C28.8467 649.975 27 643.361 27 640.053V625.902L27.0059 625.327C27.1659 617.478 30.5958 609.988 36.465 604.688L36.9142 604.29C42.9453 599.059 50.6574 596.622 58.6772 597.392L59.1452 597.441C73.4633 599.084 84.6059 612.035 84.6059 627.148L84.6156 627.554C84.7319 631.411 85.5107 633.339 86.9532 633.339L87.173 633.331C88.5393 633.232 89.4171 632.193 89.8065 630.211L132.4 506.492L132.5 506.208C133.447 503.688 135.876 502 138.602 502L138.907 502.007C141.74 502.138 144.18 504.087 144.9 506.845L149.915 522.686H165.713L170.719 506.845C171.469 503.989 174.06 502 177.022 502L177.324 502.007Z" fill="white"/>
</mask>
<g mask="url(#mask4)">
<path d="M177.324 502.007C180.027 502.131 182.388 503.911 183.219 506.492L230.837 629.026L231.124 629.925C234.116 639.478 236.665 652.549 236.654 666C218.738 666 162.45 666 67.7891 666V635.939L67.7878 635.51C67.7283 625.688 65.572 618.354 55.694 618.354L55.3089 618.36C47.8085 618.605 44.6989 626.026 44.6989 633.339V640.053L44.6969 640.244C44.6258 643.673 42.644 650.226 35.8454 650.226L35.4656 650.219C28.8467 649.975 27 643.361 27 640.053V625.902L27.0059 625.327C27.1659 617.478 30.5958 609.988 36.465 604.688L36.9142 604.29C42.9453 599.059 50.6574 596.622 58.6772 597.392L59.1452 597.441C73.4633 599.084 84.6059 612.035 84.6059 627.148L84.6156 627.554C84.7319 631.411 85.5107 633.339 86.9532 633.339L87.173 633.331C88.5393 633.232 89.4171 632.193 89.8065 630.211L132.4 506.492L132.5 506.208C133.447 503.688 135.876 502 138.602 502L138.907 502.007C141.74 502.138 144.18 504.087 144.9 506.845L149.915 522.686H165.713L170.719 506.845C171.469 503.989 174.06 502 177.022 502L177.324 502.007Z" fill="#FFAC37"/>
<path fill-rule="evenodd" clip-rule="evenodd" d="M189.773 533.122C191.146 533.152 192.483 533.328 193.768 533.635L203.409 558.346C199.469 562.587 194.883 566.758 188.35 566.758L187.927 566.753C177.662 566.528 170.409 562.376 170.409 552.058C170.409 541.597 178.89 533.117 189.35 533.117L189.773 533.122Z" fill="#FFD59B"/>
<path d="M156.88 575.058C156.88 578.045 154.76 580.47 152.142 580.47C149.527 580.47 147.41 578.045 147.41 575.058" stroke="#124052" stroke-width="1.35292" stroke-linecap="round" stroke-linejoin="round"/>
<path d="M167.703 575.058C167.703 578.045 165.585 580.47 162.967 580.47C160.352 580.47 158.233 578.045 158.233 575.058" stroke="#124052" stroke-width="1.35292" stroke-linecap="round" stroke-linejoin="round"/>
<path fill-rule="evenodd" clip-rule="evenodd" d="M153.993 566.94C151.75 566.94 150.624 569.497 152.211 570.995L155.776 574.362C156.76 575.289 158.354 575.289 159.336 574.362L162.902 570.995C164.489 569.497 163.367 566.94 161.124 566.94H153.993Z" fill="#004154"/>
<path fill-rule="evenodd" clip-rule="evenodd" d="M136.586 555.442C136.586 557.307 138.102 558.824 139.967 558.824C141.836 558.824 143.351 557.307 143.351 555.442C143.351 553.572 141.836 552.058 139.967 552.058C138.102 552.058 136.586 553.572 136.586 555.442Z" fill="#004154"/>
<path fill-rule="evenodd" clip-rule="evenodd" d="M173.115 555.442C173.115 557.307 174.631 558.824 176.496 558.824C178.365 558.824 179.88 557.307 179.88 555.442C179.88 553.572 178.365 552.058 176.496 552.058C174.631 552.058 173.115 553.572 173.115 555.442Z" fill="#004154"/>
<path d="M197.468 570.772L186.644 573.932" stroke="#124052" stroke-width="1.35292" stroke-linecap="round" stroke-linejoin="round"/>
<path d="M197.468 584.758L186.644 581.592" stroke="#124052" stroke-width="1.35292" stroke-linecap="round" stroke-linejoin="round"/>
<path d="M117.646 570.772L128.469 573.932" stroke="#124052" stroke-width="1.35292" stroke-linecap="round" stroke-linejoin="round"/>
<path d="M117.646 584.758L128.469 581.592" stroke="#124052" stroke-width="1.35292" stroke-linecap="round" stroke-linejoin="round"/>
</g>
</g>
<path fill-rule="evenodd" clip-rule="evenodd" d="M0 444H293V222H0V444Z" fill="#FCF4E1"/>
<mask id="mask5" style="mask-type:alpha" maskUnits="userSpaceOnUse" x="23" y="398" width="245" height="46">
<path d="M147.834 398.521C202.908 398.697 229.171 407.531 237.255 413.076L237.961 413.565C246.025 419.212 256.24 428.248 262.867 436.857L263.224 437.325C264.634 439.196 266.118 441.398 267.728 444C257.773 443.996 25.1131 443.972 23.8352 443.971C33.5122 418.311 50.7532 412.602 55.0562 411.17C59.3592 409.737 99.0487 398 146.156 398.518L147.834 398.521Z" fill="white"/>
</mask>
<g mask="url(#mask5)">
<path d="M147.834 398.521C202.908 398.697 229.171 407.531 237.255 413.076L237.961 413.565C246.025 419.212 256.24 428.248 262.867 436.857L263.224 437.325C264.634 439.196 266.118 441.398 267.728 444C257.773 443.996 25.1131 443.972 23.8352 443.971C33.5122 418.311 50.7532 412.602 55.0562 411.17C59.3592 409.737 99.0487 398 146.156 398.518L147.834 398.521Z" fill="#005BA8"/>
</g>
<path fill-rule="evenodd" clip-rule="evenodd" d="M115.146 386.195L144.431 418.39L115.146 435.829V386.195Z" fill="white" stroke="#124052"/>
<path fill-rule="evenodd" clip-rule="evenodd" d="M173.578 386.195L144.294 418.39L173.578 435.829V386.195Z" fill="white" stroke="#124052"/>
<path d="M152.171 321.415H137.146C124.996 321.415 115.146 331.264 115.146 343.415V395.415C115.146 407.565 124.996 417.415 137.146 417.415H152.171C164.321 417.415 174.171 407.565 174.171 395.415V343.415C174.171 331.264 164.321 321.415 152.171 321.415Z" fill="white" stroke="#124052"/>
<path fill-rule="evenodd" clip-rule="evenodd" d="M119.171 270.439C134.729 270.439 147.341 282.151 147.341 296.598C147.341 302.224 145.428 307.435 142.173 311.702C143.763 315.228 144.659 319.211 144.659 323.427C144.659 337.874 134.148 349.585 121.183 349.585C108.218 349.585 97.7073 337.874 97.7073 323.427C97.7073 320.425 98.1612 317.54 98.9967 314.855C94.0486 310.142 91 303.7 91 296.598C91 282.151 103.612 270.439 119.171 270.439Z" fill="white" stroke="#124052"/>
<path d="M178.195 318.732C190.79 318.732 201 307.921 201 294.585C201 281.25 190.79 270.439 178.195 270.439C165.6 270.439 155.39 281.25 155.39 294.585C155.39 307.921 165.6 318.732 178.195 318.732Z" fill="white" stroke="#124052"/>
<path fill-rule="evenodd" clip-rule="evenodd" d="M151.456 263.242C162.019 263.242 171.583 267.523 178.505 274.446C185.428 281.368 189.709 290.932 189.709 301.496L189.635 341.295C189.616 351.765 185.354 361.235 178.48 368.084C171.606 374.932 162.119 379.158 151.644 379.139C140.856 379.005 131.207 374.632 124.249 367.648C117.26 360.633 112.987 350.984 113.005 340.35L113.069 301.565C113.087 290.977 117.39 281.396 124.335 274.462C131.28 267.529 140.868 263.242 151.456 263.242Z" fill="white" stroke="#124052"/>
<path d="M154.407 318.19V337.571" stroke="#124052"/>
<path d="M135.268 316.049C136.75 316.049 137.951 314.848 137.951 313.366C137.951 311.884 136.75 310.683 135.268 310.683C133.787 310.683 132.585 311.884 132.585 313.366C132.585 314.848 133.787 316.049 135.268 316.049Z" fill="#124052"/>
<path d="M170.146 316.049C171.628 316.049 172.829 314.848 172.829 313.366C172.829 311.884 171.628 310.683 170.146 310.683C168.665 310.683 167.463 311.884 167.463 313.366C167.463 314.848 168.665 316.049 170.146 316.049Z" fill="#124052"/>
<path fill-rule="evenodd" clip-rule="evenodd" d="M112.587 333.441C112.64 333.597 112.769 312.053 112.623 312.024C106.765 312.034 102.01 315.1 102 321.014C101.99 326.928 106.728 333.451 112.587 333.441Z" fill="white" stroke="#124052"/>
<path fill-rule="evenodd" clip-rule="evenodd" d="M161.496 344.457C162.116 347.59 161.197 349.843 158.738 351.214C156.279 352.586 153.571 353.026 150.614 352.536" fill="white"/>
<path d="M161.496 344.457C162.116 347.59 161.197 349.843 158.738 351.214C156.279 352.586 153.571 353.026 150.614 352.536" stroke="#124052"/>
<path fill-rule="evenodd" clip-rule="evenodd" d="M167.463 345.561C167.463 341.116 161.457 337.512 154.049 337.512C146.64 337.512 140.634 341.116 140.634 345.561H167.463Z" fill="white" stroke="#124052"/>
<path fill-rule="evenodd" clip-rule="evenodd" d="M119.485 278.488C125.21 282.944 128.072 288.613 128.072 295.494C128.072 302.375 122.869 307.827 112.463 311.852L107.077 309.301L113.442 285.986L119.485 278.488Z" fill="white"/>
<path d="M120.147 279.829C108.764 281.907 101.285 288.312 97.7073 299.044" stroke="#124052"/>
<path d="M121.489 295.927C110.106 298.005 102.626 304.41 99.0488 315.142" stroke="#124052"/>
<path d="M119.969 278.89C125.371 283.078 128.072 288.613 128.072 295.494C128.072 302.375 122.67 307.885 111.866 312.024" stroke="#124052"/>
<path fill-rule="evenodd" clip-rule="evenodd" d="M181.719 278.218C179.704 284.06 179.2 290.32 180.207 296.998C181.215 303.676 184.345 309.936 189.598 315.779L192.87 307.565L189.28 280.862L184.651 278.218H181.719Z" fill="white"/>
<path d="M181.719 278.218C179.704 284.06 179.2 290.32 180.207 296.998C181.215 303.676 184.345 309.936 189.598 315.779" stroke="#124052"/>
<path d="M186.081 289.89C190.825 291.877 194.85 296.349 198.154 303.305" stroke="#124052"/>
<path d="M128.072 270.439C129.092 264.709 131.919 260.205 136.553 256.927C141.187 253.649 145.502 252.423 149.497 253.25" stroke="#124052"/>
<path fill-rule="evenodd" clip-rule="evenodd" d="M586 222H879V0H586V222Z" fill="#E8FAE9"/>
<path fill-rule="evenodd" clip-rule="evenodd" d="M644.123 189.315L644.124 189.618C640.107 190.668 623.665 196.204 615.303 221.598C620.806 221.604 829.497 221.605 844.308 221.598C841.839 217.845 839.784 214.845 837.965 212.487C831.878 204.596 822.402 196.304 815.119 191.317C807.837 186.328 784.012 178.356 733.87 178.356C700.441 178.356 670.526 182.009 644.123 189.315Z" fill="#FFCE73"/>
<path fill-rule="evenodd" clip-rule="evenodd" d="M757.117 221.598V179.109H703.711V221.603L757.117 221.598Z" fill="white"/>
<path fill-rule="evenodd" clip-rule="evenodd" d="M703.112 181.431L729.693 205.949L703.112 219.058V181.431Z" stroke="#124052" stroke-width="1.21377"/>
<path fill-rule="evenodd" clip-rule="evenodd" d="M756.717 181.327L730.378 205.838L756.717 219.058V181.327Z" stroke="#124052" stroke-width="1.21377"/>
<path fill-rule="evenodd" clip-rule="evenodd" d="M756.898 179.003C756.898 193.75 744.574 205.706 729.827 205.706C715.08 205.706 703.006 193.751 703.006 179.003H756.898Z" fill="white"/>
<path d="M756.717 179.003C757.401 192.355 744.574 205.707 729.827 205.707C715.08 205.707 703.112 193.751 703.112 179.003" stroke="#124052" stroke-width="1.21377"/>
<path d="M729.772 206.313L729.618 221.637" stroke="#124052" stroke-width="1.21377"/>
<path fill-rule="evenodd" clip-rule="evenodd" d="M703.116 181.08V116.042H756.522L756.717 181.08" fill="white"/>
<path d="M703.116 181.08V116.042H756.522L756.717 181.08" stroke="#124052" stroke-width="1.21377"/>
<path fill-rule="evenodd" clip-rule="evenodd" d="M737.887 49.3452C728.265 49.3452 719.551 53.2414 713.239 59.5433C706.927 65.8452 703.017 74.5527 703 84.1742L702.942 119.267C702.926 128.932 706.81 137.701 713.16 144.076C719.483 150.423 728.252 154.398 738.055 154.518C747.578 154.537 756.199 150.696 762.448 144.472C768.695 138.246 772.569 129.638 772.586 120.124L772.654 84.1135C772.654 74.5114 768.762 65.8197 762.471 59.5275C756.18 53.2365 747.488 49.3452 737.887 49.3452Z" fill="white"/>
<path fill-rule="evenodd" clip-rule="evenodd" d="M737.887 49.3452C728.265 49.3452 719.551 53.2414 713.239 59.5433C706.927 65.8452 703.017 74.5527 703 84.1742L702.942 119.267C702.926 128.932 706.81 137.701 713.16 144.076C719.483 150.423 728.252 154.398 738.055 154.518C747.578 154.537 756.199 150.696 762.448 144.472C768.695 138.246 772.569 129.638 772.586 120.124L772.654 84.1135C772.654 74.5114 768.762 65.8197 762.471 59.5275C756.18 53.2365 747.488 49.3452 737.887 49.3452Z" stroke="#124052" stroke-width="1.21377"/>
<path d="M740.558 99.2178V116.754" stroke="#124052" stroke-width="1.21377"/>
<path fill-rule="evenodd" clip-rule="evenodd" d="M771.993 116.709L771.985 120.122C771.948 138.84 756.743 153.984 738.024 153.946C737.917 153.946 737.81 153.945 737.704 153.944C718.757 153.726 703.519 138.286 703.554 119.338L703.558 116.875L771.993 116.709Z" fill="#004154"/>
<path fill-rule="evenodd" clip-rule="evenodd" d="M723.236 97.2799C724.577 97.2787 725.666 96.1899 725.668 94.8487C725.67 93.5087 724.587 92.4236 723.245 92.4248C721.905 92.426 720.815 93.5148 720.813 94.856C720.811 96.196 721.896 97.2811 723.236 97.2799Z" fill="#004154"/>
<path fill-rule="evenodd" clip-rule="evenodd" d="M754.794 97.2799C756.135 97.2787 757.223 96.1899 757.226 94.8487C757.228 93.5087 756.144 92.4236 754.803 92.4248C753.463 92.426 752.373 93.5148 752.371 94.856C752.368 96.196 753.454 97.2811 754.794 97.2799Z" fill="#004154"/>
<path fill-rule="evenodd" clip-rule="evenodd" d="M702.475 113.016C702.524 113.157 702.64 93.6654 702.508 93.6387C697.208 93.6472 692.906 96.4218 692.896 101.773C692.888 107.125 697.175 113.025 702.475 113.016Z" fill="white" stroke="#124052" stroke-width="1.21377"/>
<mask id="mask6" style="mask-type:alpha" maskUnits="userSpaceOnUse" x="728" y="120" width="14" height="11">
<path d="M731.701 129.119C734.31 130.784 737.471 130.333 741.182 127.763L728.987 120.527C728.186 124.589 729.09 127.453 731.701 129.119Z" fill="white"/>
</mask>
<g mask="url(#mask6)">
<path d="M731.701 129.119C734.31 130.784 737.471 130.333 741.182 127.763L728.987 120.527C728.186 124.589 729.09 127.453 731.701 129.119Z" fill="white"/>
</g>
<path fill-rule="evenodd" clip-rule="evenodd" d="M728.987 120.527C728.186 124.59 729.09 127.453 731.7 129.118C734.31 130.784 737.471 130.332 741.182 127.764L728.987 120.527Z" stroke="#124052" stroke-width="1.21377"/>
<path fill-rule="evenodd" clip-rule="evenodd" d="M693.783 45.9442C693.783 31.5259 701.825 20.9576 723.241 20.8132C744.656 20.6688 783.643 43.0045 783.643 56.4445C783.643 65.4045 785.962 72.3606 790.601 77.3116C778.17 83.5552 766.236 83.5552 754.799 77.3116C737.642 67.9462 734.976 58.8854 723.241 58.8854C711.506 58.8854 705.077 71.9358 703.823 78.9963C702.987 83.7033 702.987 88.2765 702.942 93.9542C699.933 93.9773 698.752 94.5313 697.634 94.8202C696.515 95.1115 695.232 95.8239 693.783 96.9588V45.9442Z" fill="#004154"/>
<path fill-rule="evenodd" clip-rule="evenodd" d="M777.254 49.9434C783.622 49.9434 788.784 44.7812 788.784 38.4126C788.784 32.044 783.622 26.8818 777.254 26.8818C770.885 26.8818 765.723 32.044 765.723 38.4126C765.723 44.7812 770.885 49.9434 777.254 49.9434Z" fill="#004154"/>
<path fill-rule="evenodd" clip-rule="evenodd" d="M793.249 76.1777C805.603 68.7555 811.419 55.75 806.241 47.131C801.062 38.5121 786.849 37.5423 774.495 44.9657C762.141 52.389 756.325 65.3933 761.503 74.0123C766.682 82.6312 780.895 83.601 793.249 76.1777Z" fill="#004154"/>
<path fill-rule="evenodd" clip-rule="evenodd" d="M293 666H586V444H293V666Z" fill="#E6F9FC"/>
<path fill-rule="evenodd" clip-rule="evenodd" d="M372 631H504C519.464 631 532 643.536 532 659V666H344V659C344 643.536 356.536 631 372 631Z" fill="#00CC96"/>
<path fill-rule="evenodd" clip-rule="evenodd" d="M484.148 562.427L499.377 627.083C484.195 656.584 465.783 666 444.913 666C424.042 666 402.937 655.584 380.309 630.825L405.561 561.414L484.148 562.427Z" fill="#124052"/>
<path fill-rule="evenodd" clip-rule="evenodd" d="M447.102 575.531C414.976 575.531 380.824 554.104 395.482 504.987C399.884 490.232 415.378 472.92 439.527 471.667C461.478 470.529 474.65 481.971 484.155 495.248C493.161 507.828 492.835 546.058 489.19 555.531C483.185 571.142 467.095 575.531 447.102 575.531Z" fill="#124052"/>
<path fill-rule="evenodd" clip-rule="evenodd" d="M447.102 575.531C414.976 575.531 380.824 554.104 395.482 504.987C399.884 490.232 415.378 472.92 439.527 471.667C461.478 470.529 474.65 481.971 484.155 495.248C493.161 507.828 492.835 546.058 489.19 555.531C483.185 571.142 467.095 575.531 447.102 575.531Z" stroke="#004154" stroke-width="1.17647"/>
<path d="M423.034 593.178L451.143 649.438" stroke="white" stroke-width="1.17647"/>
<path d="M467.613 593.178L453.495 626.091" stroke="white" stroke-width="1.17647"/>
<path fill-rule="evenodd" clip-rule="evenodd" d="M448.79 497.884C429.298 497.884 413.496 513.687 413.496 533.178V563.767C413.496 583.258 429.298 599.061 448.79 599.061C468.281 599.061 484.084 583.258 484.084 563.767V533.178C484.084 513.687 468.281 497.884 448.79 497.884Z" fill="white"/>
<path fill-rule="evenodd" clip-rule="evenodd" d="M448.79 497.884C429.298 497.884 413.496 513.687 413.496 533.178V563.767C413.496 583.258 429.298 599.061 448.79 599.061C468.281 599.061 484.084 583.258 484.084 563.767V533.178C484.084 513.687 468.281 497.884 448.79 497.884Z" stroke="#124052" stroke-width="1.17647"/>
<path fill-rule="evenodd" clip-rule="evenodd" d="M472.226 549.91C470.927 549.91 469.873 548.856 469.873 547.557C469.873 546.258 470.927 545.204 472.226 545.204C473.525 545.204 474.579 546.258 474.579 547.557C474.579 548.856 473.525 549.91 472.226 549.91Z" fill="#124052"/>
<path fill-rule="evenodd" clip-rule="evenodd" d="M434.146 549.91C432.847 549.91 431.793 548.856 431.793 547.557C431.793 546.258 432.847 545.204 434.146 545.204C435.444 545.204 436.499 546.258 436.499 547.557C436.499 548.856 435.444 549.91 434.146 549.91Z" fill="#124052"/>
<path d="M452.319 579.061C448.46 578.925 445.43 577.857 443.226 575.855C441.024 573.854 439.741 570.999 439.378 567.296" stroke="#124052" stroke-width="1.17647"/>
<path d="M454.084 544.938V566.409" stroke="#124052" stroke-width="1.17647"/>
<path fill-rule="evenodd" clip-rule="evenodd" d="M484.155 555.531C483.983 535.068 480.008 521.918 472.225 516.085C464.444 510.251 456.643 507.712 448.822 508.472C436.724 510.312 428.128 513.948 423.034 519.377C417.941 524.805 414.761 533.719 413.495 546.119L402.907 532.271L421.73 495.006L460.554 490.949L487.949 517.222V547.884L484.155 555.531Z" fill="#124052"/>
<path d="M484.084 562.426C484.462 544.095 483.162 532.07 480.18 526.351C471.775 510.236 457.746 508.472 450.031 508.472C437.786 508.472 430.731 512.122 423.006 520C417.855 525.253 414.686 533.959 413.495 546.119" stroke="#124052" stroke-width="1.17647"/>
<path d="M413.625 495.459C442.211 487.741 462.175 488.5 473.512 497.737C490.52 511.59 491.272 541.98 491.272 541.98" stroke="white" stroke-width="1.17647"/>
<path d="M448.822 490.189C432.945 492.532 421.598 498.625 414.783 508.472C407.969 518.317 402.441 532.435 398.202 550.825" stroke="white" stroke-width="1.17647"/>
<path d="M430 538.133C432.932 536.622 435.66 536.622 438.184 538.133" stroke="#124052" stroke-width="1.17647"/>
<path d="M468 538.133C470.932 536.622 473.66 536.622 476.184 538.133" stroke="#124052" stroke-width="1.17647"/>
<mask id="mask7" style="mask-type:alpha" maskUnits="userSpaceOnUse" x="586" y="444" width="293" height="222">
<path d="M586 666H879V444H586V666Z" fill="white"/>
</mask>
<g mask="url(#mask7)">
<path d="M586 666H879V444H586V666Z" fill="#FCF4E1"/>
<path fill-rule="evenodd" clip-rule="evenodd" d="M718.668 629.366L720.479 629.362C749.383 629.305 774.691 629.389 796.408 629.611V629.845L796.981 629.858C807.86 630.213 817.835 635.937 823.887 642.256L824.101 642.481C825.927 644.406 828.678 647.509 832.199 651.089L832.409 651.302C835.377 654.317 840.297 659.28 847.013 666C827.896 666 623.347 666 619.705 666C619.727 665.923 619.754 665.831 619.774 665.753L620.022 664.855C628.314 635.483 648.228 632.155 648.228 632.155C648.254 632.151 648.299 632.145 648.371 632.136L649.153 631.936C655.445 630.365 662.665 629.509 670.812 629.366C672.158 629.342 674.113 629.333 676.71 629.333L718.668 629.366Z" fill="#9B4AFF"/>
<path fill-rule="evenodd" clip-rule="evenodd" d="M773.394 536.659C780.269 549.864 786.41 542.138 800.175 553.428C813.94 564.719 813.34 581.806 810.536 590.397C808.667 596.124 808.667 601.369 810.536 606.131H796.605C796.84 600.407 796.84 596.14 796.605 593.33C796.369 590.521 795.987 587.218 795.459 583.423C795.603 589.694 795.603 594.172 795.459 596.857C795.315 599.542 794.844 602.633 794.046 606.131H783.999C784.186 602.864 784.186 600.158 783.999 598.015C783.811 595.872 783.299 592.713 782.461 588.536C783.051 594.167 783.051 598.607 782.461 601.858C781.87 605.108 781.518 606.532 781.405 606.131H667.708C666.761 604.455 666.026 602.532 665.501 600.36C664.977 598.188 664.607 594.867 664.39 590.397C663.977 594.39 663.771 597.305 663.771 599.143C663.771 600.98 663.977 603.31 664.39 606.131H650.939C647.513 587.939 647.082 576.454 649.648 571.676C654.595 562.462 663.771 568.271 668.726 555.714C673.682 543.158 659.409 512.286 679.763 497.616C700.117 482.947 715.685 496.963 729.358 497.616C743.031 498.269 742.106 490.263 756.345 501.274C770.585 512.286 766.519 523.453 773.394 536.659Z" fill="#124052"/>
<path fill-rule="evenodd" clip-rule="evenodd" d="M699.562 629.525V568.286H745.229L745.396 629.525" fill="white"/>
<path d="M699.562 629.525V568.286H745.229L745.396 629.525" stroke="#124052"/>
<path d="M749.47 511.143C760.861 511.143 770.095 501.933 770.095 490.571C770.095 479.21 760.861 470 749.47 470C738.08 470 728.845 479.21 728.845 490.571C728.845 501.933 738.08 511.143 749.47 511.143Z" fill="#004154"/>
<path d="M744.887 546.661C744.887 527.676 729.497 512.286 710.512 512.286C691.527 512.286 676.137 527.676 676.137 546.661V564.768C676.137 583.753 691.527 599.143 710.512 599.143C729.497 599.143 744.887 583.753 744.887 564.768V546.661Z" fill="white" stroke="#124052"/>
<path fill-rule="evenodd" clip-rule="evenodd" d="M744.992 543.143C739.21 539.514 734.973 536.055 732.283 532.766C729.593 529.477 726.528 524.008 723.088 516.36C714.386 524.227 704.113 529.696 692.269 532.766C681.313 535.606 674.79 535.606 672.7 532.766C680.726 522.136 687.249 515.309 692.269 512.286C697.29 509.262 705.281 507.347 716.243 506.54L744.992 505.526L751.762 536.647L744.992 543.143Z" fill="#124052"/>
<path d="M689.977 551.397C691.243 551.397 692.269 550.373 692.269 549.111C692.269 547.849 691.243 546.825 689.977 546.825C688.712 546.825 687.686 547.849 687.686 549.111C687.686 550.373 688.712 551.397 689.977 551.397Z" fill="#124052"/>
<path d="M722.483 551.397C723.748 551.397 724.774 550.373 724.774 549.111C724.774 547.849 723.748 546.825 722.483 546.825C721.217 546.825 720.191 547.849 720.191 549.111C720.191 550.373 721.217 551.397 722.483 551.397Z" fill="#124052"/>
<path d="M707.074 579.714C710.833 579.583 713.785 578.545 715.93 576.601C718.075 574.656 719.325 571.884 719.679 568.286" stroke="#124052"/>
<path d="M705.356 546.567V567.423" stroke="#124052"/>
</g>
<path fill-rule="evenodd" clip-rule="evenodd" d="M0 222H292.999V0H0V222Z" fill="#E6F9FC"/>
<path fill-rule="evenodd" clip-rule="evenodd" d="M142.531 144.828C173.699 144.828 203.391 120.299 203.391 90.0409C203.391 59.7829 180.154 35.2539 132.572 35.2539C101.405 35.2539 85.8267 59.7829 85.8267 90.0409C85.8267 120.299 111.364 144.828 142.531 144.828Z" fill="white"/>
<path fill-rule="evenodd" clip-rule="evenodd" d="M142.531 144.828C173.699 144.828 203.391 120.299 203.391 90.0409C203.391 59.7829 180.154 35.2539 132.572 35.2539C101.405 35.2539 85.8267 59.7829 85.8267 90.0409C85.8267 120.299 111.364 144.828 142.531 144.828Z" stroke="#124052"/>
<path fill-rule="evenodd" clip-rule="evenodd" d="M118.065 182.494V144.828H166.004V183.636" fill="white"/>
<path d="M118.065 182.494V144.828H166.004V183.636" stroke="#124052"/>
<path d="M127.686 45.5257C159.319 40.9607 184.43 52.7717 203.019 80.9627" stroke="#124052"/>
<path d="M125.566 51.9741C143.92 51.8631 158.477 55.5921 169.238 63.1621C194.54 80.9621 194.54 98.4271 194.54 117.834" stroke="#124052"/>
<path d="M102.902 68.354C97.0308 83.695 95.2368 101.577 97.5198 122" stroke="#124052"/>
<path fill-rule="evenodd" clip-rule="evenodd" d="M95.2366 68.354C90.0966 79.187 87.6246 90.689 87.8176 102.858L95.2366 68.354Z" fill="white"/>
<path d="M95.2366 68.354C90.0966 79.187 87.6246 90.689 87.8176 102.858" stroke="#124052"/>
<path fill-rule="evenodd" clip-rule="evenodd" d="M140.893 69.4956C159.805 69.4956 175.135 84.8256 175.135 103.737V133.414C175.135 152.325 159.805 167.656 140.893 167.656C121.982 167.656 106.652 152.325 106.652 133.414V103.737C106.652 84.8256 121.982 69.4956 140.893 69.4956Z" fill="white"/>
<path fill-rule="evenodd" clip-rule="evenodd" d="M140.893 69.4956C159.805 69.4956 175.135 84.8256 175.135 103.737V133.414C175.135 152.325 159.805 167.656 140.893 167.656C121.982 167.656 106.652 152.325 106.652 133.414V103.737C106.652 84.8256 121.982 69.4956 140.893 69.4956Z" stroke="#124052"/>
<path fill-rule="evenodd" clip-rule="evenodd" d="M106.652 125.562L110.382 90.6601H115.783C119.647 90.6601 122.54 89.1321 124.46 86.0801C127.085 89.1321 130.85 90.6601 135.757 90.6601C139.254 90.6601 142.868 89.1321 146.6 86.0801C150.325 89.1321 153.539 90.6601 156.243 90.6601C158.946 90.6601 161.881 89.1321 165.047 86.0801C165.949 94.6381 167.345 102.046 169.238 108.303C171.131 114.559 173.096 120.312 175.135 125.562C180.227 125.771 181.939 116.256 180.272 97.0181C177.772 68.1611 150.025 63.1631 135.757 63.1631C121.49 63.1631 104.658 76.7991 103.227 98.6491C102.274 113.216 103.416 122.187 106.652 125.562Z" fill="#004154"/>
<path fill-rule="evenodd" clip-rule="evenodd" d="M175.135 134.555C182.757 131.3 186.138 127.083 185.277 121.905C184.416 116.726 181.035 115.131 175.135 117.121V134.555Z" fill="white"/>
<path fill-rule="evenodd" clip-rule="evenodd" d="M175.135 134.555C182.757 131.3 186.138 127.083 185.277 121.905C184.416 116.726 181.035 115.131 175.135 117.121V134.555Z" stroke="#124052"/>
<path fill-rule="evenodd" clip-rule="evenodd" d="M100.945 68.354C116.704 68.354 129.479 55.067 129.479 38.677C129.479 22.288 116.704 9 100.945 9C85.1847 9 72.4097 22.288 72.4097 38.677C72.4097 55.067 85.1847 68.354 100.945 68.354Z" fill="white"/>
<path fill-rule="evenodd" clip-rule="evenodd" d="M100.945 68.354C116.704 68.354 129.479 55.067 129.479 38.677C129.479 22.288 116.704 9 100.945 9C85.1847 9 72.4097 22.288 72.4097 38.677C72.4097 55.067 85.1847 68.354 100.945 68.354Z" stroke="#124052"/>
<path d="M74.396 49.2173C78.727 54.1493 86.528 56.6143 97.797 56.6143C109.068 56.6143 119.149 53.0023 128.042 45.7773" stroke="#124052" stroke-linecap="round"/>
<path d="M99.5413 9.00049C106.418 27.1385 104.983 43.0095 95.2373 56.6145" stroke="#124052" stroke-linecap="round"/>
<path d="M110.956 10.9585C117.833 27.9155 116.398 42.7535 106.652 55.4735" stroke="#124052" stroke-linecap="round"/>
<path d="M122.365 19.2729C127.523 31.4479 126.447 42.1 119.137 51.233" stroke="#124052" stroke-linecap="round"/>
<path d="M77.8696 51.9741C79.0676 47.5391 82.3226 44.0181 87.6356 41.4101C92.9466 38.8011 98.0356 37.5881 102.902 37.7721" stroke="#124052"/>
<path d="M72.4097 41.484C74.2467 35.576 78.5557 31.317 85.3377 28.709C92.1197 26.1 98.2767 25.03 103.809 25.497" stroke="#124052"/>
<path d="M74.6919 27.7866C75.9489 23.3516 79.3619 19.8306 84.9329 17.2226C90.5049 14.6136 95.8409 13.4006 100.945 13.5846" stroke="#124052"/>
<path fill-rule="evenodd" clip-rule="evenodd" d="M118.156 119.97C119.417 119.97 120.438 118.949 120.438 117.688C120.438 116.427 119.417 115.405 118.156 115.405C116.895 115.405 115.873 116.427 115.873 117.688C115.873 118.949 116.895 119.97 118.156 119.97Z" fill="#124052"/>
<path fill-rule="evenodd" clip-rule="evenodd" d="M155.101 119.97C156.362 119.97 157.383 118.949 157.383 117.688C157.383 116.427 156.362 115.405 155.101 115.405C153.84 115.405 152.818 116.427 152.818 117.688C152.818 118.949 153.84 119.97 155.101 119.97Z" fill="#124052"/>
<path d="M137.469 148.252C141.213 148.121 144.154 147.084 146.29 145.142C148.427 143.199 149.672 140.432 150.025 136.838" stroke="#124052"/>
<path d="M135.757 115.147V135.977" stroke="#124052"/>
<path fill-rule="evenodd" clip-rule="evenodd" d="M50.0237 222C55.0237 214 55.2334 211.916 64.8414 204.05C72.6954 197.62 88.2964 194.216 98.5334 193.555C101.298 193.376 108.428 193.05 116.924 192.741V182.494H167.145V192.849C181.263 193.937 202.303 195.758 210.609 198.15C234.979 205.168 234.616 205 241.616 222H50.0237Z" fill="#44CF50"/>
<path fill-rule="evenodd" clip-rule="evenodd" d="M293 222H585.999V0H293V222Z" fill="#FCF4E1"/>
<path fill-rule="evenodd" clip-rule="evenodd" d="M445.879 28.9191C478.361 36.9778 483.34 55.7715 483.34 87.5141C483.34 92.3966 479.487 134.702 494.263 150.836C509.03 166.959 532.815 156.172 549.464 173.049C559.193 182.912 561.96 195.118 558.011 209.522C554.704 206.2 552.25 203.531 550.405 201.654C546.539 197.722 543.555 194.338 541.631 192.328C535.129 185.54 524.341 179.404 512.622 179.227V178.981L511.183 178.966C488.101 178.737 461.226 178.655 430.557 178.72C401.853 178.782 385.743 178.62 380.039 178.72C371.079 178.878 363.183 179.853 356.349 181.646L356.197 181.664C356.197 181.664 349.421 183.035 341.829 189.96C341.327 183.637 345.276 177.682 347.449 173.049C360.986 144.176 374.951 165.207 374.951 129.456V74.9245C374.951 57.7217 381.396 48.2878 401.327 46.6255C409.373 29.4482 424.224 23.5467 445.879 28.9191Z" fill="#124052"/>
<path fill-rule="evenodd" clip-rule="evenodd" d="M409.445 179.893V111.863H456.362V179.893" fill="white"/>
<path d="M409.445 179.893V111.863H456.362V179.893" stroke="#124052" stroke-width="0.963406"/>
<path fill-rule="evenodd" clip-rule="evenodd" d="M422.364 55.562C441.14 55.562 456.362 71.3162 456.362 90.7503V120.073C456.362 139.507 441.14 155.261 422.364 155.261C403.588 155.261 388.366 139.507 388.366 120.073V90.7503C388.366 71.3162 403.588 55.562 422.364 55.562Z" fill="white"/>
<path fill-rule="evenodd" clip-rule="evenodd" d="M422.364 55.562C441.14 55.562 456.362 71.3162 456.362 90.7503V120.073C456.362 139.507 441.14 155.261 422.364 155.261C403.588 155.261 388.366 139.507 388.366 120.073V90.7503C388.366 71.3162 403.588 55.562 422.364 55.562Z" stroke="#124052" stroke-width="0.963406"/>
<path fill-rule="evenodd" clip-rule="evenodd" d="M437.81 98.4127C424.449 92.5483 420.65 82.9006 414.968 77.2256C409.285 71.5496 403.097 69.6882 397.525 72.5686C388.23 77.3749 388.333 95.7929 385.228 88.7748C383.157 84.0954 383.157 71.8737 385.228 52.1087L455.199 49.6978L464.696 90.3599C455.679 99.6387 446.717 102.323 437.81 98.4127Z" fill="#124052"/>
<path fill-rule="evenodd" clip-rule="evenodd" d="M398.981 106.259C400.277 106.259 401.327 105.209 401.327 103.913C401.327 102.618 400.277 101.567 398.981 101.567C397.685 101.567 396.636 102.618 396.636 103.913C396.636 105.209 397.685 106.259 398.981 106.259Z" fill="#124052"/>
<path fill-rule="evenodd" clip-rule="evenodd" d="M436.946 106.259C438.242 106.259 439.292 105.209 439.292 103.913C439.292 102.618 438.242 101.567 436.946 101.567C435.652 101.567 434.601 102.618 434.601 103.913C434.601 105.209 435.652 106.259 436.946 106.259Z" fill="#124052"/>
<path d="M417.655 135.322C421.503 135.187 424.525 134.122 426.72 132.127C428.916 130.131 430.196 127.285 430.558 123.592" stroke="#124052" stroke-width="0.976096"/>
<path d="M415.896 101.302V122.708" stroke="#124052" stroke-width="0.976096"/>
<path fill-rule="evenodd" clip-rule="evenodd" d="M456.362 114.209C464.194 110.864 467.668 106.531 466.784 101.209C465.9 95.8864 462.425 94.2485 456.362 96.2935V114.209Z" fill="white"/>
<path fill-rule="evenodd" clip-rule="evenodd" d="M456.362 114.209C464.194 110.864 467.668 106.531 466.784 101.209C465.9 95.8864 462.425 94.2485 456.362 96.2935V114.209Z" stroke="#124052" stroke-width="0.963406"/>
<path fill-rule="evenodd" clip-rule="evenodd" d="M326.083 222C332.915 185.884 356.197 181.664 356.197 181.664C356.197 181.664 356.247 181.658 356.349 181.646C363.183 179.852 371.079 178.877 380.039 178.719C385.743 178.62 401.853 178.782 430.557 178.719C461.865 178.653 489.22 178.74 512.621 178.981V179.227C524.341 179.403 535.129 185.54 541.631 192.328C543.555 194.338 546.538 197.722 550.405 201.654C557.675 209.046 562.986 215.167 570.795 222H326.083Z" fill="#1DC4F2"/>
</svg>
