<svg width="413" height="218" viewBox="0 0 413 218" fill="none" xmlns="http://www.w3.org/2000/svg">
<path opacity="0.3" d="M0 207.958L229.091 208.215" stroke="#19B0DE" stroke-width="1.2" stroke-miterlimit="10"/>
<path opacity="0.3" d="M288.24 208.015L402.493 208.158" stroke="#19B0DE" stroke-width="1.2" stroke-miterlimit="10"/>
<path opacity="0.3" d="M37.7436 207.548C53.1557 207.548 65.6498 195.084 65.6498 179.71C65.6498 164.336 53.1557 151.872 37.7436 151.872C22.3314 151.872 9.8374 164.336 9.8374 179.71C9.8374 195.084 22.3314 207.548 37.7436 207.548Z" fill="#6CBD45"/>
<path opacity="0.4" d="M44.1774 140.114H31.7778C30.8116 140.114 30.0283 140.895 30.0283 141.859V141.868C30.0283 142.832 30.8116 143.613 31.7778 143.613H44.1774C45.1436 143.613 45.9269 142.832 45.9269 141.868V141.859C45.9269 140.895 45.1436 140.114 44.1774 140.114Z" fill="#6CBD45"/>
<path opacity="0.4" d="M37.7436 151.872C39.1676 151.871 40.5897 151.976 41.9979 152.187V143.604H33.9482V152.13C35.2064 151.962 36.4742 151.876 37.7436 151.872Z" fill="#6CBD45"/>
<path opacity="0.3" d="M115.803 200.252C127.598 200.252 137.16 190.714 137.16 178.947C137.16 167.181 127.598 157.642 115.803 157.642C104.007 157.642 94.4453 167.181 94.4453 178.947C94.4453 190.714 104.007 200.252 115.803 200.252Z" stroke="#19B0DE" stroke-width="1.2" stroke-miterlimit="10"/>
<g opacity="0.4">
<path opacity="0.4" d="M212.676 41.0079C212.628 34.5802 212.533 21.7628 212.533 16.8037C212.533 6.67573 206.118 0.37195 195.783 0.37195H160.315C159.885 0.371525 159.46 0.45553 159.063 0.619165C158.666 0.7828 158.305 1.02286 158.001 1.32562L150.774 8.58307L142.543 0.877396C141.923 0.300739 141.104 -0.0135856 140.257 0.000646126C139.409 0.0148779 138.601 0.356555 138.001 0.95369L130.545 8.39234L123.699 1.5545C123.084 0.944806 122.253 0.602057 121.386 0.600831H110.076C98.4701 0.600831 91.2617 8.11577 91.2617 20.2274V44.9657H97.8009V20.1702C97.8009 9.33647 104.493 7.05719 110.076 7.05719H120.028L128.241 15.2492C128.865 15.8367 129.691 16.1639 130.549 16.1639C131.408 16.1639 132.234 15.8367 132.858 15.2492L140.382 7.7343L148.623 15.44C149.242 16.0217 150.064 16.3394 150.914 16.3251C151.764 16.3108 152.575 15.9659 153.173 15.3637L161.682 6.78063H195.783C202.561 6.78063 206.003 10.1185 206.003 16.6988C206.003 21.6675 206.089 34.4467 206.137 40.903L212.676 41.0079Z" fill="#6CBD45"/>
<path opacity="0.4" d="M97.7913 51.4984H91.2617V86.8605H97.7913V51.4984Z" fill="#6CBD45"/>
</g>
<path opacity="0.3" d="M334.301 207.758V53.2054C334.311 49.7326 332.939 46.3975 330.488 43.932C328.036 41.4665 324.704 40.0719 321.222 40.0543H318.612" stroke="#19B0DE" stroke-width="1.2" stroke-miterlimit="10"/>
<path opacity="0.3" d="M223.708 40.0543H199.387C195.912 40.0744 192.587 41.4662 190.138 43.9252C187.689 46.3843 186.316 49.7105 186.318 53.1768V130.939C189.733 135.444 191.58 140.937 191.58 146.584C191.58 152.232 189.733 157.725 186.318 162.229V207.758" stroke="#19B0DE" stroke-width="1.2" stroke-miterlimit="10"/>
<path opacity="0.3" d="M318.622 40.0829H295.964" stroke="#19B0DE" stroke-width="1.2" stroke-miterlimit="10"/>
<path d="M27.0169 172.205C28.6906 172.205 30.0475 170.851 30.0475 169.181C30.0475 167.512 28.6906 166.158 27.0169 166.158C25.3432 166.158 23.9863 167.512 23.9863 169.181C23.9863 170.851 25.3432 172.205 27.0169 172.205Z" fill="#6CBD45"/>
<path d="M36.8925 165.147C37.7848 165.147 38.5082 164.426 38.5082 163.536C38.5082 162.646 37.7848 161.924 36.8925 161.924C36.0002 161.924 35.2769 162.646 35.2769 163.536C35.2769 164.426 36.0002 165.147 36.8925 165.147Z" fill="#6CBD45"/>
<path d="M44.8852 170.793C45.7775 170.793 46.5009 170.072 46.5009 169.182C46.5009 168.291 45.7775 167.57 44.8852 167.57C43.9929 167.57 43.2695 168.291 43.2695 169.182C43.2695 170.072 43.9929 170.793 44.8852 170.793Z" fill="#6CBD45"/>
<path d="M87.2748 139.103C89.825 139.103 91.8924 137.04 91.8924 134.496C91.8924 131.952 89.825 129.89 87.2748 129.89C84.7246 129.89 82.6572 131.952 82.6572 134.496C82.6572 137.04 84.7246 139.103 87.2748 139.103Z" stroke="#25B5E9" stroke-width="1.2" stroke-miterlimit="10"/>
<path d="M154.636 109.73C157.186 109.73 159.254 107.667 159.254 105.123C159.254 102.579 157.186 100.517 154.636 100.517C152.086 100.517 150.019 102.579 150.019 105.123C150.019 107.667 152.086 109.73 154.636 109.73Z" stroke="#25B5E9" stroke-width="1.2" stroke-miterlimit="10"/>
<path d="M165.917 172.586C180.115 172.586 191.624 161.105 191.624 146.942C191.624 132.779 180.115 121.298 165.917 121.298C151.719 121.298 140.209 132.779 140.209 146.942C140.209 161.105 151.719 172.586 165.917 172.586Z" stroke="#25B5E9" stroke-width="1.2" stroke-miterlimit="10"/>
<path opacity="0.3" d="M165.879 153.599C169.548 153.599 172.523 150.631 172.523 146.971C172.523 143.31 169.548 140.343 165.879 140.343C162.209 140.343 159.234 143.31 159.234 146.971C159.234 150.631 162.209 153.599 165.879 153.599Z" fill="#19B0DE"/>
<path d="M130.162 200.233L176.797 170.269" stroke="#25B5E9" stroke-width="1.2" stroke-miterlimit="10"/>
<path d="M101.998 157.28L152.456 124.979" stroke="#25B5E9" stroke-width="1.2" stroke-miterlimit="10"/>
<path opacity="0.7" d="M86.6536 172.424C86.0714 171.842 85.3408 171.43 84.5408 171.232C83.909 171.018 83.3335 170.666 82.8569 170.2C82.3802 169.735 82.0148 169.168 81.7875 168.543C81.5993 167.714 81.1781 166.957 80.5733 166.359C80.1459 165.933 79.6385 165.595 79.0802 165.365C78.5219 165.135 77.9236 165.017 77.3195 165.017C76.7154 165.017 76.1173 165.137 75.5593 165.368C75.0014 165.599 74.4945 165.937 74.0676 166.363C73.6408 166.79 73.3023 167.296 73.0715 167.853C72.8408 168.41 72.7222 169.007 72.7227 169.609C72.7231 170.212 72.8425 170.809 73.0741 171.365C73.3057 171.922 73.6449 172.427 74.0724 172.853C74.6886 173.466 75.4684 173.89 76.3191 174.074C76.9289 174.25 77.485 174.576 77.9374 175.02C78.3897 175.465 78.7239 176.015 78.9099 176.62C79.0885 177.492 79.5208 178.291 80.1527 178.919C81.016 179.778 82.1865 180.261 83.4065 180.26C84.6266 180.259 85.7963 179.775 86.6584 178.914C87.5205 178.053 88.0043 176.885 88.0034 175.668C88.0025 174.451 87.517 173.284 86.6536 172.424Z" fill="#FAA93B"/>
<path d="M82.8773 169.925L78.145 175.247" stroke="#25B5E9" stroke-width="1.2" stroke-miterlimit="10"/>
<path d="M80.6401 175.333C80.834 176.133 81.265 176.857 81.8772 177.41C82.4894 177.963 83.2543 178.319 84.0722 178.432" stroke="#FAA93B" stroke-width="1.12" stroke-linecap="round" stroke-linejoin="round"/>
<path d="M81.7969 174.207L85.2385 177.307" stroke="#FAA93B" stroke-width="1.12" stroke-linecap="round" stroke-linejoin="round"/>
<path d="M82.2656 178.594L85.0859 175.476" stroke="#FAA93B" stroke-width="1.12" stroke-linecap="round" stroke-linejoin="round"/>
<path d="M80.7168 177.049L83.4223 174.055" stroke="#FAA93B" stroke-width="1.12" stroke-linecap="round" stroke-linejoin="round"/>
<path opacity="0.3" d="M372.541 16.3173C374.546 16.3148 376.47 17.1055 377.891 18.5161C379.313 19.9267 380.115 21.8419 380.123 23.8418V62.4274C380.123 64.4306 379.325 66.3518 377.905 67.7682C376.485 69.1847 374.559 69.9805 372.551 69.9805C371.555 69.9805 370.57 69.7849 369.65 69.4048C368.73 69.0248 367.894 68.4677 367.19 67.7654C366.486 67.0632 365.928 66.2295 365.547 65.312C365.166 64.3944 364.97 63.411 364.97 62.4179V23.8418C364.98 21.8443 365.782 19.932 367.2 18.5222C368.619 17.1125 370.539 16.3198 372.541 16.3173Z" fill="#19B0DE"/>
<path d="M254.014 118.818L246.05 78.2012C249.989 78.2012 258.373 76.4083 262.494 72.3838C269.138 65.8797 267.217 54.8362 258.937 54.8362C251.146 54.8362 248.555 66.8525 256.633 72.8797C260.457 75.7407 268.698 77.5431 273.717 78.2012L266.165 118.789" stroke="#25B5E9" stroke-width="1.2" stroke-miterlimit="10"/>
<path opacity="0.3" d="M287.179 162.763V208.063H321.987L321.786 163.164C321.776 159.683 320.386 156.348 317.92 153.886C315.454 151.424 312.111 150.035 308.622 150.022H293.01V123.024C292.998 119.545 291.607 116.212 289.141 113.752C286.674 111.292 283.333 109.904 279.846 109.892H276.089V118.99H242.963V109.892H239.339C235.851 109.902 232.509 111.289 230.042 113.749C227.575 116.21 226.185 119.544 226.175 123.024V150.022H210.946C207.456 150.035 204.114 151.424 201.648 153.886C199.181 156.348 197.791 159.683 197.781 163.164V208.063H228.68L228.355 163.078C228.355 163.078 228.23 158.863 232.504 158.863H290.18C289.305 159.066 288.527 159.565 287.979 160.277C287.432 160.988 287.149 161.867 287.179 162.763ZM244.827 142.879C243.385 142.881 241.976 142.456 240.776 141.659C239.577 140.861 238.641 139.726 238.089 138.398C237.536 137.069 237.391 135.607 237.672 134.197C237.953 132.786 238.647 131.491 239.666 130.474C240.686 129.457 241.984 128.765 243.398 128.484C244.813 128.204 246.278 128.349 247.61 128.9C248.941 129.451 250.079 130.384 250.878 131.581C251.678 132.777 252.104 134.184 252.102 135.622C252.1 137.546 251.332 139.39 249.969 140.751C248.605 142.111 246.756 142.877 244.827 142.879ZM273.039 142.879C271.598 142.879 270.189 142.453 268.991 141.654C267.793 140.855 266.859 139.719 266.308 138.391C265.757 137.063 265.613 135.601 265.895 134.191C266.177 132.781 266.871 131.486 267.891 130.47C268.911 129.454 270.21 128.763 271.624 128.484C273.037 128.204 274.502 128.35 275.833 128.901C277.164 129.453 278.301 130.386 279.101 131.582C279.9 132.778 280.326 134.184 280.324 135.622C280.324 136.576 280.135 137.52 279.769 138.401C279.403 139.282 278.866 140.083 278.19 140.757C277.513 141.431 276.71 141.965 275.826 142.33C274.942 142.694 273.995 142.881 273.039 142.879Z" fill="#19B0DE"/>
<path d="M254.999 129.108L264.846 142.879" stroke="#25B5E9" stroke-width="1.2" stroke-miterlimit="10"/>
<path opacity="0.3" d="M358.66 197.792C361.712 197.792 364.186 195.324 364.186 192.279C364.186 189.235 361.712 186.767 358.66 186.767C355.608 186.767 353.134 189.235 353.134 192.279C353.134 195.324 355.608 197.792 358.66 197.792Z" fill="#19B0DE"/>
<path d="M349.903 36.2968H328.736C325.338 36.3195 322.086 37.6835 319.693 40.0907C317.3 42.4979 315.959 45.7524 315.964 49.1428V81.787C314.618 82.4817 313.548 83.6117 312.929 84.992C312.311 86.3723 312.18 87.9212 312.559 89.3852C312.938 90.8492 313.804 92.1415 315.015 93.0506C316.226 93.9596 317.711 94.4317 319.226 94.3894C320.741 94.3472 322.197 93.7931 323.355 92.8179C324.513 91.8428 325.306 90.5042 325.602 89.0214C325.898 87.5386 325.681 85.9994 324.986 84.6557C324.291 83.312 323.16 82.2434 321.777 81.6249V58.3076C321.772 57.342 321.966 56.3858 322.347 55.4979C322.727 54.6099 323.285 53.8089 323.987 53.1443C324.689 52.4796 325.52 51.9653 326.429 51.6331C327.338 51.3008 328.305 51.1576 329.272 51.2122H350.209C358.249 51.2122 363.363 58.8416 363.363 60.2435V25.9113C363.363 27.1702 356.891 36.2968 349.903 36.2968Z" fill="#25B5E9"/>
<path d="M59.8754 180.292C60.0762 180.215 60.8315 179.252 60.994 179.176C51.6346 173.95 42.8296 174.408 33.6519 178.642C42.6767 182.151 48.9004 184.402 59.8754 180.292Z" fill="#FAA93B"/>
<path opacity="0.5" d="M38.2601 196.6C39.9338 196.6 41.2906 195.246 41.2906 193.576C41.2906 191.907 39.9338 190.553 38.2601 190.553C36.5863 190.553 35.2295 191.907 35.2295 193.576C35.2295 195.246 36.5863 196.6 38.2601 196.6Z" fill="#19B0DE"/>
<path opacity="0.5" d="M22.2563 187.406C23.1486 187.406 23.872 186.685 23.872 185.795C23.872 184.904 23.1486 184.183 22.2563 184.183C21.364 184.183 20.6406 184.904 20.6406 185.795C20.6406 186.685 21.364 187.406 22.2563 187.406Z" fill="#19B0DE"/>
<path d="M37.5428 179.157C29.0821 175.523 21.8928 174.856 13.0687 179.157C13.0051 182.336 13.5778 185.496 14.7535 188.452C15.9291 191.408 17.684 194.1 19.9155 196.371C22.1469 198.642 24.81 200.446 27.749 201.677C30.6879 202.909 33.8436 203.543 37.0314 203.543C40.2191 203.543 43.3748 202.909 46.3137 201.677C49.2527 200.446 51.9158 198.642 54.1472 196.371C56.3787 194.1 58.1336 191.408 59.3092 188.452C60.4849 185.496 61.0576 182.336 60.9939 179.157C52.6575 182.6 44.7608 183.267 37.5428 179.157ZM22.3804 187.435C22.0629 187.453 21.7472 187.377 21.4728 187.216C21.1984 187.056 20.9776 186.818 20.838 186.533C20.6985 186.248 20.6463 185.928 20.6881 185.614C20.7299 185.299 20.8638 185.004 21.073 184.765C21.2822 184.526 21.5575 184.354 21.8642 184.271C22.171 184.187 22.4957 184.196 22.7976 184.296C23.0995 184.395 23.3651 184.582 23.5613 184.831C23.7575 185.081 23.8755 185.383 23.9004 185.699C23.916 185.913 23.889 186.128 23.8208 186.331C23.7527 186.534 23.6448 186.722 23.5034 186.883C23.3621 187.045 23.19 187.177 22.9973 187.271C22.8045 187.366 22.5948 187.422 22.3804 187.435ZM38.4988 196.628C37.9013 196.675 37.3032 196.545 36.7801 196.253C36.257 195.961 35.8324 195.521 35.56 194.988C35.2877 194.456 35.1798 193.854 35.25 193.26C35.3202 192.667 35.5653 192.107 35.9544 191.652C36.3435 191.197 36.8591 190.868 37.4359 190.705C38.0128 190.543 38.6249 190.554 39.1951 190.739C39.7652 190.924 40.2677 191.273 40.639 191.742C41.0102 192.211 41.2336 192.78 41.2809 193.376C41.3442 194.175 41.0867 194.967 40.565 195.577C40.0433 196.187 39.3001 196.565 38.4988 196.628Z" fill="#25B5E9"/>
<path d="M145.143 166.893C145.809 168.617 146.258 170.418 146.481 172.252" stroke="#25B5E9" stroke-width="1.2" stroke-linecap="round" stroke-linejoin="round"/>
<path d="M142.638 166.263C143.349 167.853 143.857 169.525 144.148 171.241" stroke="#25B5E9" stroke-width="1.2" stroke-linecap="round" stroke-linejoin="round"/>
<path d="M88.9096 193.424C87.8661 191.895 87.0183 190.242 86.3857 188.503" stroke="#25B5E9" stroke-width="1.2" stroke-linecap="round" stroke-linejoin="round"/>
<path d="M91.5196 193.51C90.4663 192.119 89.5896 190.604 88.9097 188.999" stroke="#25B5E9" stroke-width="1.2" stroke-linecap="round" stroke-linejoin="round"/>
<path d="M106.395 182.247L104.148 182.085L106.309 181.15" stroke="#FAA93B" stroke-width="1.2" stroke-linecap="round" stroke-linejoin="round"/>
<path d="M48.3938 35.8581H34.0535C32.439 35.8531 30.892 35.2118 29.7495 34.0739C28.607 32.9359 27.9617 31.3937 27.9541 29.7832C27.9591 28.1711 28.6034 26.6264 29.7461 25.4864C30.8889 24.3465 32.4374 23.7038 34.0535 23.6988H48.3938C54.2829 23.6988 66.9597 29.0298 66.9597 29.7832C66.9597 30.5366 54.9616 35.8581 48.3938 35.8581Z" fill="#25B5E9"/>
<path d="M103.107 35.8581H117.447C119.061 35.8531 120.608 35.2118 121.751 34.0739C122.893 32.9359 123.539 31.3937 123.546 29.7832C123.541 28.1711 122.897 26.6264 121.754 25.4864C120.612 24.3465 119.063 23.7038 117.447 23.6988H103.107C97.2176 23.6988 84.5312 29.0298 84.5312 29.7832C84.5312 30.5366 96.558 35.8581 103.107 35.8581Z" fill="#25B5E9"/>
<path d="M75.7451 38.9003V84.648" stroke="#25B5E9" stroke-width="1.2" stroke-miterlimit="10"/>
<path opacity="0.3" d="M75.7453 32.8635C78.9661 32.8635 81.577 31.4673 81.577 29.745C81.577 28.0227 78.9661 26.6265 75.7453 26.6265C72.5245 26.6265 69.9136 28.0227 69.9136 29.745C69.9136 31.4673 72.5245 32.8635 75.7453 32.8635Z" fill="#19B0DE"/>
<path d="M75.7455 24.8432C77.1658 24.8432 78.3172 23.6946 78.3172 22.2778C78.3172 20.861 77.1658 19.7124 75.7455 19.7124C74.3252 19.7124 73.1738 20.861 73.1738 22.2778C73.1738 23.6946 74.3252 24.8432 75.7455 24.8432Z" fill="#25B5E9"/>
<path d="M75.7455 39.5584C77.1658 39.5584 78.3172 38.4098 78.3172 36.993C78.3172 35.5762 77.1658 34.4276 75.7455 34.4276C74.3252 34.4276 73.1738 35.5762 73.1738 36.993C73.1738 38.4098 74.3252 39.5584 75.7455 39.5584Z" fill="#25B5E9"/>
<path d="M71.8828 86.8605C71.8828 85.8374 72.2902 84.8562 73.0155 84.1328C73.7407 83.4093 74.7243 83.0029 75.7499 83.0029C76.7755 83.0029 77.7591 83.4093 78.4844 84.1328C79.2096 84.8562 79.617 85.8374 79.617 86.8605" fill="#25B5E9"/>
<path opacity="0.3" d="M20.5068 151.567C23.0676 151.567 25.1435 149.496 25.1435 146.942C25.1435 144.387 23.0676 142.317 20.5068 142.317C17.946 142.317 15.8701 144.387 15.8701 146.942C15.8701 149.496 17.946 151.567 20.5068 151.567Z" fill="#6CBD45"/>
<path opacity="0.3" d="M11.4341 139.694C12.9019 139.694 14.0918 138.507 14.0918 137.043C14.0918 135.579 12.9019 134.392 11.4341 134.392C9.96627 134.392 8.77637 135.579 8.77637 137.043C8.77637 138.507 9.96627 139.694 11.4341 139.694Z" fill="#6CBD45"/>
<path opacity="0.3" d="M18.0307 90.7419C19.6146 90.7419 20.8987 89.461 20.8987 87.8809C20.8987 86.3008 19.6146 85.0199 18.0307 85.0199C16.4467 85.0199 15.1626 86.3008 15.1626 87.8809C15.1626 89.461 16.4467 90.7419 18.0307 90.7419Z" fill="#6CBD45"/>
<g opacity="0.4">
<g opacity="0.5">
<path opacity="0.5" d="M165.114 86.8891V60.9588C165.114 50.8022 159.177 44.9752 148.862 44.9752H53.0399C41.0992 44.9752 35.0476 51.2885 35.0476 63.7435V75.0254C35.0464 75.4906 35.1448 75.9507 35.336 76.375C35.5272 76.7993 35.807 77.178 36.1566 77.4859L43.8047 84.1616L35.5543 91.4954C35.2153 91.783 34.9394 92.1372 34.7437 92.5359C34.5479 92.9346 34.4366 93.3693 34.4166 93.8128C34.405 94.257 34.4838 94.699 34.6481 95.112C34.8124 95.5251 35.0589 95.9006 35.3727 96.216L43.2503 104.074L35.7742 111.58C35.469 111.882 35.2272 112.241 35.063 112.638C34.8989 113.034 34.8156 113.459 34.8182 113.888V140.075H41.3478V115.223L50.2101 106.382C50.5136 106.079 50.7542 105.719 50.9183 105.323C51.0823 104.927 51.1665 104.503 51.1661 104.074C51.1628 103.21 50.8195 102.381 50.2101 101.766L42.4759 94.0512L50.908 86.5553C51.257 86.251 51.5368 85.8757 51.7285 85.4546C51.9202 85.0335 52.0193 84.5764 52.0193 84.1139C52.0193 83.6515 51.9202 83.1944 51.7285 82.7733C51.5368 82.3522 51.257 81.9769 50.908 81.6725L41.5963 73.5473V63.7435C41.5963 54.9316 44.8086 51.4983 53.0686 51.4983H148.823C155.573 51.4983 158.575 54.4166 158.575 60.9588V86.8891" fill="#6CBD45"/>
</g>
<path opacity="0.3" d="M27.5429 84.8674C30.204 84.8674 32.3613 82.7155 32.3613 80.0609C32.3613 77.4063 30.204 75.2544 27.5429 75.2544C24.8818 75.2544 22.7246 77.4063 22.7246 80.0609C22.7246 82.7155 24.8818 84.8674 27.5429 84.8674Z" fill="#6CBD45"/>
</g>
<path opacity="0.3" d="M380.017 82.9982C381.601 82.9982 382.885 81.7172 382.885 80.1371C382.885 78.557 381.601 77.2761 380.017 77.2761C378.433 77.2761 377.149 78.557 377.149 80.1371C377.149 81.7172 378.433 82.9982 380.017 82.9982Z" fill="#19B0DE"/>
<path opacity="0.3" d="M388.746 77.114C391.407 77.114 393.564 74.962 393.564 72.3075C393.564 69.6529 391.407 67.501 388.746 67.501C386.085 67.501 383.928 69.6529 383.928 72.3075C383.928 74.962 386.085 77.114 388.746 77.114Z" fill="#19B0DE"/>
<path d="M128.756 183.105L129.062 181.198C129.086 181.049 129.167 180.915 129.289 180.826C129.411 180.737 129.563 180.699 129.712 180.721C129.786 180.731 129.857 180.756 129.92 180.794C129.984 180.832 130.04 180.882 130.084 180.941C130.129 181.001 130.161 181.068 130.179 181.14C130.197 181.212 130.201 181.287 130.19 181.36L129.779 184.221" fill="#FAA93B"/>
<path d="M128.756 183.105L129.062 181.198C129.086 181.049 129.167 180.915 129.289 180.826C129.411 180.737 129.563 180.699 129.712 180.721V180.721C129.786 180.731 129.857 180.756 129.92 180.794C129.984 180.832 130.04 180.882 130.084 180.941C130.129 181.001 130.161 181.068 130.179 181.14C130.197 181.212 130.201 181.287 130.19 181.36L129.779 184.221" stroke="#FAA93B" stroke-width="1.2" stroke-miterlimit="10"/>
<path d="M110.726 179.386C110.956 177.908 111.682 176.859 113.804 177.126L115.497 177.374C115.758 177.416 115.991 177.558 116.149 177.77C116.306 177.982 116.374 178.247 116.338 178.508L116.099 180.053C116.006 180.757 115.648 181.399 115.097 181.849C114.547 182.299 113.845 182.523 113.135 182.476" stroke="#FAA93B" stroke-width="1.2" stroke-miterlimit="10" stroke-linecap="round"/>
<path d="M104.322 186.789L100.822 187.419C99.8922 187.587 99.2743 188.475 99.4421 189.402C99.61 190.33 100.5 190.947 101.43 190.779L104.93 190.149C105.86 189.982 106.478 189.094 106.31 188.166C106.142 187.238 105.252 186.622 104.322 186.789Z" stroke="#FAA93B" stroke-width="1.2" stroke-miterlimit="10"/>
<path d="M129.383 190.622L124.604 188.856C123.718 188.529 122.733 188.98 122.405 189.864C122.077 190.749 122.529 191.731 123.416 192.058L128.194 193.823C129.081 194.151 130.065 193.699 130.393 192.815C130.721 191.931 130.269 190.949 129.383 190.622Z" stroke="#FAA93B" stroke-width="1.2" stroke-miterlimit="10"/>
<path d="M129.292 190.305C129.746 189.842 130.101 189.293 130.338 188.69C130.574 188.087 130.687 187.443 130.668 186.796C130.449 183.487 127.8 180.12 118.804 180.807C117.886 180.923 116.953 180.825 116.08 180.521" stroke="#FAA93B" stroke-width="1.2" stroke-linecap="round" stroke-linejoin="round"/>
<path d="M105.716 190.544C106.869 191.226 108.07 191.822 109.311 192.327C117.638 194.912 122.896 193.824 123.852 193.548C124.423 193.425 124.978 193.236 125.506 192.985" stroke="#FAA93B" stroke-width="1.2" stroke-linecap="round" stroke-linejoin="round"/>
<path d="M101.118 187.244C99.8971 185.863 99.218 184.088 99.2061 182.247C99.2498 181.743 99.4622 181.269 99.8091 180.901C100.156 180.532 100.617 180.291 101.118 180.216C101.76 179.11 102.704 178.209 103.84 177.618C104.976 177.027 106.257 176.77 107.533 176.878C108.676 176.968 109.779 177.338 110.745 177.955" stroke="#FAA93B" stroke-width="1.2" stroke-linecap="round" stroke-linejoin="round"/>
<path d="M276.576 119.209V98.0757C276.576 92.2583 281.547 87.3659 283.727 85.4967C283.794 85.43 284.76 84.7147 284.932 84.5431C291.08 79.4106 295.495 72.5146 297.578 64.7919C299.66 57.0692 299.309 48.8941 296.572 41.3773C293.835 33.8605 288.845 27.3664 282.28 22.7771C275.714 18.1879 267.891 15.7261 259.874 15.7261C251.857 15.7261 244.035 18.1879 237.469 22.7771C230.904 27.3664 225.913 33.8605 223.176 41.3773C220.439 48.8941 220.088 57.0692 222.171 64.7919C224.254 72.5146 228.669 79.4106 234.817 84.5431C235.257 84.915 235.706 85.2679 236.165 85.6207L236.481 85.8687C238.813 87.9668 243.173 92.6111 243.173 98.0661V119.209" stroke="#25B5E9" stroke-width="1.2" stroke-miterlimit="10"/>
<path opacity="0.3" d="M53.1929 156.832V100.46C53.203 97.0055 54.5831 93.6954 57.0318 91.2527C59.4805 88.81 62.7987 87.4333 66.2616 87.4232H185.764" stroke="#19B0DE" stroke-width="1.2" stroke-miterlimit="10"/>
<path d="M115.803 204.591C130 204.591 141.51 193.11 141.51 178.947C141.51 164.784 130 153.303 115.803 153.303C101.605 153.303 90.0952 164.784 90.0952 178.947C90.0952 193.11 101.605 204.591 115.803 204.591Z" stroke="#25B5E9" stroke-width="1.2" stroke-miterlimit="10"/>
<path d="M184.894 129.642C184.894 129.642 163.508 106.64 161.099 104.084C156.759 99.4776 154.311 99.2106 147.648 101.757C145.65 102.52 92.4089 126.171 90.43 126.982C83.8239 129.699 82.2178 131.54 82.2178 137.863V170.564" stroke="#25B5E9" stroke-width="1.2" stroke-miterlimit="10"/>
<path opacity="0.3" d="M334.348 112.085H366.853C371.123 112.098 375.214 113.796 378.233 116.809C381.252 119.822 382.952 123.904 382.962 128.164V207.758" stroke="#19B0DE" stroke-width="1.2" stroke-miterlimit="10"/>
<path d="M358.66 151.09C365.497 151.09 371.04 145.561 371.04 138.74C371.04 131.92 365.497 126.39 358.66 126.39C351.822 126.39 346.279 131.92 346.279 138.74C346.279 145.561 351.822 151.09 358.66 151.09Z" stroke="#25B5E9" stroke-width="1.2" stroke-miterlimit="10"/>
<path d="M277.265 124.378L355.008 150.833" stroke="#25B5E9" stroke-width="1.2" stroke-miterlimit="10"/>
<path d="M358.66 200.796C363.375 200.796 367.197 196.983 367.197 192.279C367.197 187.576 363.375 183.763 358.66 183.763C353.945 183.763 350.123 187.576 350.123 192.279C350.123 196.983 353.945 200.796 358.66 200.796Z" stroke="#25B5E9" stroke-width="1.2" stroke-miterlimit="10"/>
<path d="M371.069 139.312L367.216 193.081" stroke="#25B5E9" stroke-width="1.2" stroke-miterlimit="10"/>
<path d="M346.251 139.312L350.094 193.081" stroke="#25B5E9" stroke-width="1.2" stroke-miterlimit="10"/>
<path d="M101.596 181.827C101.662 181.773 101.71 181.701 101.734 181.619C101.757 181.538 101.756 181.451 101.729 181.37C101.702 181.289 101.651 181.219 101.583 181.168C101.515 181.116 101.433 181.087 101.348 181.083L100.143 180.988C100.058 180.981 99.9731 180.999 99.8986 181.041C99.8242 181.082 99.7637 181.144 99.7248 181.22C99.6859 181.295 99.6703 181.381 99.6801 181.465C99.6899 181.549 99.7246 181.629 99.7797 181.694L100.334 182.342C100.408 182.428 100.513 182.48 100.626 182.489C100.738 182.498 100.85 182.463 100.937 182.39L101.596 181.827Z" fill="#FAA93B" stroke="#FAA93B" stroke-width="1.34" stroke-miterlimit="10"/>
<path d="M245.439 146.971C251.796 146.971 256.949 141.83 256.949 135.488C256.949 129.147 251.796 124.006 245.439 124.006C239.082 124.006 233.928 129.147 233.928 135.488C233.928 141.83 239.082 146.971 245.439 146.971Z" stroke="#25B5E9" stroke-width="1.2" stroke-miterlimit="10"/>
<path d="M273.651 146.971C280.008 146.971 285.161 141.83 285.161 135.488C285.161 129.147 280.008 124.006 273.651 124.006C267.294 124.006 262.14 129.147 262.14 135.488C262.14 141.83 267.294 146.971 273.651 146.971Z" stroke="#25B5E9" stroke-width="1.2" stroke-miterlimit="10"/>
<path d="M178.584 124.569L241.548 146.284" stroke="#25B5E9" stroke-width="1.2" stroke-miterlimit="10"/>
<path opacity="0.3" d="M281.26 172.338H234.798C234.222 172.338 233.756 172.804 233.756 173.378C233.756 173.952 234.222 174.417 234.798 174.417H281.26C281.836 174.417 282.303 173.952 282.303 173.378C282.303 172.804 281.836 172.338 281.26 172.338Z" fill="#19B0DE"/>
<path opacity="0.3" d="M281.26 178.537H234.798C234.222 178.537 233.756 179.003 233.756 179.577C233.756 180.151 234.222 180.616 234.798 180.616H281.26C281.836 180.616 282.303 180.151 282.303 179.577C282.303 179.003 281.836 178.537 281.26 178.537Z" fill="#19B0DE"/>
<path opacity="0.3" d="M257.398 184.726H234.798C234.222 184.726 233.756 185.192 233.756 185.766C233.756 186.34 234.222 186.805 234.798 186.805H257.398C257.974 186.805 258.44 186.34 258.44 185.766C258.44 185.192 257.974 184.726 257.398 184.726Z" fill="#19B0DE"/>
<path d="M228.976 162.658C228.976 162.658 228.852 158.539 233.087 158.539H290.027C289.165 158.732 288.396 159.218 287.852 159.914C287.308 160.609 287.023 161.471 287.045 162.353V206.117C287.017 209.129 285.794 212.007 283.644 214.121C281.494 216.236 278.592 217.414 275.572 217.399L229.014 217.342L228.976 162.658Z" stroke="#25B5E9" stroke-width="1.19" stroke-miterlimit="10"/>
<path opacity="0.3" d="M287.083 163.412H289.205C290.462 163.356 291.649 162.819 292.519 161.912C293.389 161.005 293.874 159.798 293.874 158.543C293.874 157.288 293.389 156.081 292.519 155.174C291.649 154.268 290.462 153.73 289.205 153.675H230.563C229.407 153.674 228.288 154.084 227.407 154.831C226.526 155.578 225.941 156.613 225.756 157.751C225.571 158.89 225.798 160.057 226.396 161.043C226.995 162.03 227.927 162.771 229.024 163.135" stroke="#19B0DE" stroke-width="1.2" stroke-miterlimit="10"/>
<path d="M110.497 7.11438L114.206 7.11438C116.012 7.11438 117.476 5.65413 117.476 3.85282C117.476 2.05151 116.012 0.591259 114.206 0.591259L110.497 0.591259C108.691 0.591259 107.227 2.05151 107.227 3.85282C107.227 5.65413 108.691 7.11438 110.497 7.11438Z" fill="#6CBD45"/>
<path d="M185.687 6.8855L191.337 6.8855C193.143 6.8855 194.607 5.42525 194.607 3.62394C194.607 1.82263 193.143 0.362377 191.337 0.362377L185.687 0.362377C183.882 0.362377 182.418 1.82263 182.418 3.62394C182.418 5.42525 183.882 6.8855 185.687 6.8855Z" fill="#6CBD45"/>
<path d="M168.355 5.73156C169.147 5.73156 169.789 5.0911 169.789 4.30105C169.789 3.51101 169.147 2.87054 168.355 2.87054C167.563 2.87054 166.921 3.51101 166.921 4.30105C166.921 5.0911 167.563 5.73156 168.355 5.73156Z" fill="#6CBD45"/>
<path d="M210.314 27.1702C211.106 27.1702 211.748 26.5297 211.748 25.7397C211.748 24.9496 211.106 24.3091 210.314 24.3091C209.522 24.3091 208.88 24.9496 208.88 25.7397C208.88 26.5297 209.522 27.1702 210.314 27.1702Z" fill="#6CBD45"/>
<path d="M208.546 31.4235C209.338 31.4235 209.98 30.7831 209.98 29.993C209.98 29.203 209.338 28.5625 208.546 28.5625C207.754 28.5625 207.112 29.203 207.112 29.993C207.112 30.7831 207.754 31.4235 208.546 31.4235Z" fill="#6CBD45"/>
<path d="M158.594 62.847V74.7298C158.594 76.5363 160.06 78.0009 161.868 78.0009C163.677 78.0009 165.142 76.5363 165.142 74.7298V62.847C165.142 61.0404 163.677 59.5759 161.868 59.5759C160.06 59.5759 158.594 61.0404 158.594 62.847Z" fill="#6CBD45"/>
<path d="M52.2082 51.5079H59.8181C61.6186 51.5079 63.0781 50.0519 63.0781 48.2558C63.0781 46.4598 61.6186 45.0038 59.8181 45.0038H52.2082C50.4077 45.0038 48.9482 46.4598 48.9482 48.2558C48.9482 50.0519 50.4077 51.5079 52.2082 51.5079Z" fill="#6CBD45"/>
<path d="M47.5141 86.8796C48.3061 86.8796 48.9481 86.2391 48.9481 85.4491C48.9481 84.659 48.3061 84.0186 47.5141 84.0186C46.7221 84.0186 46.0801 84.659 46.0801 85.4491C46.0801 86.2391 46.7221 86.8796 47.5141 86.8796Z" fill="#6CBD45"/>
<path d="M43.3652 89.6547C44.1572 89.6547 44.7992 89.0143 44.7992 88.2242C44.7992 87.4342 44.1572 86.7937 43.3652 86.7937C42.5732 86.7937 41.9312 87.4342 41.9312 88.2242C41.9312 89.0143 42.5732 89.6547 43.3652 89.6547Z" fill="#6CBD45"/>
<path d="M125.43 51.0882C126.222 51.0882 126.864 50.4478 126.864 49.6577C126.864 48.8677 126.222 48.2272 125.43 48.2272C124.638 48.2272 123.996 48.8677 123.996 49.6577C123.996 50.4478 124.638 51.0882 125.43 51.0882Z" fill="#6CBD45"/>
<path d="M129.521 49.1714C130.313 49.1714 130.955 48.5309 130.955 47.7409C130.955 46.9508 130.313 46.3104 129.521 46.3104C128.729 46.3104 128.087 46.9508 128.087 47.7409C128.087 48.5309 128.729 49.1714 129.521 49.1714Z" fill="#6CBD45"/>
<path opacity="0.7" d="M413 45.8431L410.581 44.7463C410.22 43.3544 409.385 42.1309 408.22 41.2845C406.913 40.3012 405.276 39.8603 403.65 40.0543L402.044 40.2259L403.841 48.0365C403.873 48.1843 403.846 48.3386 403.766 48.4667C403.685 48.5949 403.558 48.6869 403.411 48.7231C403.338 48.7416 403.262 48.7453 403.188 48.7341C403.114 48.7228 403.043 48.6969 402.978 48.6578C402.914 48.6187 402.859 48.5673 402.815 48.5064C402.771 48.4456 402.74 48.3766 402.723 48.3035L400.897 40.4167L400.122 37.0502L399.08 32.7968C397.465 33.7505 393.727 36.4494 393.927 40.9698C393.927 41.1128 393.927 41.2273 393.927 41.3608C393.927 41.4943 393.927 41.6564 393.975 41.7804C394.023 41.9044 394.033 42.0856 394.052 42.2191C394.071 42.3526 394.119 42.5433 394.157 42.6864C394.276 43.1764 394.43 43.6576 394.616 44.1264C394.692 44.2886 394.75 44.4507 394.826 44.6033L394.874 44.7082L395.046 45.0897L395.371 45.7L395.6 46.1005L396.652 47.6932L396.738 47.8076L396.824 47.9316L398.134 49.6196C398.216 49.7403 398.25 49.888 398.226 50.0324C398.203 50.1767 398.126 50.3067 398.01 50.3958C397.893 50.4848 397.747 50.5262 397.602 50.5113C397.456 50.4964 397.321 50.4265 397.226 50.3158L395.906 48.6373L395.811 48.5038L395.725 48.3894L394.606 46.73L394.405 46.3866L394.023 45.6523C393.956 45.5093 393.889 45.3758 393.832 45.2422L393.774 45.1183C393.698 44.9561 393.631 44.7845 393.564 44.6224C393.356 44.107 393.184 43.5781 393.048 43.0393C393 42.8581 392.971 42.6959 392.933 42.5433C392.895 42.3908 392.876 42.2 392.857 42.057L392.79 41.5801C392.79 41.3799 392.79 41.2368 392.79 41.1033C392.785 41.0462 392.785 40.9888 392.79 40.9316L388.01 36.2682C388.01 36.2682 386.662 35.0666 385.715 35.1142C385.204 35.1375 384.711 35.3154 384.304 35.6243C383.896 35.9332 383.592 36.3586 383.432 36.8439C383.272 37.3292 383.264 37.8515 383.409 38.3414C383.554 38.8314 383.845 39.2658 384.243 39.587L391.576 45.7763V45.8621C390.514 48.5801 391.719 51.67 393.698 53.7204V53.3294L393.927 53.9111C394.138 54.1114 394.358 54.3212 394.587 54.5024C395.245 55.0149 395.973 55.4323 396.748 55.7422V55.561L396.834 55.7708C398.485 56.4219 400.271 56.6546 402.034 56.4479C405.629 55.9901 408.488 53.2817 409.95 50.0678C410.441 49.0655 410.73 47.9768 410.801 46.8635L413 45.8431Z" fill="#FAA93B"/>
<path d="M398.105 28.9726C398.105 28.9726 393.048 30.508 392.016 35.1429" stroke="#FAA93B" stroke-width="1.2" stroke-linecap="round" stroke-linejoin="round"/>
<path d="M398.975 25.7492C398.564 25.568 393.851 26.4644 391.49 30.9753" stroke="#FAA93B" stroke-width="1.2" stroke-linecap="round" stroke-linejoin="round"/>
<path d="M396.891 55.7136L398.316 59.3566L397.388 60.9111" stroke="#FAA93B" stroke-width="1.2" stroke-linecap="round" stroke-linejoin="round"/>
<path d="M398.669 60.7203L398.344 59.4138" stroke="#FAA93B" stroke-width="1.2" stroke-linecap="round" stroke-linejoin="round"/>
<path d="M396.843 59.5378L398.105 58.9847" stroke="#FAA93B" stroke-width="1.2" stroke-linecap="round" stroke-linejoin="round"/>
<path d="M393.793 53.4343L395.228 57.0773L394.291 58.6318" stroke="#FAA93B" stroke-width="1.2" stroke-linecap="round" stroke-linejoin="round"/>
<path d="M395.572 58.4411L395.247 57.1345" stroke="#FAA93B" stroke-width="1.2" stroke-linecap="round" stroke-linejoin="round"/>
<path d="M393.746 57.2585L395.008 56.7054" stroke="#FAA93B" stroke-width="1.2" stroke-linecap="round" stroke-linejoin="round"/>
<path d="M408.22 46.8826C408.044 47.1164 407.803 47.2931 407.526 47.3901C407.25 47.4871 406.951 47.5001 406.667 47.4276C406.383 47.355 406.127 47.2001 405.931 46.9824C405.736 46.7648 405.609 46.4941 405.568 46.2047C405.526 45.9153 405.572 45.6201 405.698 45.3565C405.825 45.0929 406.027 44.8727 406.28 44.7237C406.532 44.5747 406.823 44.5037 407.115 44.5196C407.408 44.5356 407.689 44.6377 407.924 44.8131C408.079 44.9296 408.21 45.0755 408.31 45.2425C408.409 45.4096 408.474 45.5944 408.501 45.7866C408.529 45.9788 408.518 46.1745 408.47 46.3625C408.422 46.5506 408.337 46.7273 408.22 46.8826Z" fill="white"/>
<path d="M407.828 46.2054C407.944 46.2054 408.038 46.1115 408.038 45.9956C408.038 45.8798 407.944 45.7858 407.828 45.7858C407.712 45.7858 407.618 45.8798 407.618 45.9956C407.618 46.1115 407.712 46.2054 407.828 46.2054Z" stroke="#FAA93B" stroke-width="1.2" stroke-linecap="round" stroke-linejoin="round"/>
<mask id="mask0" style="mask-type:alpha" maskUnits="userSpaceOnUse" x="114" y="180" width="17" height="12">
<path d="M129.41 191.841C129.925 191.292 130.329 190.641 130.597 189.927C130.866 189.212 130.993 188.449 130.973 187.681C130.723 183.759 127.717 179.77 117.505 180.583C116.463 180.721 115.404 180.604 114.412 180.244" fill="#C4C4C4"/>
</mask>
<g mask="url(#mask0)">
<path opacity="0.7" d="M137.142 177.539L125.956 175.943C124.524 175.738 123.197 176.731 122.992 178.16L122.081 184.513C121.876 185.942 122.871 187.265 124.303 187.47L135.489 189.066C136.921 189.27 138.249 188.278 138.453 186.849L139.364 180.496C139.569 179.067 138.574 177.743 137.142 177.539Z" fill="#FAA93B"/>
</g>
</svg>
