<svg width="680" height="500" viewBox="0 0 680 500" fill="none" xmlns="http://www.w3.org/2000/svg">
<g clip-path="url(#clip0)">
<path d="M577.926 498.368V442.925C577.926 442.925 599.532 482.232 577.926 498.368Z" fill="#F1F1F1"/>
<path d="M579.26 498.358L538.418 460.864C538.418 460.864 581.985 471.529 579.26 498.358Z" fill="#F1F1F1"/>
<path d="M146.531 0H48.8433L0 84.5991L48.8433 169.199H146.531L195.374 84.5991L146.531 0Z" fill="#E6E6E6"/>
<path d="M54.3259 159.703H141.048L184.409 84.5994L141.048 9.49585H54.3259L10.9648 84.5994L54.3259 159.703Z" fill="white"/>
<path d="M53.2781 66.1959C55.4877 66.1959 57.2789 64.4047 57.2789 62.1951C57.2789 59.9855 55.4877 58.1943 53.2781 58.1943C51.0685 58.1943 49.2773 59.9855 49.2773 62.1951C49.2773 64.4047 51.0685 66.1959 53.2781 66.1959Z" fill="#E2E2E2"/>
<path d="M53.2781 88.6002C55.4877 88.6002 57.2789 86.809 57.2789 84.5994C57.2789 82.3898 55.4877 80.5986 53.2781 80.5986C51.0685 80.5986 49.2773 82.3898 49.2773 84.5994C49.2773 86.809 51.0685 88.6002 53.2781 88.6002Z" fill="#E2E2E2"/>
<path d="M53.2781 111.004C55.4877 111.004 57.2789 109.213 57.2789 107.004C57.2789 104.794 55.4877 103.003 53.2781 103.003C51.0685 103.003 49.2773 104.794 49.2773 107.004C49.2773 109.213 51.0685 111.004 53.2781 111.004Z" fill="#E2E2E2"/>
<path d="M146.097 58.9946H70.082V65.3958H146.097V58.9946Z" fill="#E2E2E2"/>
<path d="M146.097 81.3987H70.082V87.7999H146.097V81.3987Z" fill="#E2E2E2"/>
<path d="M146.097 103.803H70.082V110.204H146.097V103.803Z" fill="#E2E2E2"/>
<path d="M630.294 0H532.607L483.764 84.5991L532.607 169.199H630.294L679.138 84.5991L630.294 0Z" fill="#E6E6E6"/>
<path d="M538.09 159.703H624.812L668.173 84.5994L624.812 9.49585H538.09L494.729 84.5994L538.09 159.703Z" fill="white"/>
<path d="M537.042 66.1959C539.251 66.1959 541.043 64.4047 541.043 62.1951C541.043 59.9855 539.251 58.1943 537.042 58.1943C534.832 58.1943 533.041 59.9855 533.041 62.1951C533.041 64.4047 534.832 66.1959 537.042 66.1959Z" fill="#E2E2E2"/>
<path d="M537.042 88.6002C539.251 88.6002 541.043 86.809 541.043 84.5994C541.043 82.3898 539.251 80.5986 537.042 80.5986C534.832 80.5986 533.041 82.3898 533.041 84.5994C533.041 86.809 534.832 88.6002 537.042 88.6002Z" fill="#E2E2E2"/>
<path d="M537.042 111.004C539.251 111.004 541.043 109.213 541.043 107.004C541.043 104.794 539.251 103.003 537.042 103.003C534.832 103.003 533.041 104.794 533.041 107.004C533.041 109.213 534.832 111.004 537.042 111.004Z" fill="#E2E2E2"/>
<path d="M629.86 58.9946H553.846V65.3958H629.86V58.9946Z" fill="#E2E2E2"/>
<path d="M629.86 81.3987H553.846V87.7999H629.86V81.3987Z" fill="#E2E2E2"/>
<path d="M629.86 103.803H553.846V110.204H629.86V103.803Z" fill="#E2E2E2"/>
<path d="M387.937 0.821533H291.199L242.83 84.5991L291.199 168.377H387.937L436.308 84.5991L387.937 0.821533Z" fill="#E6E6E6"/>
<path d="M296.628 158.973H382.508L425.448 84.5993L382.508 10.2251H296.628L253.688 84.5993L296.628 158.973Z" fill="white"/>
<path d="M295.592 66.3745C297.78 66.3745 299.554 64.6007 299.554 62.4126C299.554 60.2245 297.78 58.4507 295.592 58.4507C293.404 58.4507 291.63 60.2245 291.63 62.4126C291.63 64.6007 293.404 66.3745 295.592 66.3745Z" fill="#00BCEB"/>
<path d="M295.592 88.5613C297.78 88.5613 299.554 86.7875 299.554 84.5994C299.554 82.4113 297.78 80.6375 295.592 80.6375C293.404 80.6375 291.63 82.4113 291.63 84.5994C291.63 86.7875 293.404 88.5613 295.592 88.5613Z" fill="#00BCEB"/>
<path d="M295.592 110.748C297.78 110.748 299.554 108.974 299.554 106.786C299.554 104.598 297.78 102.824 295.592 102.824C293.404 102.824 291.63 104.598 291.63 106.786C291.63 108.974 293.404 110.748 295.592 110.748Z" fill="#00BCEB"/>
<path d="M387.508 59.2432H312.231V65.5822H387.508V59.2432Z" fill="#00BCEB"/>
<path d="M387.508 81.4299H312.231V87.769H387.508V81.4299Z" fill="#00BCEB"/>
<path d="M387.508 103.616H312.231V109.956H387.508V103.616Z" fill="#00BCEB"/>
<path d="M422.042 490.308L412.646 490.308L408.176 454.065L422.043 454.066L422.042 490.308Z" fill="#9F616A"/>
<path d="M424.438 499.416L394.141 499.415V499.032C394.141 495.904 395.383 492.905 397.595 490.694C399.806 488.482 402.806 487.24 405.933 487.24H405.934L424.438 487.24L424.438 499.416Z" fill="#2F2E41"/>
<path d="M509.414 490.308L500.018 490.308L495.548 454.065L509.415 454.066L509.414 490.308Z" fill="#9F616A"/>
<path d="M511.81 499.416L481.513 499.415V499.032C481.513 495.904 482.755 492.905 484.967 490.694C487.178 488.482 490.178 487.24 493.305 487.24H493.306L511.81 487.24L511.81 499.416Z" fill="#2F2E41"/>
<path d="M418.296 306.386C418.296 306.386 410.41 327.793 411.536 336.807C412.663 345.821 403.649 408.916 404.776 414.549C405.903 420.183 403.649 448.35 404.776 452.857C405.903 457.364 401.614 462.747 403.867 467.254C406.121 471.761 409.283 481.025 409.283 481.025L423.93 479.898L426.183 467.504C426.183 467.504 432.944 466.378 431.817 459.617C430.69 452.857 437.45 407.789 437.45 407.789L456.604 344.694L483.645 402.156C483.645 402.156 484.772 442.717 488.152 447.224C491.532 451.73 484.772 464.124 488.152 468.631C491.532 473.138 494.912 481.025 494.912 481.025H511.813V472.011C511.813 472.011 521.953 466.378 511.813 449.477L504.961 347.982L498.2 301.788L418.296 306.386Z" fill="#2F2E41"/>
<path d="M460.298 164.714C471.92 164.714 481.342 155.293 481.342 143.67C481.342 132.048 471.92 122.626 460.298 122.626C448.676 122.626 439.254 132.048 439.254 143.67C439.254 155.293 448.676 164.714 460.298 164.714Z" fill="#A0616A"/>
<path d="M442.39 142.219C443.875 146.012 445.36 149.806 446.845 153.6C448.67 158.264 450.761 163.254 455.04 165.857C460.323 169.071 467.379 167.504 472.49 164.023C477.086 160.892 480.615 156.429 482.601 151.234C484.587 146.039 484.936 140.36 483.601 134.961C482.266 129.562 479.311 124.701 475.132 121.03C470.953 117.36 465.751 115.056 460.225 114.428L460.013 118.238L455.339 114.319C454.993 114.913 454.517 115.42 453.948 115.803C453.378 116.186 452.729 116.435 452.049 116.531C451.369 116.627 450.676 116.568 450.022 116.358C449.369 116.148 448.771 115.792 448.274 115.318C449.502 117.864 448.085 120.968 446.039 122.918C443.524 125.313 436.333 128.192 436.631 132.474C436.83 135.332 441.231 139.257 442.39 142.219Z" fill="#2F2E41"/>
<path d="M518.225 337.515C518.95 336.433 519.429 335.205 519.629 333.918C519.828 332.631 519.743 331.315 519.379 330.064C519.015 328.814 518.381 327.658 517.522 326.679C516.663 325.699 515.599 324.92 514.407 324.396L514.827 304.039L502.518 300.766L502.328 329.523C501.581 331.585 501.616 333.85 502.426 335.888C503.237 337.925 504.767 339.595 506.727 340.58C508.686 341.565 510.939 341.797 513.058 341.233C515.177 340.668 517.016 339.345 518.225 337.515V337.515Z" fill="#9F616A"/>
<path d="M475.93 177.72C475.93 177.72 459.622 169.567 444.221 175.003C428.82 180.438 420.666 186.78 420.666 186.78L430.631 239.326L417.042 309.992C417.042 309.992 486.802 304.556 493.143 309.992C499.485 315.428 499.485 303.65 499.485 303.65L494.049 236.608L504.015 194.028L475.93 177.72Z" fill="#3F3D56"/>
<path d="M407.102 338.721C408.102 337.886 408.906 336.842 409.459 335.662C410.012 334.482 410.299 333.196 410.301 331.893C410.303 330.591 410.019 329.304 409.469 328.122C408.92 326.941 408.118 325.895 407.121 325.057L413.24 305.637L402.345 299.04L394.088 326.587C392.792 328.356 392.19 330.539 392.396 332.723C392.602 334.906 393.602 336.938 395.206 338.434C396.81 339.93 398.907 340.785 401.099 340.838C403.292 340.891 405.428 340.137 407.102 338.721V338.721Z" fill="#9F616A"/>
<path d="M427.008 186.78H420.666C420.666 186.78 410.701 193.122 410.701 202.181C410.701 211.241 396.205 317.239 396.205 317.239L411.607 319.957L425.196 245.668L435.162 225.737L427.008 186.78Z" fill="#3F3D56"/>
<path d="M486.802 194.028H504.015C504.015 194.028 509.451 199.464 512.169 212.147C514.887 224.831 517.605 274.659 517.605 274.659L515.793 319.957H502.203L500.391 261.069L491.332 223.019L486.802 194.028Z" fill="#3F3D56"/>
<path d="M616.847 500H324.841C324.637 500 324.442 499.919 324.299 499.776C324.155 499.632 324.074 499.437 324.074 499.234C324.074 499.03 324.155 498.835 324.299 498.692C324.442 498.548 324.637 498.467 324.841 498.467H616.847C617.051 498.467 617.245 498.548 617.389 498.692C617.533 498.835 617.614 499.03 617.614 499.234C617.614 499.437 617.533 499.632 617.389 499.776C617.245 499.919 617.051 500 616.847 500Z" fill="#CBCBCB"/>
</g>
<defs>
<clipPath id="clip0">
<rect width="679.138" height="500" fill="white"/>
</clipPath>
</defs>
</svg>
