<svg width="239" height="211" viewBox="0 0 239 211" fill="none" xmlns="http://www.w3.org/2000/svg">
<g clip-path="url(#clip0)">
<path d="M207.675 126.402H6.54776C4.92545 126.4 3.37011 125.755 2.22296 124.608C1.07582 123.461 0.430543 121.906 0.428711 120.284V6.89722H213.794V120.284C213.793 121.906 213.147 123.461 212 124.608C210.853 125.755 209.298 126.4 207.675 126.402Z" fill="#E6E6E6"/>
<path d="M199.67 114.691H14.5507C13.7149 114.69 12.9137 114.358 12.3227 113.767C11.7318 113.176 11.3994 112.375 11.3984 111.54V21.7594C11.3994 20.9238 11.7318 20.1227 12.3227 19.5318C12.9137 18.941 13.7149 18.6086 14.5507 18.6077H199.67C200.506 18.6086 201.307 18.941 201.898 19.5318C202.489 20.1227 202.822 20.9238 202.823 21.7594V111.54C202.822 112.375 202.489 113.176 201.898 113.767C201.307 114.358 200.506 114.69 199.67 114.691Z" fill="white"/>
<path d="M214.222 11.03H0V6.118C0.00183256 4.49597 0.647105 2.9409 1.79425 1.79395C2.9414 0.646994 4.49674 0.00183225 6.11905 0H208.103C209.725 0.00183225 211.281 0.646994 212.428 1.79395C213.575 2.9409 214.22 4.49597 214.222 6.118V11.03Z" fill="#00BCEB"/>
<path d="M101.501 75.5338H109.768V74.8894C109.818 69.6349 111.531 67.2307 115.577 64.7521C120.145 62.0257 123 58.3079 123 52.632C123 44.2545 116.471 39 106.988 39C98.2987 39 91.2483 43.8084 91 53.2269H99.8379C100.061 48.5672 103.438 46.3365 106.938 46.3365C110.736 46.3365 113.79 48.8646 113.79 52.756C113.79 56.2259 111.481 58.6053 108.477 60.489C104.083 63.2154 101.551 65.9666 101.501 74.8894V75.5338ZM105.846 91C108.775 91 111.282 88.571 111.307 85.5472C111.282 82.5729 108.775 80.1439 105.846 80.1439C102.817 80.1439 100.359 82.5729 100.384 85.5472C100.359 88.571 102.817 91 105.846 91Z" fill="#E6E6E6"/>
<path d="M155.59 206.274H151.044L148.881 188.74H155.591L155.59 206.274Z" fill="#A0616A"/>
<path d="M147.796 204.974H156.565V210.494H142.275C142.275 209.769 142.418 209.052 142.696 208.382C142.973 207.712 143.38 207.104 143.892 206.591C144.405 206.079 145.014 205.672 145.683 205.395C146.353 205.117 147.071 204.974 147.796 204.974Z" fill="#2F2E41"/>
<path d="M174.503 206.274H169.957L167.794 188.74H174.504L174.503 206.274Z" fill="#A0616A"/>
<path d="M166.709 204.974H175.478V210.494H161.188C161.188 209.769 161.331 209.052 161.609 208.382C161.886 207.712 162.293 207.104 162.805 206.591C163.318 206.079 163.927 205.672 164.597 205.395C165.266 205.117 165.984 204.974 166.709 204.974Z" fill="#2F2E41"/>
<path d="M173.924 202.244H169.296C168.878 202.241 168.476 202.083 168.168 201.8C167.861 201.517 167.67 201.129 167.633 200.713L163.711 153.475C163.699 153.338 163.637 153.21 163.537 153.115C163.436 153.021 163.304 152.968 163.166 152.965C163.029 152.963 162.895 153.012 162.791 153.102C162.687 153.193 162.62 153.319 162.604 153.456L156.971 200.772C156.923 201.178 156.727 201.551 156.422 201.822C156.117 202.094 155.722 202.243 155.314 202.244H149.631C149.19 202.243 148.768 202.068 148.455 201.757C148.143 201.446 147.966 201.025 147.963 200.584C147.951 197.612 147.93 194.618 147.91 191.624C147.73 164.956 147.543 137.381 153.113 126.577L153.163 126.479L173.261 126.135L173.311 126.246C179.392 139.531 177.546 169.211 175.761 197.913L175.59 200.679C175.563 201.102 175.376 201.5 175.066 201.79C174.757 202.081 174.349 202.243 173.924 202.244Z" fill="#2F2E41"/>
<path d="M164.403 90.6298C169.434 90.6298 173.512 86.5525 173.512 81.5228C173.512 76.4932 169.434 72.4159 164.403 72.4159C159.373 72.4159 155.295 76.4932 155.295 81.5228C155.295 86.5525 159.373 90.6298 164.403 90.6298Z" fill="#A0616A"/>
<path d="M151.986 128.153L152.237 117.712L150.43 109.565C149.974 107.547 150 105.451 150.508 103.446C151.015 101.441 151.989 99.5839 153.351 98.0265C154.675 96.4769 156.347 95.2622 158.23 94.4815C160.113 93.7008 162.154 93.3763 164.187 93.5343H164.187C164.318 93.5444 164.45 93.5554 164.581 93.5672C166.318 93.7235 168.005 94.2278 169.543 95.0501C171.08 95.8723 172.437 96.9956 173.531 98.3531C174.647 99.7181 175.478 101.294 175.973 102.987C176.467 104.68 176.616 106.455 176.41 108.206L174.224 127.308L151.986 128.153Z" fill="#00BCEB"/>
<path d="M144.248 146.867C144.678 146.531 145.028 146.106 145.276 145.62C145.523 145.134 145.661 144.6 145.68 144.055C145.698 143.511 145.597 142.968 145.384 142.467C145.17 141.965 144.849 141.517 144.443 141.153L149.572 128.935L142.803 130.206L138.971 141.613C138.405 142.335 138.123 143.24 138.179 144.156C138.235 145.072 138.625 145.936 139.276 146.583C139.926 147.231 140.791 147.617 141.708 147.67C142.624 147.722 143.528 147.436 144.248 146.867Z" fill="#A0616A"/>
<path d="M182.944 148.331C182.534 147.972 182.208 147.527 181.989 147.028C181.769 146.529 181.662 145.988 181.674 145.443C181.687 144.898 181.819 144.362 182.06 143.874C182.302 143.385 182.648 142.956 183.074 142.615L178.649 130.125L185.334 131.779L188.511 143.386C189.036 144.139 189.266 145.059 189.157 145.97C189.049 146.881 188.611 147.721 187.924 148.331C187.238 148.94 186.352 149.277 185.434 149.277C184.516 149.277 183.63 148.941 182.944 148.331Z" fill="#A0616A"/>
<path d="M145.062 140.88C144.827 140.88 144.595 140.83 144.38 140.734L140.478 138.987C140.103 138.819 139.803 138.519 139.635 138.143C139.468 137.768 139.446 137.344 139.572 136.953L146.117 116.626L148.646 101.313C148.736 100.769 148.934 100.248 149.229 99.7824C149.525 99.3166 149.91 98.9148 150.364 98.6011C150.818 98.2874 151.33 98.0681 151.87 97.9563C152.41 97.8444 152.967 97.8424 153.508 97.9502C154.049 98.0581 154.563 98.2736 155.019 98.584C155.475 98.8944 155.863 99.2933 156.162 99.7569C156.461 100.221 156.663 100.74 156.757 101.283C156.851 101.827 156.834 102.383 156.709 102.92L152.865 119.343L146.659 139.698C146.554 140.04 146.343 140.339 146.055 140.552C145.768 140.765 145.42 140.88 145.062 140.88V140.88Z" fill="#00BCEB"/>
<path d="M182.282 140.88C181.924 140.88 181.576 140.765 181.289 140.552C181.001 140.339 180.79 140.04 180.686 139.698L174.483 119.355L170.636 102.92C170.51 102.383 170.493 101.826 170.587 101.283C170.681 100.74 170.884 100.221 171.182 99.7569C171.481 99.2932 171.87 98.8943 172.325 98.5839C172.781 98.2735 173.295 98.058 173.836 97.9501C174.377 97.8423 174.934 97.8443 175.474 97.9561C176.014 98.068 176.527 98.2873 176.98 98.601C177.434 98.9147 177.82 99.3165 178.115 99.7824C178.41 100.248 178.608 100.769 178.698 101.313L181.234 116.653L187.772 136.953C187.899 137.344 187.876 137.768 187.709 138.143C187.541 138.519 187.241 138.819 186.866 138.987L182.964 140.734C182.75 140.83 182.517 140.88 182.282 140.88Z" fill="#00BCEB"/>
<path d="M164.59 71.4563C162.059 70.3599 158.752 71.7242 157.731 74.2863C157.095 75.8809 157.289 77.6794 157.639 79.3599C157.99 81.0403 158.49 82.7173 158.436 84.4331C158.382 86.1489 157.643 87.9699 156.121 88.7637C155.211 89.238 154.147 89.2907 153.161 89.5736C152.175 89.8565 151.157 90.5178 151.015 91.5337C150.8 93.0704 152.665 94.2409 152.652 95.7925C152.639 97.4365 150.584 98.4128 150.318 100.035C150.272 100.51 150.347 100.989 150.537 101.427C150.727 101.865 151.026 102.247 151.404 102.538C152.167 103.111 153.034 103.531 153.957 103.774C161.058 106.043 168.619 106.474 175.932 105.026C177.385 104.736 178.881 104.344 180.01 103.385C181.139 102.425 181.784 100.746 181.135 99.4141C180.163 97.4175 177.073 97.3037 175.997 95.361C175.351 94.1957 175.648 92.765 175.784 91.4398C176.135 88.0172 176.946 84.0188 176.095 80.685C175.327 77.673 173.659 73.7808 171.274 71.7861C169.563 70.3548 166.297 71.0069 164.11 71.4484L164.59 71.4563Z" fill="#2F2E41"/>
<path d="M238.629 211H108.831C108.732 211 108.638 210.961 108.569 210.891C108.499 210.822 108.46 210.728 108.46 210.629C108.46 210.531 108.499 210.437 108.569 210.367C108.638 210.297 108.732 210.258 108.831 210.258H238.629C238.727 210.258 238.821 210.297 238.891 210.367C238.961 210.437 239 210.531 239 210.629C239 210.728 238.961 210.822 238.891 210.891C238.821 210.961 238.727 211 238.629 211Z" fill="#CCCCCC"/>
<path d="M224.962 202.557C219.614 209.717 208.514 210.47 208.514 210.47C208.514 210.47 206.084 199.615 211.431 192.455C216.779 185.294 227.879 184.541 227.879 184.541C227.879 184.541 230.309 195.396 224.962 202.557Z" fill="#E6E6E6"/>
<path d="M197.72 205.248C201.249 209.973 208.574 210.471 208.574 210.471C208.574 210.471 210.177 203.307 206.649 198.582C203.12 193.858 195.795 193.36 195.795 193.36C195.795 193.36 194.192 200.523 197.72 205.248Z" fill="#E6E6E6"/>
</g>
<defs>
<clipPath id="clip0">
<rect width="239" height="211" fill="white"/>
</clipPath>
</defs>
</svg>
